<?xml version="1.0" encoding="UTF-8" standalone="no"?>
<svg
   xmlns:dc="http://purl.org/dc/elements/1.1/"
   xmlns:cc="http://creativecommons.org/ns#"
   xmlns:rdf="http://www.w3.org/1999/02/22-rdf-syntax-ns#"
   xmlns:svg="http://www.w3.org/2000/svg"
   xmlns="http://www.w3.org/2000/svg"
   xmlns:sodipodi="http://sodipodi.sourceforge.net/DTD/sodipodi-0.dtd"
   xmlns:inkscape="http://www.inkscape.org/namespaces/inkscape"
   version="1.1"
   id="svg2"
   viewBox="0 0 656.63694 199.15825"
   height="56.206886mm"
   width="185.31754mm"
   inkscape:version="0.91 r13725"
   sodipodi:docname="biochemical_society.svg">
  <sodipodi:namedview
     pagecolor="#ffffff"
     bordercolor="#666666"
     borderopacity="1"
     objecttolerance="10"
     gridtolerance="10"
     guidetolerance="10"
     inkscape:pageopacity="0"
     inkscape:pageshadow="2"
     inkscape:window-width="1920"
     inkscape:window-height="1145"
     id="namedview13"
     showgrid="false"
     fit-margin-top="0"
     fit-margin-left="0"
     fit-margin-right="0"
     fit-margin-bottom="0"
     inkscape:zoom="2.2211172"
     inkscape:cx="231.80853"
     inkscape:cy="80.358673"
     inkscape:window-x="0"
     inkscape:window-y="31"
     inkscape:window-maximized="1"
     inkscape:current-layer="svg2" />
  <defs
     id="defs4" />
  <metadata
     id="metadata7">
    <rdf:RDF>
      <cc:Work
         rdf:about="">
        <dc:format>image/svg+xml</dc:format>
        <dc:type
           rdf:resource="http://purl.org/dc/dcmitype/StillImage" />
        <dc:title></dc:title>
      </cc:Work>
    </rdf:RDF>
  </metadata>
  <path
     inkscape:connector-curvature="0"
     id="path4187"
     d="m 94.271349,197.99279 c -18.61821,-1.27344 -36.562916,-7.65633 -51.434336,-18.29502 -4.94155,-3.53508 -7.97199,-6.13107 -12.76065,-10.93131 -16.25125,-16.29054 -26.3385701,-37.6365 -28.6471701,-60.62082 -0.42968999,-4.27788 -0.42305,-13.756715 0.0127,-18.150005 1.46387,-14.75892 6.38853,-29.42721 14.0504901,-41.85 4.22567,-6.85131 8.69111,-12.44922 14.72165,-18.4551 15.94247,-15.87734 35.72201,-25.3866396 58.372966,-28.0636796 5.02466,-0.59384 15.041011,-0.67204002 19.798831,-0.15457 23.95365,2.60525 44.9274,12.7310096 61.38816,29.6370996 24.32859,24.98679 33.87945,60.48846 25.16373,93.536255 -10.36587,39.30453 -44.27814,68.58471 -84.41799,72.88725 -5.34294,0.57273 -11.889741,0.75801 -16.248391,0.4599 z M 68.187013,171.60785 c 5.664196,-1.13277 11.079786,-3.93207 15.366686,-7.94292 2.49193,-2.33148 5.48331,-6.14334 5.48331,-6.9873 0,-0.72969 -1.6792,-2.9055 -3.65346,-4.73394 -2.07992,-1.9263 -5.5877,-3.75354 -8.28631,-4.31646 -3.87197,-0.80763 -8.847626,-0.074 -12.452746,1.83603 -2.18442,1.15737 -5.45925,4.27791 -6.66028,6.3465 -2.74794,4.73295 -3.27816,10.68213 -1.3455,15.09663 l 0.55197,1.26078 2.04816,0.0892 c 3.21556,0.1401 6.02183,-0.0633 8.94817,-0.64854 z m 58.258947,-1.73721 c 0.84105,-1.27875 2.11482,-3.50958 2.83065,-4.95744 l 1.30149,-2.63241 -0.73443,-1.41759 c -1.18029,-2.27814 -5.18319,-6.08244 -7.73058,-7.347 -4.38855,-2.17851 -10.36881,-2.63949 -14.77608,-1.13892 -2.05812,0.70071 -5.79599,2.86419 -6.72817,3.89424 -0.54035,0.59709 -0.53355,0.63696 0.29735,1.74258 4.67933,6.22662 12.20309,11.29512 20.11322,13.54962 3.55734,1.01391 3.66909,0.97905 5.42655,-1.69308 z M 61.218143,145.79516 c 8.51385,-1.64301 15.835176,-5.46009 22.026636,-11.48391 1.72455,-1.67787 3.81562,-3.96801 4.64681,-5.08923 l 1.51126,-2.03859 -1.0076,-1.66254 c -4.16945,-6.87954 -14.0166,-12.98658 -22.240546,-13.79322 l -1.86769,-0.18321 -2.15694,1.98342 c -8.00707,7.36284 -13.2099,18.42207 -13.79459,29.32197 l -0.18798,3.50424 1.16976,0.14148 c 2.28305,0.27618 8.84007,-0.10974 11.90088,-0.70041 z m -19.68113,-2.47452 c 0.78513,-2.25561 0.71276,-6.13425 -0.15599,-8.36076 -0.99273,-2.54427 -2.79226,-4.84647 -4.87577,-6.23781 -1.01014,-0.67452 -2.07279,-1.22643 -2.36146,-1.22643 -0.93055,0 -3.02542,5.31822 -3.76741,9.5643 -0.24165,1.38285 -0.43937,2.67858 -0.43937,2.87937 0,0.6402 9.17748,4.87842 10.70089,4.94175 0.19299,0.008 0.59759,-0.69417 0.89911,-1.56042 z m 115.749997,-0.0652 c 4.7907,-1.07571 11.2497,-3.74442 11.66181,-4.81845 0.24477,-0.63783 0.23637,-4.1595 -0.0135,-5.67258 -0.36564,-2.21403 -4.11159,-5.1876 -8.39997,-6.66792 -3.30288,-1.14018 -7.30047,-1.14102 -10.77159,-0.003 -4.20072,1.37805 -8.25147,4.79796 -10.1661,8.58288 -0.97257,1.92267 -1.96065,5.26824 -1.96065,6.6387 0,1.10649 0.0555,1.17195 1.275,1.50429 0.70125,0.19113 2.2875,0.52872 3.525,0.75024 2.96412,0.53061 11.93154,0.3405 14.85,-0.31482 z m -23.96769,-3.98475 c -0.2985,-2.57067 -1.62321,-7.36113 -2.90823,-10.51689 -3.60183,-8.84538 -10.47804,-16.59174 -18.94908,-21.34704 l -1.725,-0.96834 0,1.11513 c 0,2.18616 0.94473,7.42491 1.82442,10.1169 1.09488,3.3504 3.38568,7.79472 5.45679,10.58658 3.41103,4.59798 9.26988,9.43335 14.31879,11.81742 1.0725,0.50643 2.00235,0.92088 2.06631,0.921 0.064,1.2e-4 0.0261,-0.77601 -0.084,-1.72476 z m 16.13832,-22.61055 c 1.72734,-0.30987 4.12809,-0.91701 5.33499,-1.34925 2.87784,-1.03065 5.94438,-2.46258 5.94438,-2.77575 0,-0.56175 -6.10701,-6.12156 -8.29446,-7.55124 -6.52983,-4.26783 -13.34745,-6.306095 -21.10554,-6.309905 -5.88645,-0.003 -10.98609,1.04517 -15.86784,3.261185 l -1.84677,0.83832 1.63287,1.88553 c 5.69268,6.57354 14.19441,11.16711 22.82334,12.33168 3.04437,0.41085 8.05761,0.26523 11.37903,-0.33057 z m 23.57937,-17.933675 c 1.0725,-0.3618 2.24037,-0.98121 2.59527,-1.37649 1.4289,-1.59135 4.10376,-10.04907 4.35417,-13.7676 0.074,-1.09782 -0.0613,-1.28946 -2.76084,-3.91287 -6.44235,-6.26061 -13.86183,-9.79488 -23.30961,-11.10357 -1.224,-0.16956 -1.30584,-0.12879 -2.21262,1.10184 -1.68171,2.28231 -2.98974,5.41971 -3.48555,8.36016 -0.64233,3.80955 -0.0913,7.33377 1.71753,10.98408 2.53719,5.12028 7.67826,9.09882 13.29261,10.28682 2.24541,0.47514 7.63641,0.16056 9.80904,-0.57237 z M 34.654633,97.942355 c 1.75452,-0.52104 4.43238,-2.2569 4.43238,-2.87322 0,-0.68388 -3.0653,-2.3061 -5.33161,-2.82156 -2.28413,-0.51951 -4.22317,-0.42369 -6.54989,0.32367 -1.50681,0.48402 -4.1685,2.0583 -4.1685,2.46555 0,0.66231 2.82904,2.47665 4.8,3.07836 1.30339,0.39789 5.23107,0.29835 6.81762,-0.1728 z m 30.25533,-4.81173 c 8.445566,-2.44743 16.048166,-9.32253 19.052536,-17.22939 l 0.55512,-1.46094 -2.01531,-1.78395 c -6.22653,-5.51163 -13.526116,-9.15477 -21.561496,-10.761 -3.73705,-0.74703 -12.45655,-0.74997 -16.0038,-0.005 -3.20292,0.6723 -7.41889,1.93176 -7.63456,2.28072 -0.31618,0.51159 1.38255,5.6115 2.97911,8.94384 4.05529,8.46417 10.20802,14.87898 18.48523,19.27263 1.55112,0.82335 2.97387,1.49961 3.16166,1.50276 0.18779,0.003 1.52947,-0.33852 2.98151,-0.7593 z m -22.55505,-3.30948 c 0.10016,-0.261 0.1821,-1.40343 0.1821,-2.53875 0,-2.80308 -0.84101,-4.94556 -2.76974,-7.05591 -2.14567,-2.34771 -4.48226,-3.48627 -7.53059,-3.66954 l -2.35033,-0.14127 0.81636,1.61499 c 1.43387,2.83662 2.86494,4.85703 5.05249,7.13316 1.89595,1.97271 5.71111,5.11527 6.22471,5.12733 0.1061,0.003 0.27485,-0.20901 0.375,-0.47001 z m 83.917797,-11.9658 c 5.98467,-1.04808 11.30322,-3.70239 15.8643,-7.91733 1.53702,-1.42038 1.66944,-1.40487 -2.80263,-0.32826 -3.00153,0.72261 -7.05048,2.28228 -9.49737,3.65844 -2.2035,1.23927 -5.80428,3.71397 -6.46287,4.44171 -0.66366,0.73335 -0.50403,0.74136 2.89857,0.14544 z m -10.31652,-2.78466 c 1.70409,-3.20874 2.97717,-6.52848 3.87318,-10.09983 0.6174,-2.46087 0.78681,-4.00449 0.90825,-8.27517 0.0821,-2.8875 0.0358,-5.76582 -0.1029,-6.39624 l -0.25221,-1.14624 -2.46348,2.28864 c -4.1202,3.82773 -7.42713,8.64366 -9.47901,13.80447 -1.00719,2.5332 -2.30301,7.31757 -2.30301,8.50302 0,0.56661 2.64261,1.97181 5.7,3.03093 2.67534,0.92679 2.73144,0.90348 4.11918,-1.70958 z m 32.86647,-14.87343 c 1.25367,-3.01806 2.0157,-6.28467 2.21754,-9.50592 0.22218,-3.54588 -0.3402,-7.98738 -1.06011,-8.37246 -0.2712,-0.14508 -1.94871,-0.41022 -3.72783,-0.5892 -5.31813,-0.53508 -11.39502,0.33237 -16.72335,2.38719 -1.33851,0.51621 -2.50677,1.12908 -2.59611,1.36194 -0.32964,0.85902 0.62727,4.49328 1.80006,6.8364 3.08739,6.16845 9.8103,10.15401 16.84653,9.98721 l 2.39235,-0.0567 0.85092,-2.04843 z M 44.303483,55.477535 c 5.11666,-1.1796 9.10502,-5.45001 9.93538,-10.63803 0.47665,-2.97807 -0.52234,-6.95181 -2.28314,-9.08175 l -0.56871,-0.68796 -2.7,0.78105 c -2.84273,0.82233 -6.93673,2.82951 -8.83031,4.32924 -0.92025,0.72885 -1.24298,1.28907 -1.77336,3.0783 -0.81291,2.74236 -1.43289,6.01341 -1.70285,8.98428 -0.19281,2.12193 -0.16187,2.32206 0.40598,2.62596 1.61173,0.86259 5.16732,1.15059 7.51701,0.60891 z m 59.977037,-7.33713 c 4.92975,-1.1622 10.09977,-5.14242 12.14712,-9.35163 l 0.61137,-1.25694 -1.44783,-2.49306 c -2.32632,-4.00584 -5.24976,-7.69323 -8.06187,-10.16853 l -1.38006,-1.21477 -1.72809,1.14511 c -2.26188,1.49879 -5.447961,4.51932 -7.186001,6.81255 -2.63814,3.4809 -5.02485,9.33411 -5.59644,13.72479 l -0.18125,1.39227 1.71477,0.62238 c 0.94312,0.34233 2.18727,0.74991 2.76477,0.9057 1.63424,0.44091 6.249901,0.37572 8.343511,-0.11787 z m -25.894091,-0.60722 c 0.97652,-0.25437 1.83317,-0.52014 1.90367,-0.59064 0.47178,-0.47178 -4.03796,-5.13825 -6.71102,-6.94425 -3.30197,-2.23089 -6.941136,-3.87495 -10.461566,-4.7262 l -0.8695,-0.21024 0.19291,1.84566 c 0.7679,7.34691 8.570786,12.54654 15.945506,10.62567 z m 8.86681,-7.89981 c 1.34192,-3.58659 0.97985,-7.48662 -1.00241,-10.79763 -0.96719,-1.61551 -3.63832,-4.24011 -4.31529,-4.24011 -0.50215,0 -0.85519,2.36197 -0.81319,5.44062 0.0541,3.96681 1.48842,8.05833 3.96598,11.31345 0.70994,0.93273 0.79207,0.96597 1.15625,0.46794 0.21561,-0.29487 0.66951,-1.27779 1.00866,-2.18427 z"
     style="fill:#77fdc2" />
  <path
     inkscape:connector-curvature="0"
     id="path4185"
     d="M 90.987009,197.66813 C 74.451149,195.96155 58.582503,190.27268 45.164293,181.24079 21.726483,165.46463 6.3133129,140.95178 2.0331129,112.64564 1.2079329,107.18849 0.90764291,96.522165 1.4203429,90.879525 4.5202329,56.762385 24.892383,26.841725 55.401493,11.597165 66.334633,6.1341854 77.374259,2.8777154 89.103479,1.6557454 c 5.06732,-0.52792 14.328611,-0.60278 18.876731,-0.15259 18.07191,1.78883 35.71719,8.5649396 49.84593,19.1417196 22.70016,16.99338 37.05684,42.37419 39.82224,70.40076 0.41676,4.22397 0.4158,13.769555 -0.003,18.012395 -3.30591,33.58554 -23.36541,63.01176 -53.41899,78.36282 -10.76784,5.50008 -23.39775,9.14964 -35.54055,10.26984 -3.81948,0.35238 -14.195381,0.33915 -17.700001,-0.0225 z M 131.75491,172.3211 c 0.35508,-0.92535 0.17523,-5.31561 -0.2922,-7.13217 -0.87594,-3.40413 -2.12232,-5.54922 -4.74624,-8.16843 -2.81052,-2.80551 -5.44902,-4.28793 -9.06288,-5.09196 -3.04302,-0.67701 -7.59123,-0.47916 -10.31658,0.44874 -2.06067,0.70158 -5.79633,2.86455 -6.73086,3.89721 -0.54383,0.60093 -0.53733,0.6405 0.30457,1.85535 2.66429,3.84456 8.28542,8.40927 13.46075,10.93095 5.08167,2.47605 9.65406,3.62184 14.75844,3.69828 1.97367,0.0297 2.47788,-0.0546 2.625,-0.43797 z m -63.567897,-0.71325 c 7.723746,-1.54467 15.502306,-6.61848 19.647026,-12.81537 l 1.51241,-2.26122 -1.31054,-1.84281 c -2.27748,-3.20247 -6.22525,-5.91573 -10.1125,-6.95022 -2.15898,-0.57453 -6.89438,-0.56397 -9.138006,0.0204 -3.20915,0.83589 -5.51058,2.19315 -8.11129,4.78359 -2.65476,2.64429 -3.97938,4.91229 -4.81926,8.2515 -0.66933,2.66112 -0.44902,7.29165 0.45979,9.66408 l 0.6559,1.71219 2.15823,0.0878 c 3.35419,0.13647 6.11731,-0.0618 9.05824,-0.64998 z m -6.3903,-25.80246 c 10.114066,-2.14059 19.438586,-7.88577 25.474656,-15.69591 1.1361,-1.47003 2.06564,-2.77356 2.06564,-2.8968 0,-0.51774 -2.41919,-3.90525 -4.03398,-5.64861 -5.14583,-5.55555 -12.81925,-9.28161 -20.485276,-9.94728 -14.50862,-1.25979 -28.06227,6.99075 -32.97651,20.07393 -0.82881,2.20656 -1.90423,6.87357 -1.90423,8.26386 0,0.43629 4.48379,2.8236 7.27015,3.87084 2.3068,0.867 5.13754,1.5879 9.07985,2.31231 3.96122,0.72789 11.2368,0.57198 15.5097,-0.33234 z m 95.490297,-2.55009 c 3.26628,-0.73353 5.74692,-1.5915 8.925,-3.08694 l 2.925,-1.37637 0,-2.89569 c 0,-15.8928 -10.72113,-30.55692 -25.95,-35.49381 -10.6068,-3.438485 -21.69522,-2.245535 -31.30728,3.36819 l -2.14272,1.25142 0,1.82328 c 0,2.82981 0.83955,7.81116 1.82442,10.82502 1.09488,3.3504 3.38568,7.79472 5.45679,10.58658 3.26958,4.4073 8.78571,9.04845 13.70694,11.53269 2.49804,1.26099 8.50974,3.22998 11.41185,3.73767 3.27546,0.573 12.09213,0.41469 15.15,-0.27204 z m 16.03218,-44.525615 c 3.89736,-1.3695 8.5926,-5.15865 10.23987,-8.2638 l 0.72693,-1.37025 -0.7332,-1.3821 c -1.21044,-2.28168 -4.27758,-6.12402 -6.82842,-8.55423 -6.09684,-5.80848 -13.67706,-9.33096 -22.79049,-10.59057 -1.17003,-0.1617 -1.31517,-0.0986 -2.18919,0.95184 -0.51486,0.61878 -1.40397,2.07006 -1.97577,3.22506 -5.21538,10.53429 0.74769,23.15313 12.46809,26.38464 2.53965,0.70023 8.56974,0.48225 11.08218,-0.40059 z M 36.007753,97.426575 c 2.19448,-1.01241 4.54214,-3.35736 5.56662,-5.5602 1.12275,-2.41416 1.27482,-5.82705 0.36736,-8.24475 -0.85111,-2.26758 -3.16139,-4.78386 -5.52828,-6.02118 -1.73024,-0.90453 -2.00026,-0.95481 -5.12644,-0.95481 -2.95241,0 -3.48069,0.0847 -5.01542,0.80403 -2.266,1.06206 -4.42402,3.12441 -5.50685,5.26269 -0.79624,1.57236 -0.87773,2.0118 -0.87773,4.73328 0,2.44935 0.12,3.25977 0.65378,4.41516 1.2347,2.67261 4.26323,5.27526 7.29622,6.27015 0.4125,0.13533 2.0325,0.21081 3.6,0.16776 2.34192,-0.0643 3.15676,-0.21981 4.57074,-0.87213 z m 50.929256,-0.98877 c 3.45991,-0.76176 7.81546,-2.23338 7.995,-2.70126 0.2432,-0.63375 -1.28735,-5.02341 -2.88981,-8.28804 -1.82393,-3.71586 -3.63905,-6.43299 -6.42993,-9.62526 -5.99448,-6.85662 -13.77199,-11.47197 -22.971036,-13.63149 -4.70341,-1.10415 -12.03712,-1.29453 -16.95422,-0.44013 -1.98,0.34404 -4.72275,0.97506 -6.09499,1.40226 l -2.495,0.77673 0.19794,0.95751 c 0.4374,2.11587 1.99693,6.32907 3.31892,8.96631 5.82593,11.62221 16.41572,19.77903 29.09075,22.4073 4.309296,0.89355 4.301886,0.89298 9.882376,0.77724 3.25614,-0.0675 5.91347,-0.28488 7.35,-0.60117 z m 42.600001,-19.23789 c 4.67913,-1.34379 8.88918,-3.70161 12.15783,-6.80904 2.00694,-1.90794 2.13879,-1.86432 -2.36046,-0.78117 -3.00153,0.72261 -7.05048,2.28228 -9.49737,3.65844 -2.26722,1.27512 -5.81511,3.72426 -6.49137,4.4811 l -0.55863,0.62517 2.1,-0.2211 c 1.155,-0.12159 3.2475,-0.55062 4.65,-0.9534 z m -13.5438,-2.20428 c 1.67982,-3.1443 2.94867,-6.47781 3.87558,-10.18188 0.71829,-2.87031 0.79401,-3.71802 0.80553,-9.01812 0.0138,-6.4113 -0.30702,-8.63961 -1.95795,-13.59477 -2.20455,-6.61674 -6.44064,-13.15272 -11.31573,-17.45925 l -1.28637,-1.13635 -2.15229,1.47019 c -5.563141,3.80007 -9.939111,10.01169 -11.666661,16.56063 -0.78917,2.99169 -1.05676,8.3316 -0.57031,11.38122 1.52997,9.59172 7.53007,17.84046 16.212001,22.28775 1.79202,0.91797 6.39678,2.40258 6.65208,2.1447 0.11115,-0.11226 0.74301,-1.21662 1.40412,-2.45412 z m 32.67321,-14.19786 c 0.37755,-0.79632 1.04313,-2.61882 1.47909,-4.05 0.71307,-2.34108 0.79506,-3.09876 0.81705,-7.55214 0.0213,-4.33416 -0.0622,-5.24859 -0.67176,-7.35 -1.45557,-5.01768 -4.77378,-10.61931 -8.23875,-13.90824 l -1.06221,-1.00826 -1.95855,0.65177 c -5.09073,1.69407 -9.51762,6.16377 -11.30544,11.41473 -0.9045,2.65659 -1.1037,6.69666 -0.46425,9.41601 1.17072,4.9788 4.83009,9.54615 9.49284,11.84826 3.08112,1.52124 5.65854,2.11749 8.82903,2.04246 l 2.39649,-0.0567 0.68646,-1.44786 z M 46.814573,54.675795 c 8.26464,-3.87654 10.22076,-14.1303 3.87918,-20.3343 -1.66944,-1.63323 -4.71699,-3.44586 -5.79348,-3.44586 -0.74786,0 -2.7124,2.98203 -4.62634,7.02249 -2.35422,4.96989 -3.42424,8.94336 -3.90004,14.48265 l -0.21089,2.45511 1.462,0.46554 c 0.99803,0.31779 2.36648,0.44013 4.31201,0.38547 2.47824,-0.0696 3.11448,-0.20415 4.87756,-1.0311 z m 32.028796,-7.15983 c 3.4453,-1.02315 7.21193,-4.41999 8.43497,-7.60686 0.88833,-2.31471 1.06808,-5.7342 0.41996,-7.98897 -1.76973,-6.15677 -8.3166,-10.25033 -14.58941,-9.1223 -4.320016,0.77687 -7.769476,3.42615 -9.661446,7.42025 -0.89948,1.89888 -0.96043,2.23695 -0.96043,5.32755 0,2.99667 0.0762,3.45507 0.8289,4.9872 2.82573,5.75166 9.526546,8.76519 15.527456,6.98313 z"
     style="fill:#0c95e3" />
  <path
     inkscape:connector-curvature="0"
     id="path4183"
     d="M 91.737009,197.68451 C 59.604963,194.64896 31.454083,176.89436 15.062343,149.32628 7.9018629,137.28356 3.3212129,123.6377 1.5912729,109.19564 c -0.0889,-0.7425 -0.24502,-3.8475 -0.34685,-6.9 C 0.17851291,70.341585 14.989023,39.766215 40.831423,20.570695 61.786823,5.0052054 87.633509,-1.5080146 113.48701,2.2618954 c 33.22704,4.8451 62.29593,27.0526496 76.01445,58.0722296 6.07116,13.72776 8.74332,27.31326 8.34201,42.411515 -0.38172,14.36088 -3.33645,26.5881 -9.51615,39.37941 -5.22927,10.824 -11.01948,18.96564 -19.46781,27.37368 -7.49511,7.45938 -15.7338,13.37319 -25.2225,18.10497 -10.31934,5.14602 -20.11125,8.1474 -31.53087,9.66483 -4.08618,0.54297 -16.369601,0.79383 -20.369131,0.41598 z m 18.402691,-13.2804 c 4.97763,-2.54103 10.14717,-6.6267 13.44993,-10.63002 l 1.04904,-1.27155 3.35421,0.34149 c 1.84482,0.18783 3.45321,0.24276 3.57417,0.12207 0.12099,-0.12066 0.26565,-1.45905 0.32151,-2.97417 0.19251,-5.22234 -1.39323,-9.19932 -5.17209,-12.97143 -4.0962,-4.08888 -8.45268,-5.74011 -14.38896,-5.45379 -3.65148,0.1761 -6.0345,0.91275 -9.09906,2.81277 -3.973471,2.46351 -7.199911,6.86889 -8.214611,11.21616 -0.88412,3.78789 -0.25246,8.59404 1.5924,12.11613 1.79297,3.423 7.477211,8.24868 9.748301,8.27589 0.36714,0.005 2.07045,-0.70821 3.78516,-1.58355 z M 68.187013,171.60785 c 5.737566,-1.14747 11.110156,-3.94485 15.488776,-8.06466 4.11802,-3.87462 6.82585,-8.30655 8.55224,-13.99755 0.75408,-2.4858 0.81906,-3.10464 0.81906,-7.8 0,-4.69536 -0.065,-5.3142 -0.81906,-7.8 -2.07132,-6.82803 -5.59556,-11.94813 -11.05645,-16.06302 -13.397526,-10.09536 -33.039816,-7.9908 -43.868376,4.70022 -4.67506,5.47914 -7.37026,12.42429 -7.36442,18.9771 0.002,2.48916 0.7133,7.22601 1.3712,9.13413 0.45988,1.33383 0.56184,1.43361 1.28822,1.26111 2.57402,-0.61131 5.68678,-2.83608 7.29149,-5.21139 0.5195,-0.76899 0.97156,-1.4358 1.00457,-1.48179 0.033,-0.046 1.68017,0.21486 3.66035,0.57972 l 3.60032,0.66333 0.18673,2.63061 c 0.49623,6.99102 3.0996,14.50314 7.18164,20.72289 l 1.51796,2.31291 2.12288,0.0871 c 3.31552,0.13602 6.08944,-0.064 9.02287,-0.65071 z m 89.099997,-28.35246 c 4.59972,-1.03281 8.71425,-2.68944 12.82098,-5.1621 l 1.72098,-1.0362 -0.4581,-1.10571 c -0.25197,-0.60816 -0.89772,-1.78074 -1.43502,-2.60574 -0.71499,-1.09782 -1.08201,-2.14149 -1.36881,-3.89256 -0.77235,-4.71555 -3.10149,-10.44948 -5.8524,-14.40744 -0.68808,-0.99 -1.34301,-1.94937 -1.45542,-2.13195 -0.12276,-0.19932 0.78078,-0.97749 2.2617,-1.94793 3.37368,-2.2107 8.06586,-6.94017 10.3602,-10.44252 1.51731,-2.316215 2.13201,-2.983955 3.42741,-3.723215 1.92333,-1.09767 4.90308,-4.02267 6.16761,-6.05433 l 0.93357,-1.49991 -0.93066,-1.65009 c -2.39241,-4.24173 -7.19247,-9.39873 -11.37564,-12.22152 -4.40145,-2.97006 -9.46134,-5.12607 -14.73594,-6.27897 -3.53988,-0.77373 -12.54942,-0.76719 -16.11831,0.0117 -10.80657,2.35848 -19.53957,8.21502 -25.34112,16.99428 -1.87032,2.83032 -3.06165,5.31777 -4.25547,8.88552 l -1.05204,3.14397 0.7491,1.25748 c 0.41202,0.691625 1.07448,1.723565 1.47216,2.293235 l 0.72303,1.03575 -1.82889,1.10427 -1.82892,1.10424 -0.0914,1.73382 c -0.13155,2.49495 0.72003,7.81059 1.76226,10.99992 1.09815,3.36045 3.38703,7.8027 5.46039,10.59759 3.26958,4.4073 8.78571,9.04845 13.70694,11.53269 2.49804,1.26099 8.50974,3.22998 11.41185,3.73767 3.27519,0.57297 12.09201,0.41469 15.15,-0.27195 z M 36.007753,97.426575 c 2.19448,-1.01241 4.54214,-3.35736 5.56662,-5.5602 1.12275,-2.41416 1.27482,-5.82705 0.36736,-8.24475 -0.85111,-2.26758 -3.16139,-4.78386 -5.52828,-6.02118 -1.73024,-0.90453 -2.00026,-0.95481 -5.12644,-0.95481 -2.95241,0 -3.48069,0.0847 -5.01542,0.80403 -2.266,1.06206 -4.42402,3.12441 -5.50685,5.26269 -0.79624,1.57236 -0.87773,2.0118 -0.87773,4.73328 0,2.44935 0.12,3.25977 0.65378,4.41516 1.2347,2.67261 4.26323,5.27526 7.29622,6.27015 0.4125,0.13533 2.0325,0.21081 3.6,0.16776 2.34192,-0.0643 3.15676,-0.21981 4.57074,-0.87213 z m 48.829256,-0.66732 c 2.99263,-0.4545 7.45581,-1.64952 9.3639,-2.50719 l 1.12665,-0.50643 -1.03052,-3.05319 c -1.7395,-5.15373 -4.54589,-10.11921 -8.04625,-14.23659 l -1.69158,-1.98975 0.5695,-1.99143 c 2.35243,-8.22603 0.8537,-17.4156 -4.06448,-24.92169 -0.45565,-0.69543 -0.43829,-0.73572 0.52578,-1.21998 0.54835,-0.27543 1.76424,-1.24962 2.70198,-2.16486 l 1.70498,-1.6641 1.54962,1.39323 c 0.85229,0.76629 2.05893,1.67949 2.68141,2.02935 l 1.1318,0.63609 0.15596,3.79146 c 0.18468,4.48938 1.00127,7.61988 3.05361,11.70633 2.1827,4.34601 5.35798,7.9755 9.576571,10.9464 l 1.75896,1.23873 -0.19047,2.85 c -0.20202,3.02355 0.26469,8.95533 0.74259,9.43746 0.37938,0.38277 3.83289,-3.16134 6.22728,-6.39066 3.41592,-4.60707 5.53329,-9.06018 7.01175,-14.7468 0.75348,-2.89803 0.92319,-4.22922 1.06086,-8.3205 0.2268,-6.74103 -0.65046,-11.77815 -3.08331,-17.7039 -4.69884,-11.44518 -15.16335,-20.68047 -27.278831,-24.07452 l -2.39224,-0.67016 -1.87647,1.98064 c -1.80468,1.90486 -3.21539,4.23016 -3.9582,6.52438 l -0.3516,1.08593 -1.8069,-0.72984 c -4.79797,-1.93798 -10.288406,-0.79192 -14.001876,2.92272 -1.93837,1.93897 -3.3416,4.68553 -3.58153,7.01014 l -0.17805,1.72518 -0.93044,-0.16188 c -2.32639,-0.40467 -5.3149,-0.49644 -7.35873,-0.22593 l -2.22827,0.29493 -1.37173,-1.2189 c -1.40143,-1.2453 -4.56112,-2.93763 -5.48554,-2.93805 -1.20109,0 -5.54506,8.09238 -6.93703,12.92385 -1.24044,4.30557 -1.54861,6.72759 -1.52377,11.97591 0.0184,3.88479 0.16444,5.61066 0.67871,8.02011 3.0367,14.22753 13.15193,25.86234 26.77038,30.79203 2.55045,0.92322 7.242916,2.07405 9.725526,2.38518 2.30514,0.28887 8.6812,0.15645 11.25,-0.2337 z m 64.650001,-34.81344 c 5.30751,-1.11048 10.52958,-5.08446 12.82824,-9.76227 0.61137,-1.24416 1.19688,-2.68854 1.30113,-3.20976 0.17616,-0.88083 0.0866,-1.01337 -1.26993,-1.87941 -2.3262,-1.48512 -5.45505,-2.87826 -8.82903,-3.93114 l -3.13041,-0.97689 -0.86277,-2.65389 c -1.14987,-3.53694 -3.43782,-7.31403 -6.19971,-10.23477 l -2.26245,-2.39259 -1.99467,0.66378 c -5.12784,1.70643 -9.54843,6.16026 -11.34156,11.42676 -0.9045,2.65659 -1.1037,6.69666 -0.46425,9.41601 0.7305,3.10662 2.38461,6.00105 4.83813,8.46594 4.48203,4.50276 11.00394,6.40386 17.38728,5.06823 z"
     style="fill:#f72c0d" />
  <path
     inkscape:connector-curvature="0"
     id="path4181"
     d="M 91.737009,197.68451 C 59.604963,194.64896 31.454083,176.89436 15.062343,149.32628 7.9018629,137.28356 3.3212129,123.6377 1.5912729,109.19564 c -0.0889,-0.7425 -0.24502,-3.8475 -0.34685,-6.9 C 0.17851291,70.341585 14.989023,39.766215 40.831423,20.570695 61.786823,5.0052054 87.633509,-1.5080146 113.48701,2.2618954 c 33.22704,4.8451 62.29593,27.0526496 76.01445,58.0722296 6.07116,13.72776 8.74332,27.31326 8.34201,42.411515 -0.38172,14.36088 -3.33645,26.5881 -9.51615,39.37941 -5.22927,10.824 -11.01948,18.96564 -19.46781,27.37368 -7.49511,7.45938 -15.7338,13.37319 -25.2225,18.10497 -10.31934,5.14602 -20.11125,8.1474 -31.53087,9.66483 -4.08618,0.54297 -16.369601,0.79383 -20.369131,0.41598 z m 18.402691,-13.2804 c 4.97763,-2.54103 10.14717,-6.6267 13.44993,-10.63002 l 1.04904,-1.27155 3.35421,0.34149 c 1.84482,0.18783 3.45321,0.24225 3.57417,0.12096 0.12099,-0.12129 0.21615,-1.79526 0.21147,-3.71994 -0.007,-2.76795 -0.13845,-3.86106 -0.63018,-5.22954 l -0.62166,-1.73013 0.85221,-2.40828 c 1.76112,-4.9767 2.45268,-10.43223 2.36022,-18.61869 0,-0.10299 0.84165,0.11787 1.8729,0.49077 l 1.875,0.678 0.20103,2.35923 c 0.6678,7.83672 6.35241,14.26737 14.04897,15.89274 2.66616,0.56304 6.58995,0.38865 7.70583,-0.34251 1.99482,-1.30704 6.35259,-8.62731 7.85262,-13.191 0.72279,-2.19897 1.54155,-6.0975 1.54155,-7.34013 0,-0.77499 0.22926,-1.05648 1.49466,-1.83507 l 1.49463,-0.91968 -0.45675,-1.10256 c -0.25122,-0.60642 -0.8964,-1.77756 -1.4337,-2.60256 -0.71499,-1.09782 -1.08201,-2.14149 -1.36881,-3.89256 -0.77235,-4.71555 -3.10149,-10.44948 -5.8524,-14.40744 -0.68808,-0.99 -1.34301,-1.94937 -1.45542,-2.13195 -0.12276,-0.19932 0.78078,-0.97749 2.2617,-1.94793 3.37368,-2.2107 8.06586,-6.94017 10.3602,-10.44252 1.51731,-2.316215 2.13201,-2.983955 3.42741,-3.723215 1.92333,-1.09767 4.90308,-4.02267 6.16761,-6.05433 l 0.93357,-1.49991 -0.92529,-1.6395 c -0.50889,-0.90174 -1.45002,-2.33457 -2.09142,-3.18408 l -1.16616,-1.54455 -0.12624,-4.31601 c -0.1338,-4.57503 -0.75777,-8.19639 -2.01006,-11.66601 -0.66924,-1.85421 -0.79224,-1.99728 -2.50368,-2.91249 -2.37657,-1.27089 -5.19096,-1.88751 -8.6151,-1.88751 -4.84584,0 -9.3936,1.72821 -12.68475,4.82037 l -1.5,1.40931 -4.55571,0.12531 c -2.78952,0.0767 -4.48839,0.0165 -4.38204,-0.15573 0.0956,-0.15459 0.8445,-1.16727 1.66434,-2.25045 0.81984,-1.08315 1.68927,-2.38599 1.93212,-2.89521 0.38628,-0.81006 0.67269,-0.96981 2.28999,-1.27716 4.92825,-0.93657 10.3191,-5.08851 12.57954,-9.68853 0.61137,-1.24416 1.19688,-2.68854 1.30113,-3.20976 0.17616,-0.88083 0.0866,-1.01337 -1.26993,-1.87941 -2.3262,-1.48512 -5.45505,-2.87826 -8.82903,-3.93114 l -3.13041,-0.97689 -0.86277,-2.65389 c -1.14987,-3.53694 -3.43782,-7.31403 -6.19971,-10.23477 l -2.26245,-2.39259 -1.99467,0.66378 c -6.6195,2.20284 -11.62674,8.60913 -12.15201,15.54738 l -0.16434,2.17062 -1.68201,0.94035 c -0.92514,0.5172 -2.32668,1.3989 -3.11457,1.9593 -0.95133,0.67668 -1.46745,0.89133 -1.53648,0.63903 -0.0571,-0.20895 -0.39594,-1.66242 -0.75285,-3.22992 -0.35694,-1.5675 -1.09536,-3.95661 -1.64097,-5.3091 l -0.99204,-2.45913 0.74367,-2.19087 c 1.3302,-3.91875 1.24599,-8.95452 -0.21504,-12.85885 -1.09983,-2.939 -1.04028,-2.90695 -3.96222,-2.1333 -1.38135,0.36575 -3.62595,1.19599 -4.98801,1.84499 l -2.47644,1.18001 -1.94013,-1.46847 c -4.04507,-3.06172 -9.085901,-5.58381 -13.799201,-6.9042 l -2.39224,-0.67016 -1.87647,1.98064 c -1.80467,1.90486 -3.21539,4.23016 -3.9582,6.52438 l -0.3516,1.08593 -1.8069,-0.72984 c -4.79797,-1.93798 -10.288406,-0.79192 -14.001876,2.92272 -1.93837,1.93897 -3.3416,4.68553 -3.58153,7.01014 l -0.17805,1.72518 -0.93044,-0.16188 c -2.32639,-0.40467 -5.3149,-0.49644 -7.35873,-0.22593 l -2.22827,0.29493 -1.37173,-1.2189 c -1.40143,-1.2453 -4.56112,-2.93763 -5.48554,-2.93805 -0.69867,0 -2.68324,2.99313 -4.48509,6.76515 -1.28076,2.68116 -1.79937,3.40611 -3.89086,5.43903 -2.47462,2.40534 -5.36023,6.32577 -5.36023,7.2825 0,0.64683 2.13773,2.6736 3.85397,3.65397 1.21562,0.69438 1.24165,0.7434 1.25298,2.35911 0.011,1.57107 0.41093,5.29371 0.74124,6.9 0.14306,0.69567 -0.0573,0.84777 -2.76645,2.1 -1.60637,0.7425 -3.71056,1.86051 -4.67597,2.48448 l -1.75531,1.13445 0.20949,1.26555 c 0.11523,0.69603 0.57793,2.36817 1.02824,3.71586 l 0.81874,2.45034 -1.07847,0.19527 c -3.17653,0.5751 -6.5259,3.12438 -7.97612,6.07077 -1.67225,3.39753 -1.30243,8.13063 0.85625,10.95864 l 1.00311,1.31415 -1.19866,1.48023 c -5.31523,6.563885 -3.2767,16.505045 4.09156,19.953065 6.64947,3.11166 13.90984,0.45771 17.08497,-6.24525 0.89948,-1.89888 0.96043,-2.23695 0.96043,-5.32755 0,-3.07686 -0.0637,-3.43437 -0.94146,-5.287025 -0.51781,-1.09284 -1.43712,-2.53563 -2.04292,-3.20619 l -1.10145,-1.21917 1.07222,-1.55874 c 0.58972,-0.85728 1.15242,-1.87827 1.25043,-2.26881 0.098,-0.39054 0.27958,-0.71007 0.40345,-0.71007 0.12388,0 1.23207,0.46518 2.46266,1.03377 4.40512,2.03526 6.07849,2.36673 12.27933,2.43219 4.94811,0.0523 5.78308,0.13461 7.35,0.72492 5.580866,2.10255 14.223606,2.95284 20.367736,2.00382 3.13374,-0.48402 7.58702,-1.67214 9.5139,-2.53827 l 1.12665,-0.50643 -1.03052,-3.05319 c -1.7395,-5.15373 -4.54589,-10.11921 -8.04625,-14.23659 l -1.69158,-1.98975 0.5695,-1.99143 c 2.35243,-8.22603 0.8537,-17.4156 -4.06448,-24.92169 -0.45565,-0.69543 -0.43829,-0.73572 0.52578,-1.21998 0.54835,-0.27543 1.76424,-1.24962 2.70198,-2.16486 l 1.70498,-1.6641 1.54962,1.39323 c 0.85229,0.76629 2.05893,1.67949 2.68141,2.02935 l 1.1318,0.63609 0.15596,3.79146 c 0.18468,4.48938 1.00127,7.61988 3.05361,11.70633 2.1827,4.34601 5.35798,7.9755 9.576571,10.9464 l 1.75896,1.23873 -0.19047,2.85 c -0.2037,3.0483 0.26607,8.95677 0.75102,9.44589 0.38388,0.38724 4.4109,-3.81954 6.42156,-6.70824 l 1.5,-2.15502 1.2,0.16386 c 0.66,0.0901 2.45097,0.249 3.97995,0.35307 l 2.77995,0.18918 -1.74246,1.83063 c -4.39398,4.61631 -7.35633,9.58983 -9.18684,15.42378 -0.87426,2.78625 -0.91272,2.58849 1.07616,5.531855 0.64107,0.94875 1.03959,1.725 0.8856,1.725 -0.73632,0 -6.17577,3.99774 -8.53842,6.27534 -4.13075,3.98205 -6.772031,7.80981 -8.769111,12.7083 -4.31938,10.59459 -3.43927,22.82505 2.3337,32.43039 0.78731,1.30995 1.43147,2.42961 1.43147,2.48808 0,0.0585 -0.5969,0.83919 -1.32644,1.73487 -4.36667,5.36109 -5.12766,13.02537 -1.90433,19.17915 1.79297,3.423 7.477211,8.24868 9.748301,8.27589 0.36714,0.005 2.07045,-0.70821 3.78516,-1.58355 z m -30.252691,-3.15954 c 9.2114,-3.63462 13.76237,-13.76676 10.19203,-22.69122 l -0.75086,-1.87686 1.0425,-2.21541 c 0.57337,-1.21851 1.41012,-3.43044 1.85945,-4.91544 0.75136,-2.48319 0.81696,-3.10953 0.81696,-7.8 0,-4.69995 -0.0644,-5.3118 -0.82103,-7.8 -0.45156,-1.485 -1.24605,-3.62694 -1.76551,-4.75986 -0.94292,-2.05641 -0.94357,-2.06142 -0.39236,-3 3.7119,-6.32043 5.61358,-12.21585 6.17247,-19.13529 0.23668,-2.93037 0.22905,-4.02447 -0.0303,-4.33695 -0.48509,-0.58449 -8.5063,-0.56421 -12.17485,0.0308 -6.19768,1.00518 -12.74493,3.75243 -17.798506,7.46832 l -1.65,1.21326 -3.33315,0.0736 c -6.48264,0.14316 -12.33622,1.96353 -17.81685,5.54076 -2.42247,1.58112 -6.99939,6.18978 -8.4,8.4582 -0.99345,1.60899 -1.09847,1.68837 -1.95,1.47387 -0.495,-0.12468 -2.25,-0.22671 -3.9,-0.22671 -2.74058,0 -3.17182,0.0814 -4.98701,0.94146 -1.92061,0.90999 -4.46299,2.88162 -4.46299,3.46104 0,0.96537 5.21602,5.81904 8.63253,8.03286 l 1.56747,1.01568 0.002,1.67448 c 0.002,2.21982 0.74736,7.01355 1.3712,8.82291 0.45988,1.33383 0.56183,1.43361 1.28822,1.26111 2.57402,-0.61131 5.68678,-2.83608 7.29149,-5.21139 0.5195,-0.76899 0.97156,-1.4358 1.00457,-1.48179 0.033,-0.046 1.68017,0.21486 3.66035,0.57972 l 3.60032,0.66333 0.18673,2.63061 c 0.49602,6.98808 3.23259,14.85495 7.23895,20.80998 0.77705,1.155 1.66057,2.58216 1.96338,3.17145 1.60323,3.12 5.2796,6.37614 8.92217,7.9023 2.85605,1.19667 3.827556,1.35855 7.570846,1.26156 3.04341,-0.0789 3.73284,-0.201 5.85,-1.03638 z"
     style="fill:#48087c" />
  <path
     inkscape:connector-curvature="0"
     id="path4179"
     d="m 93.387009,197.79344 c -20.48811,-1.73034 -39.258686,-9.06645 -54.749996,-21.39795 -3.73675,-2.97456 -10.24037,-9.27237 -13.47631,-13.04985 -12.87906,-15.03441 -20.5045701,-32.30394 -23.3143401,-52.8 -0.74392,-5.42664 -0.74316,-17.623925 0.001,-23.100005 3.21834,-23.66868 13.6515501,-43.99476 30.8062101,-60.01701 23.81024,-22.2384496 57.712606,-31.1813096 89.127087,-23.5101796 25.65882,6.2656496 47.2755,21.8627996 61.2114,44.1660496 2.66565,4.26618 7.00248,13.08696 8.73957,17.77569 2.8593,7.71777 4.90551,16.48041 5.77605,24.73545 0.59175,5.61129 0.43638,16.530455 -0.31164,21.900005 -4.11429,29.53476 -20.74851,55.25907 -45.78237,70.80111 -12.97239,8.05377 -28.16238,13.06224 -43.62711,14.38482 -3.32775,0.28461 -11.594371,0.34881 -14.400001,0.11187 z m 4.20531,-9.22194 c 6.768871,-1.19127 12.792331,-3.69663 18.144691,-7.54701 2.41917,-1.74027 6.14727,-5.18358 7.86219,-7.26159 l 1.05861,-1.28271 2.6646,0.30525 c 1.46553,0.16791 3.5421,0.28368 4.6146,0.25731 1.13445,-0.0279 1.49949,-0.096 0.87282,-0.16281 l -1.07721,-0.11481 0.26088,-1.6635 c 0.33276,-2.12208 -0.22857,-6.22236 -1.08942,-7.9575 -0.35283,-0.71115 -0.30042,-1.07634 0.4647,-3.23844 1.5282,-4.3185 2.15091,-8.04414 2.27061,-13.58496 0.0597,-2.76369 0.20736,-5.00775 0.32811,-4.98681 0.43191,0.075 0.83964,0.20277 2.24451,0.70347 l 1.425,0.50787 0,1.46043 c 0,2.29344 0.55476,4.43199 1.85727,7.15971 3.04392,6.37458 9.94548,10.3728 16.89273,9.7863 1.32,-0.11145 2.54361,-0.21465 2.71914,-0.22935 0.46944,-0.0393 3.38748,-3.82896 4.84989,-6.29856 2.43954,-4.11966 4.01544,-8.55861 4.70496,-13.25265 0.26706,-1.81803 0.48642,-2.45076 0.93612,-2.7 0.32301,-0.17901 0.95757,-0.56982 1.41012,-0.86844 0.81132,-0.53538 0.81642,-0.55842 0.36417,-1.65 -0.25224,-0.60888 -0.89826,-1.78206 -1.43556,-2.60706 -0.71499,-1.09782 -1.08201,-2.14149 -1.36881,-3.89256 -0.77235,-4.71555 -3.10149,-10.44948 -5.8524,-14.40744 -0.68808,-0.99 -1.34301,-1.94937 -1.45542,-2.13195 -0.12276,-0.19932 0.78078,-0.97749 2.2617,-1.94793 3.37368,-2.2107 8.06586,-6.94017 10.3602,-10.44252 1.52268,-2.324375 2.12742,-2.980085 3.42741,-3.716165 2.00793,-1.13694 5.51853,-4.75233 6.64926,-6.84774 0.47895,-0.88755 0.75945,-1.5117 0.62337,-1.38705 -0.13611,0.12465 -0.92907,-0.82035 -1.76217,-2.1 -0.8331,-1.27965 -1.75485,-2.58837 -2.04837,-2.90823 -0.29349,-0.31986 -0.53301,-0.72486 -0.53226,-0.9 0.0141,-3.31704 -0.35313,-8.65638 -0.723,-10.51527 -0.57513,-2.89032 -1.94097,-7.11858 -2.39805,-7.42356 -0.18165,-0.12123 -0.2277,-0.22248 -0.1023,-0.225 0.45369,-0.009 -2.45766,-5.325 -4.19607,-7.66167 -4.94088,-6.64116 -11.37984,-11.20326 -19.30152,-13.67532 l -3.13041,-0.97689 -0.86277,-2.65389 c -1.14984,-3.53685 -3.43782,-7.314 -6.19941,-10.23447 l -2.26221,-2.3923 -1.63779,0.53164 c -7.09572,2.30331 -12.58782,9.37806 -12.58782,16.21524 0,1.53411 -0.056,1.6563 -0.975,2.12595 -0.53625,0.27405 -1.8525,1.06296 -2.925,1.75314 -2.30772,1.48503 -2.48892,1.54434 -2.58879,0.84723 -0.0938,-0.65463 -0.47475,-2.52414 -0.59775,-2.93325 -0.0496,-0.165 -0.23385,-0.88593 -0.40944,-1.60209 -0.30675,-1.25121 -1.53957,-4.49352 -2.07804,-5.46516 -0.16755,-0.30234 0.008,-1.25532 0.49878,-2.7 1.34496,-3.96306 1.26681,-8.97825 -0.201,-12.9007 -1.09983,-2.939 -1.04028,-2.90695 -3.96222,-2.1333 -1.38135,0.36575 -3.64626,1.20574 -5.03313,1.86665 -2.47779,1.18079 -2.53251,1.19196 -3.15,0.64324 -0.34563,-0.30713 -0.86934,-0.74972 -1.16382,-0.98353 -0.29448,-0.23381 -0.72357,-0.59386 -0.95358,-0.80011 -0.22998,-0.20625 -0.5628,-0.375 -0.73959,-0.375 -0.17679,0 -0.32142,-0.11926 -0.32142,-0.26501 0,-0.14576 -0.23625,-0.34669 -0.525,-0.44651 -0.28875,-0.0998 -0.93,-0.45392 -1.425,-0.78689 -0.820221,-0.55173 -3.927711,-2.10456 -5.400001,-2.69841 -0.33,-0.1331 -1.07564,-0.45008 -1.65698,-0.70439 -0.58134,-0.25431 -1.39134,-0.5234 -1.8,-0.59796 -0.40866,-0.0746 -1.34868,-0.29905 -2.08894,-0.49886 l -1.34591,-0.36329 -1.8728,1.97677 c -1.80139,1.90139 -3.21208,4.22744 -3.95452,6.52049 l -0.3516,1.08593 -1.8069,-0.72984 c -4.79797,-1.93798 -10.288406,-0.79192 -14.001876,2.92272 -1.93837,1.93897 -3.3416,4.68553 -3.58153,7.01014 l -0.17805,1.72518 -0.93044,-0.16188 c -2.32639,-0.40467 -5.3149,-0.49644 -7.35873,-0.22593 l -2.22827,0.29493 -1.37173,-1.2189 c -1.47753,-1.31292 -4.59621,-2.9481 -5.57172,-2.92137 -0.85054,0.0234 -3.75687,4.73583 -5.4931,8.90688 -0.21621,0.51942 -1.47687,1.99779 -2.80146,3.2853 -2.34202,2.27643 -5.35544,6.30864 -5.35544,7.16604 0,0.23367 -0.11592,0.42486 -0.25761,0.42486 -0.30683,0 -1.88192,3.9126 -2.59657,6.45 -0.5555,1.97235 -1.01644,11.54838 -0.55604,11.5521 0.14312,0 0.28553,0.57702 0.31647,1.27974 0.0309,0.70272 0.44962,2.4483 0.93041,3.87909 l 0.87418,2.60139 -1.23042,0.20016 c -3.93044,0.6393 -8.05992,4.65999 -8.81765,8.58528 -0.62385,3.23178 0.4252,7.37523 2.29509,9.06495 l 0.62271,0.56271 -1.32468,1.68729 c -1.67722,2.13636 -2.48511,3.964595 -2.81934,6.380045 -0.98771,7.1382 3.6927,13.54176 10.72563,14.67438 5.38695,0.86754 10.83224,-2.17212 13.32738,-7.43958 0.89949,-1.89888 0.96044,-2.23695 0.96044,-5.32755 0,-3.07686 -0.0637,-3.43437 -0.94146,-5.287025 -0.51781,-1.09284 -1.44244,-2.54154 -2.05475,-3.21927 l -1.11328,-1.23228 1.07974,-1.4709 c 0.59386,-0.80901 1.07975,-1.59579 1.07975,-1.74837 0,-0.15261 0.17112,-0.5115 0.38026,-0.79752 0.35394,-0.48405 0.53702,-0.4476 2.64518,0.52641 4.41204,2.0385 6.09377,2.37225 12.36874,2.45466 4.4417,0.0583 5.8602,0.17664 6.65808,0.55527 0.85109,0.40386 4.55318,1.44177 6.546706,1.8354 0.30193,0.0596 0.77443,0.17385 1.05,0.25386 1.67911,0.48741 8.73976,0.67749 12.20103,0.32847 2.89588,-0.29205 10.86326,-2.42595 11.61307,-3.11037 0.30605,-0.27936 -1.63752,-5.90352 -2.93445,-8.49153 -1.48114,-2.9556 -3.85898,-6.56832 -5.91484,-8.98659 l -1.69158,-1.98975 0.5695,-1.99143 c 2.35243,-8.22603 0.8537,-17.4156 -4.06448,-24.92169 -0.45565,-0.69543 -0.43829,-0.73572 0.52578,-1.21998 0.54835,-0.27543 1.76424,-1.24962 2.70198,-2.16486 l 1.70498,-1.6641 1.54962,1.39323 c 0.85229,0.76629 2.05893,1.67949 2.68141,2.02935 l 1.1318,0.63609 0.15596,3.79146 c 0.11824,2.87442 0.34551,4.4283 0.93961,6.42444 1.05799,3.55479 3.0714,7.46604 5.22437,10.14891 2.09926,2.61594 3.086401,3.56541 5.907271,5.68197 l 2.1,1.57566 0.0638,4.98024 c 0.0676,5.27883 0.34227,7.42911 0.93297,7.30416 0.27264,-0.0577 0.27762,0.0553 0.0207,0.46692 -0.74802,1.19775 2.17521,8.68125 5.20938,13.336025 l 1.61847,2.48298 -1.79715,1.04508 c -0.98841,0.5748 -1.97598,1.22211 -2.19456,1.4385 -0.60036,0.59427 -1.22046,0.51183 -3.99735,-0.53157 -2.28132,-0.85716 -5.585291,-1.73904 -8.346031,-2.22762 -0.73443,-0.12999 -0.93599,-0.0796 -0.78099,0.1953 0.16164,0.28662 0.11749,0.2856 -0.19509,-0.005 -0.58091,-0.53919 -8.70973,-0.49005 -12.1855,0.0737 -6.14756,0.99705 -12.74479,3.75363 -17.701356,7.39629 l -1.55285,1.14123 -3.69715,0.129 c -2.03343,0.0709 -4.37215,0.28776 -5.19715,0.4818 -0.825,0.19407 -1.7025,0.39993 -1.95,0.45753 -3.01013,0.70026 -7.62128,2.76105 -10.63475,4.75281 -2.27123,1.5012 -6.63004,5.86422 -8.1783,8.18622 -1.06492,1.59708 -1.25127,1.74282 -2.05406,1.60644 -0.48559,-0.0825 -2.23289,-0.15 -3.88289,-0.15 -2.74058,0 -3.17182,0.0814 -4.98701,0.94146 -2.0949,0.99258 -4.46299,2.89671 -4.46299,3.5886 0,0.89541 5.92647,6.19638 9.69299,8.66994 0.33701,0.22131 0.50174,1.08678 0.62811,3.3 0.0942,1.65 0.24568,3.52434 0.33659,4.1652 0.15824,1.11546 1.17651,4.31901 1.4643,4.6068 0.22166,0.22164 2.31966,-0.52659 3.71493,-1.32492 1.78967,-1.02399 3.23595,-2.34978 4.3293,-3.96861 0.51206,-0.75816 0.95802,-1.41612 0.99103,-1.46211 0.033,-0.046 1.68017,0.21486 3.66035,0.57972 l 3.60032,0.66333 0.18673,2.63061 c 0.48879,6.88614 3.07628,14.42604 7.03846,20.50998 0.7522,1.155 1.70314,2.76303 2.1132,3.57339 1.44353,2.85267 6.8213,7.67661 8.55793,7.67661 0.26717,0 0.48576,0.1575 0.48576,0.35001 0,0.19248 0.0758,0.27417 0.16852,0.18147 0.0927,-0.0927 0.48813,0.12771 0.87878,0.48975 1.67164,1.54923 8.581566,4.71831 12.572296,5.766 5.02682,1.3197 12.74984,1.7133 17.43571,0.88863 z m 1.92198,-6.70086 -0.72729,-0.825 0.825,0.72729 c 0.453751,0.40002 0.825001,0.77127 0.825001,0.825 0,0.23529 -0.24294,0.0438 -0.922711,-0.72729 z m -14.97729,-3.18828 c 0,-0.0623 0.23625,-0.29853 0.525,-0.525 0.47582,-0.37314 0.48643,-0.36255 0.11327,0.11328 -0.39191,0.49971 -0.63827,0.65865 -0.63827,0.41172 z m 9.92368,-7.86171 c 0.0144,-0.3495 0.0855,-0.42057 0.18125,-0.18126 0.0867,0.21657 0.076,0.47532 -0.0237,0.57501 -0.0997,0.0997 -0.17059,-0.0775 -0.15756,-0.39375 z m 0,-2.7 c 0.0144,-0.3495 0.0855,-0.42057 0.18125,-0.18126 0.0867,0.21657 0.076,0.47532 -0.0237,0.57501 -0.0997,0.0997 -0.17059,-0.0775 -0.15756,-0.39375 z m -3.29999,-1.8 c 0.0144,-0.3495 0.0855,-0.42057 0.18124,-0.18126 0.0867,0.21657 0.076,0.47532 -0.0237,0.57501 -0.0997,0.0997 -0.17059,-0.0775 -0.15756,-0.39375 z m 0,-3 c 0.0144,-0.3495 0.0855,-0.42057 0.18124,-0.18126 0.0867,0.21657 0.076,0.47532 -0.0237,0.57501 -0.0997,0.0997 -0.17059,-0.0775 -0.15756,-0.39375 z m 1.98539,-24.84294 c -0.12276,-0.31236 -0.15252,-0.63861 -0.0661,-0.72501 0.27362,-0.27363 0.51437,0.17478 0.39972,0.74445 -0.10508,0.52212 -0.12112,0.52116 -0.33358,-0.0195 z m 0.11461,-5.45706 c 0.0144,-0.3495 0.0855,-0.42057 0.18124,-0.18126 0.0867,0.21657 0.076,0.47532 -0.0237,0.57501 -0.0997,0.0997 -0.17059,-0.0775 -0.15756,-0.39375 z m 10.776311,-23.37501 c 1.06296,-1.0725 2.00016,-1.95 2.08266,-1.95 0.0825,0 -0.7197,0.8775 -1.78266,1.95 -1.06296,1.0725 -2.00016,1.95 -2.08266,1.95 -0.0825,0 0.7197,-0.8775 1.78266,-1.95 z m -7.741511,-3.9 c 0.006,-0.495 0.0734,-0.66117 0.14941,-0.3693 0.0761,0.2919 0.0711,0.6969 -0.0111,0.9 -0.0822,0.20313 -0.14441,-0.0357 -0.13831,-0.5307 z M 153.53701,67.345635 c 0.55974,-0.5775 1.08519,-1.05 1.16769,-1.05 0.0825,0 -0.30795,0.4725 -0.86769,1.05 -0.55974,0.5775 -1.08519,1.05 -1.16769,1.05 -0.0825,0 0.30795,-0.4725 0.86769,-1.05 z m -9.6,0.63672 c 0,-0.0623 0.23625,-0.29853 0.525,-0.525 0.47583,-0.37314 0.48642,-0.36255 0.11328,0.11328 -0.39192,0.49971 -0.63828,0.65865 -0.63828,0.41172 z m 22.72851,-6.09891 c 0.37317,-0.0718 0.91317,-0.069 1.2,0.006 0.2868,0.0751 -0.0186,0.1338 -0.67851,0.13047 -0.66,-0.003 -0.89469,-0.0648 -0.52149,-0.13653 z M 31.998743,51.970635 c -0.37316,-0.47583 -0.36255,-0.48642 0.11327,-0.11328 0.28875,0.22647 0.525,0.46272 0.525,0.525 0,0.24693 -0.24636,0.088 -0.63827,-0.41172 z m -10.76173,97.327295 c 0,-0.0537 -0.37125,-0.42498 -0.825,-0.825 l -0.825,-0.72729 0.72729,0.825 c 0.67977,0.77109 0.92271,0.96258 0.92271,0.72729 z M 9.4566729,102.52064 c -0.0632,-0.70125 -0.11484,-0.1275 -0.11484,1.275 0,1.4025 0.0517,1.97625 0.11484,1.275 0.0632,-0.70125 0.0632,-1.84875 0,-2.55 z m 86.9852661,-1.78125 c -0.0958,-0.23931 -0.16685,-0.16824 -0.18124,0.18126 -0.013,0.31623 0.0579,0.49344 0.15756,0.39375 0.0997,-0.0997 0.11034,-0.35844 0.0237,-0.57501 z M 9.7419429,98.339385 c -0.0958,-0.23931 -0.16685,-0.16824 -0.18125,0.18126 -0.013,0.31623 0.0579,0.49344 0.15757,0.39375 0.0997,-0.0997 0.11034,-0.35844 0.0237,-0.57501 z m 18.9000001,-54 c -0.0958,-0.23931 -0.16685,-0.16824 -0.18124,0.18126 -0.013,0.31623 0.0579,0.49344 0.15756,0.39375 0.0997,-0.0997 0.11034,-0.35844 0.0237,-0.57501 z m 14.71382,-13.92501 c -0.0997,-0.0997 -0.35844,-0.11034 -0.575,-0.0237 -0.23932,0.0958 -0.16823,0.16686 0.18125,0.18126 0.31625,0.0129 0.49344,-0.0579 0.39375,-0.15759 z m 79.214167,-10.83681 c -0.61437,-0.0645 -1.69437,-0.0654 -2.4,-0.002 -0.7056,0.0634 -0.20292,0.11612 1.11708,0.11721 1.32,10e-4 1.89732,-0.0508 1.28292,-0.11521 z m -23.557921,-9.28062 c -0.20625,-0.0832 -0.54375,-0.0832 -0.75,0 -0.20625,0.0832 -0.0375,0.15132 0.375,0.15132 0.4125,0 0.58125,-0.0681 0.375,-0.15132 z m 2.700001,0 c -0.20625,-0.0832 -0.54375,-0.0832 -0.75,0 -0.20625,0.0832 -0.0375,0.15132 0.375,0.15132 0.4125,0 0.58125,-0.0681 0.375,-0.15132 z"
     style="fill:#004f63" />
  <path
     inkscape:connector-curvature="0"
     id="path4177"
     d="m 93.387009,197.79344 c -20.48811,-1.73034 -39.258686,-9.06645 -54.749996,-21.39795 -3.73675,-2.97456 -10.24037,-9.27237 -13.47631,-13.04985 -12.87906,-15.03441 -20.5045701,-32.30394 -23.3143401,-52.8 -0.74392,-5.42664 -0.74316,-17.623925 0.001,-23.100005 3.21834,-23.66868 13.6515501,-43.99476 30.8062101,-60.01701 23.81024,-22.2384496 57.712606,-31.1813096 89.127087,-23.5101796 25.65882,6.2656496 47.2755,21.8627996 61.2114,44.1660496 2.66565,4.26618 7.00248,13.08696 8.73957,17.77569 2.8593,7.71777 4.90551,16.48041 5.77605,24.73545 0.59175,5.61129 0.43638,16.530455 -0.31164,21.900005 -4.11429,29.53476 -20.74851,55.25907 -45.78237,70.80111 -12.97239,8.05377 -28.16238,13.06224 -43.62711,14.38482 -3.32775,0.28461 -11.594371,0.34881 -14.400001,0.11187 z m 6.15,-9.5388 c 1.237501,-0.27777 3.245581,-0.83688 4.462381,-1.24245 2.16981,-0.72321 2.24481,-0.7278 3.9,-0.23871 0.9282,0.27426 2.91873,0.56643 4.42344,0.64926 3.49284,0.19221 6.48435,-0.44655 9.75285,-2.08245 4.22184,-2.11311 8.11845,-6.73659 9.2451,-10.96965 0.31803,-1.19487 0.40932,-1.27818 1.45278,-1.32543 l 1.11345,-0.0504 -1.07718,-0.11484 -1.07721,-0.11481 0.26262,-1.67463 c 0.30855,-1.96758 -0.0899,-5.34354 -0.8826,-7.47858 l -0.54036,-1.45539 0.82941,-2.34387 c 1.55664,-4.3989 2.12604,-7.9599 2.15712,-13.49067 0.0156,-2.763 0.10323,-5.02425 0.19494,-5.025 0.0917,0 1.00296,0.28104 2.025,0.62619 l 1.85826,0.62754 0,1.4577 c 0,2.29071 0.55521,4.43022 1.85727,7.15698 3.04392,6.37458 9.94548,10.3728 16.89273,9.7863 1.32,-0.11145 2.54361,-0.21465 2.71914,-0.22935 0.46944,-0.0393 3.38748,-3.82896 4.84989,-6.29856 2.44887,-4.13541 4.34388,-9.57165 4.77525,-13.6989 l 0.18756,-1.79448 1.78287,-1.10046 c 4.61199,-2.84667 9.63045,-7.99335 12.60606,-12.92811 5.9853,-9.92598 6.89991,-22.16025 2.44878,-32.755265 -0.60099,-1.43052 -1.10517,-2.83077 -1.12041,-3.11166 -0.0153,-0.28089 -0.0883,-0.45015 -0.1623,-0.37611 -0.074,0.074 -0.80082,-0.91116 -1.61508,-2.18931 -0.81429,-1.27812 -1.73292,-2.59791 -2.04141,-2.93283 -0.47646,-0.51732 -0.58074,-1.23981 -0.69276,-4.8 -0.0725,-2.30508 -0.34659,-5.26962 -0.60903,-6.58788 -0.57549,-2.89092 -1.9413,-7.11867 -2.39826,-7.42356 -0.18165,-0.12123 -0.2277,-0.22248 -0.1023,-0.225 0.45369,-0.009 -2.45766,-5.325 -4.19607,-7.66167 -1.99164,-2.67702 -5.90322,-6.66516 -7.73733,-7.88877 -1.08009,-0.72054 -1.18515,-0.89772 -1.01049,-1.70415 0.68193,-3.14886 -0.12969,-7.99419 -1.9002,-11.3442 -1.4985,-2.83536 -4.67943,-5.85561 -7.75134,-7.35975 -3.29346,-1.61266 -5.48877,-2.14605 -8.83257,-2.14605 -3.34593,0 -5.53917,0.53341 -8.84088,2.15016 -5.70015,2.7912 -9.90912,9.17934 -9.90912,15.03951 l 0,1.65306 -1.725,0.96462 c -0.94875,0.53055 -2.35797,1.41474 -3.13158,1.96491 l -1.40658,1.00029 -0.33957,-1.71129 c -0.42873,-2.16054 -1.60986,-6.02286 -2.48685,-8.13207 l -0.67392,-1.62078 0.723,-2.12922 c 1.30848,-3.85344 1.21515,-8.91989 -0.23574,-12.79714 -1.09983,-2.939 -1.04028,-2.90695 -3.96222,-2.1333 -1.38135,0.36575 -3.60624,1.18654 -4.94421,1.82398 l -2.43267,1.159 -1.46733,-1.17571 c -7.325881,-5.86994 -18.498611,-9.40118 -28.025831,-8.85782 -3.57335,0.2038 -8.456016,1.0787 -11.374596,2.03814 -11.32637,3.72343 -21.23855,12.77897 -25.82466,23.59283 -0.47248,1.11411 -1.37291,2.26266 -3.05744,3.9 -2.32497,2.25984 -5.3348,6.29151 -5.3348,7.14597 0,0.23367 -0.11592,0.42486 -0.25761,0.42486 -0.30683,0 -1.88192,3.9126 -2.59657,6.45 -0.5555,1.97235 -1.01644,11.54838 -0.55604,11.5521 0.14312,0 0.28553,0.57702 0.31647,1.27974 0.0309,0.70272 0.44784,2.44302 0.92647,3.86733 l 0.87022,2.58966 -1.20794,0.19317 c -3.12836,0.50025 -6.74639,3.41376 -8.17929,6.58662 -1.18124,2.61564 -1.17786,5.85456 0.009,8.4825 0.45977,1.01814 1.15434,2.15025 1.54349,2.51586 l 0.70756,0.66471 -1.3222,1.68417 c -1.67482,2.13327 -2.48278,3.962375 -2.81688,6.376895 -0.9877,7.1382 3.69271,13.54176 10.72563,14.67438 5.38695,0.86754 10.83224,-2.17212 13.32739,-7.43958 0.89949,-1.89888 0.96043,-2.23695 0.96043,-5.32755 0,-3.07686 -0.0637,-3.43437 -0.94146,-5.287025 -0.5178,-1.09284 -1.43589,-2.53428 -2.04018,-3.20316 l -1.09873,-1.21617 1.06519,-1.48266 c 0.58585,-0.81546 1.06518,-1.60947 1.06518,-1.76448 0,-0.15501 0.17112,-0.51585 0.38026,-0.80187 0.35395,-0.48405 0.53702,-0.4476 2.64518,0.52641 4.38453,2.02578 6.11333,2.37378 12.18156,2.45202 4.66028,0.0601 5.69786,0.16047 7.10669,0.68757 2.1142,0.79104 5.7616,1.71762 8.421566,2.13945 2.97151,0.47121 10.04797,0.40098 13.06878,-0.12972 7.58313,-1.33221 15.246221,-4.78182 20.003081,-9.00459 0.91956,-0.81633 1.50138,-1.2111 1.29288,-0.87726 -0.32022,0.51273 -0.23496,1.0692 0.54915,3.58422 0.51051,1.63749 1.46205,4.07781 2.11455,5.42292 1.0479,2.1603 1.15575,2.58036 0.92418,3.6 -0.14421,0.634895 -0.34515,2.031845 -0.44652,3.104345 -0.33588,3.55332 -0.37974,3.57648 -4.11444,2.1744 -2.3445,-0.88017 -5.76218,-1.79382 -8.566831,-2.29017 -0.73443,-0.12999 -0.93599,-0.0796 -0.78099,0.1953 0.16164,0.28662 0.11749,0.2856 -0.19509,-0.005 -0.58091,-0.53919 -8.70973,-0.49005 -12.18549,0.0737 -6.14757,0.99705 -12.74479,3.75363 -17.701366,7.39629 l -1.55285,1.14123 -3.69715,0.13218 c -5.54343,0.19815 -9.89523,1.32186 -14.55724,3.75891 -4.41008,2.30535 -8.70828,6.1266 -11.4765,10.20297 -1.13955,1.67805 -1.30442,1.80642 -2.05127,1.59723 -0.44669,-0.12516 -2.16215,-0.22752 -3.81215,-0.22752 -2.74058,0 -3.17182,0.0814 -4.98701,0.94146 -1.92061,0.90999 -4.46299,2.88162 -4.46299,3.46104 0,0.95919 5.21168,5.81622 8.58943,8.00493 l 1.52437,0.98775 0.17084,3.50241 c 0.57869,11.86356 8.41024,22.29096 20.01573,26.65017 1.4411,0.54129 3.53292,1.15698 4.64848,1.36821 2.00192,0.37905 2.04182,0.40548 3.06915,2.03403 1.96489,3.11481 6.67208,7.2 8.29624,7.2 0.26717,0 0.48576,0.1575 0.48576,0.35001 0,0.19248 0.0758,0.27417 0.16852,0.18147 0.0927,-0.0927 0.48813,0.12771 0.87878,0.48975 0.39064,0.36204 2.03606,1.35012 3.656476,2.19576 4.54016,2.36931 8.03974,3.56814 12.99622,4.45203 3.11336,0.55518 12.27211,0.3696 15.3,-0.31002 z m -0.0227,-6.384 -0.72729,-0.825 0.825,0.72729 c 0.453751,0.40002 0.825001,0.77127 0.825001,0.825 0,0.23529 -0.24294,0.0438 -0.922711,-0.72729 z m -14.97729,-3.18828 c 0,-0.0623 0.23625,-0.29853 0.525,-0.525 0.47582,-0.37314 0.48643,-0.36255 0.11327,0.11328 -0.39191,0.49971 -0.63827,0.65865 -0.63827,0.41172 z m 9.92368,-7.86171 c 0.0144,-0.3495 0.0855,-0.42057 0.18125,-0.18126 0.0867,0.21657 0.076,0.47532 -0.0237,0.57501 -0.0997,0.0997 -0.17059,-0.0775 -0.15756,-0.39375 z m 0,-2.7 c 0.0144,-0.3495 0.0855,-0.42057 0.18125,-0.18126 0.0867,0.21657 0.076,0.47532 -0.0237,0.57501 -0.0997,0.0997 -0.17059,-0.0775 -0.15756,-0.39375 z m -3.29999,-1.8 c 0.0144,-0.3495 0.0855,-0.42057 0.18124,-0.18126 0.0867,0.21657 0.076,0.47532 -0.0237,0.57501 -0.0997,0.0997 -0.17059,-0.0775 -0.15756,-0.39375 z m 0,-3 c 0.0144,-0.3495 0.0855,-0.42057 0.18124,-0.18126 0.0867,0.21657 0.076,0.47532 -0.0237,0.57501 -0.0997,0.0997 -0.17059,-0.0775 -0.15756,-0.39375 z m 1.98539,-24.84294 c -0.12276,-0.31236 -0.15252,-0.63861 -0.0661,-0.72501 0.27362,-0.27363 0.51437,0.17478 0.39972,0.74445 -0.10508,0.52212 -0.12112,0.52116 -0.33358,-0.0195 z m 0.11461,-5.45706 c 0.0144,-0.3495 0.0855,-0.42057 0.18124,-0.18126 0.0867,0.21657 0.076,0.47532 -0.0237,0.57501 -0.0997,0.0997 -0.17059,-0.0775 -0.15756,-0.39375 z m 10.776311,-23.37501 c 1.06296,-1.0725 2.00016,-1.95 2.08266,-1.95 0.0825,0 -0.7197,0.8775 -1.78266,1.95 -1.06296,1.0725 -2.00016,1.95 -2.08266,1.95 -0.0825,0 0.7197,-0.8775 1.78266,-1.95 z m -7.741511,-3.9 c 0.006,-0.495 0.0734,-0.66117 0.14941,-0.3693 0.0761,0.2919 0.0711,0.6969 -0.0111,0.9 -0.0822,0.20313 -0.14441,-0.0357 -0.1383,-0.5307 z M 153.53702,67.345635 c 0.55974,-0.5775 1.08519,-1.05 1.16769,-1.05 0.0825,0 -0.30795,0.4725 -0.86769,1.05 -0.55974,0.5775 -1.08519,1.05 -1.16769,1.05 -0.0825,0 0.30795,-0.4725 0.86769,-1.05 z m -9.6,0.63672 c 0,-0.0623 0.23625,-0.29853 0.525,-0.525 0.47583,-0.37314 0.48642,-0.36255 0.11328,0.11328 -0.39192,0.49971 -0.63828,0.65865 -0.63828,0.41172 z m 22.72851,-6.09891 c 0.37317,-0.0718 0.91317,-0.069 1.2,0.006 0.2868,0.0751 -0.0186,0.1338 -0.67851,0.13047 -0.66,-0.003 -0.89469,-0.0648 -0.52149,-0.13653 z M 31.998753,51.970635 c -0.37316,-0.47583 -0.36255,-0.48642 0.11327,-0.11328 0.28875,0.22647 0.525,0.46272 0.525,0.525 0,0.24693 -0.24636,0.088 -0.63827,-0.41172 z m -10.76173,97.327295 c 0,-0.0537 -0.37125,-0.42498 -0.825,-0.825 l -0.825,-0.72729 0.72729,0.825 c 0.67977,0.77109 0.92271,0.96258 0.92271,0.72729 z M 9.4566829,102.52064 c -0.0632,-0.70125 -0.11484,-0.1275 -0.11484,1.275 0,1.4025 0.0517,1.97625 0.11484,1.275 0.0632,-0.70125 0.0632,-1.84875 0,-2.55 z m 86.9852661,-1.78125 c -0.0958,-0.23931 -0.16685,-0.16824 -0.18124,0.18126 -0.013,0.31623 0.0579,0.49344 0.15756,0.39375 0.0997,-0.0997 0.11034,-0.35844 0.0237,-0.57501 z M 9.7419529,98.339385 c -0.0958,-0.23931 -0.16685,-0.16824 -0.18125,0.18126 -0.013,0.31623 0.0579,0.49344 0.15757,0.39375 0.0997,-0.0997 0.11034,-0.35844 0.0237,-0.57501 z m 18.9000001,-54 c -0.0958,-0.23931 -0.16685,-0.16824 -0.18124,0.18126 -0.013,0.31623 0.0579,0.49344 0.15756,0.39375 0.0997,-0.0997 0.11034,-0.35844 0.0237,-0.57501 z m 14.71382,-13.92501 c -0.0997,-0.0997 -0.35844,-0.11034 -0.575,-0.0237 -0.23932,0.0958 -0.16823,0.16686 0.18125,0.18126 0.31625,0.0129 0.49344,-0.0579 0.39375,-0.15759 z m 79.214167,-10.83681 c -0.61437,-0.0645 -1.69437,-0.0654 -2.4,-0.002 -0.7056,0.0634 -0.20292,0.11612 1.11708,0.11721 1.32,10e-4 1.89732,-0.0508 1.28292,-0.11522 z m -23.557921,-9.28062 c -0.20625,-0.0832 -0.54375,-0.0832 -0.75,0 -0.20625,0.0832 -0.0375,0.15132 0.375,0.15132 0.4125,0 0.58125,-0.0681 0.375,-0.15132 z m 2.700001,0 c -0.20625,-0.0832 -0.54375,-0.0832 -0.75,0 -0.20625,0.0832 -0.0375,0.15132 0.375,0.15132 0.4125,0 0.58125,-0.0681 0.375,-0.15132 z M 234.04103,155.68649 c -3.52428,-0.63276 -6.69951,-2.32119 -8.75367,-4.65486 -1.15245,-1.30926 -3.05034,-4.5582 -3.05034,-5.2218 0,-0.30531 3.89364,-2.30382 4.00734,-2.05683 1.43643,3.12024 3.45921,5.44305 5.66814,6.50883 2.15838,1.04142 4.91997,1.42497 7.31091,1.01541 4.25814,-0.72936 6.41361,-3.24252 6.41361,-7.4778 0,-2.69352 -0.57801,-4.0053 -2.51679,-5.71188 -1.35564,-1.19331 -1.86435,-1.46889 -9.204,-4.98621 -2.87595,-1.37823 -4.55736,-2.3955 -5.72847,-3.46584 -5.48529,-5.01324 -4.2645,-13.91712 2.36349,-17.23827 3.21855,-1.61277 7.79514,-1.82307 11.24625,-0.51678 1.88271,0.71262 4.28295,2.69346 5.62194,4.63962 l 0.85767,1.24659 -2.02446,1.10715 -2.02446,1.10712 -0.9621,-1.33968 c -0.52914,-0.73683 -1.59591,-1.71225 -2.37057,-2.16765 -1.25826,-0.73965 -1.69887,-0.82797 -4.13073,-0.82797 -2.5089,0 -2.83806,0.0715 -4.2,0.9123 -1.99596,1.23219 -2.97366,2.99424 -2.9241,5.26989 0.0757,3.47493 1.41276,4.68981 9.53148,8.66055 5.32725,2.60547 6.39297,3.24546 7.96302,4.78173 2.06004,2.01573 2.82828,3.51117 3.29064,6.40548 0.351,2.1972 0.0393,5.15406 -0.73995,7.01904 -1.23699,2.96058 -4.00278,5.38272 -7.32813,6.41769 -2.2224,0.69171 -6.15138,0.96294 -8.31672,0.57417 z m 42.35766,-0.005 c -2.70963,-0.42432 -4.62198,-1.05177 -7.39374,-2.42586 -3.57798,-1.77378 -7.45056,-5.66523 -9.22344,-9.26838 -1.9791,-4.02222 -2.55129,-6.82023 -2.35755,-11.52858 0.10983,-2.67006 0.34668,-4.494 0.74562,-5.74206 2.38911,-7.4745 7.76913,-12.71868 15.27768,-14.89188 1.94538,-0.56304 3.0477,-0.67524 6.53976,-0.66561 3.95814,0.0108 4.36806,0.0691 7.11813,1.00968 10.56975,3.61521 16.74249,14.11317 14.81007,25.1874 -1.53141,8.77617 -7.50825,15.36858 -16.06632,17.72103 -2.63412,0.72405 -6.93084,0.99879 -9.45021,0.60426 z m 7.18833,-4.63713 c 6.30294,-1.32333 11.56473,-6.285 13.20399,-12.45096 2.53842,-9.54789 -2.2086,-19.04007 -11.12433,-22.24431 -2.46447,-0.88572 -7.33002,-1.08906 -10.16028,-0.42468 -6.28386,1.47513 -11.27463,6.35505 -12.90636,12.61965 -0.61275,2.35251 -0.60624,7.45983 0.0126,9.85833 2.349,9.105 11.51298,14.62842 20.97444,12.64197 z m 44.41167,4.63629 c -8.20263,-1.2807 -14.74269,-6.39165 -17.63946,-13.78497 -2.30478,-5.88243 -1.995,-13.04796 0.81063,-18.75 2.6598,-5.40567 8.1552,-9.85005 14.11716,-11.41716 7.56381,-1.98816 16.67376,0.35511 21.59958,5.55588 l 0.89955,0.94977 -1.57929,1.50654 -1.57929,1.50654 -1.65309,-1.51083 c -3.05682,-2.79369 -7.04469,-4.24068 -11.68746,-4.24068 -5.20191,0 -8.94783,1.52556 -12.45219,5.07126 -3.63414,3.67701 -5.10135,7.35462 -5.09337,12.76677 0.008,5.53329 1.57359,9.54861 5.0925,13.06197 3.48438,3.47889 7.14159,4.9254 12.45306,4.9254 4.9872,0 8.68134,-1.36968 11.98053,-4.44201 l 1.4601,-1.35972 0.77967,0.56076 c 0.42885,0.3084 1.16526,0.96666 1.6365,1.46274 l 0.85677,0.90201 -1.45677,1.39596 c -3.83295,3.67284 -8.57796,5.67591 -14.16228,5.97849 -1.42698,0.0773 -3.39927,0.015 -4.38285,-0.13866 z m 28.63833,-22.18491 0,-21.6 2.4,0 2.4,0 0,21.6 0,21.6 -2.4,0 -2.4,0 0,-21.6 z m 17.1,0 0,-21.6 12.3,0 12.3,0 0,2.1 0,2.1 -9.9,0 -9.9,0 0,6.9 0,6.9 9.3,0 9.3,0 0,2.25 0,2.25 -9.3,0 -9.3,0 0,8.1 0,8.1 10.05,0 10.05,0 0,2.25 0,2.25 -12.45,0 -12.45,0 0,-21.6 z m 42.6,2.1 0,-19.5 -5.85,0 -5.85,0 0,-2.1 0,-2.1 14.25,0 14.25,0 0,2.09367 0,2.09364 -5.925,0.0814 -5.925,0.0813 -0.0772,19.425 -0.0772,19.425 -2.39781,0 -2.39781,0 0,-19.5 z m 36,10.47816 0,-9.02181 -4.85676,-8.15319 c -2.6712,-4.48422 -6.04155,-10.14942 -7.48965,-12.58929 l -2.63289,-4.4361 2.71473,0.0861 2.71473,0.0861 6.01977,10.11498 c 3.31089,5.56323 6.12141,10.05216 6.24564,9.97539 0.12423,-0.0768 2.88963,-4.66227 6.14535,-10.18998 l 5.91945,-10.05039 2.50983,0 c 1.38039,0 2.5098,0.0805 2.5098,0.17889 0,0.0984 -3.3075,5.76495 -7.35,12.59235 l -7.35,12.41343 0,9.00768 0,9.00765 -2.55,0 -2.55,0 0,-9.02184 z m -153.15,-47.065655 c -4.92405,-1.30002 -8.17896,-3.21498 -11.4888,-6.75912 -3.87408,-4.14831 -5.78646,-9.05724 -5.78646,-14.85339 0,-10.33188 6.49347,-18.73599 16.73781,-21.66282 3.3294,-0.95121 9.14451,-0.95151 12.47259,0 10.2798,2.93706 16.75599,11.31483 16.7463,21.66345 -0.006,5.91114 -1.97355,10.86432 -5.98791,15.07059 -3.33285,3.49218 -6.98334,5.56512 -11.74353,6.66852 -2.76669,0.64134 -8.28297,0.57756 -10.95,-0.1266 z m 9.29499,-8.47332 c 4.86402,-1.22118 8.85984,-5.73198 9.7494,-11.00592 1.38777,-8.22768 -5.06271,-15.92616 -13.34439,-15.92616 -9.91653,0 -16.45485,10.53777 -12.19134,19.64868 2.81046,6.00582 9.17646,8.94291 15.78633,7.2834 z m 43.30536,8.59086 c -8.92434,-1.61484 -15.61614,-7.52439 -17.99751,-15.89358 -0.87654,-3.08064 -0.9435,-8.56815 -0.14073,-11.53647 2.08305,-7.70226 7.71303,-13.38423 15.63789,-15.78228 2.37879,-0.71982 3.19965,-0.81774 6.9,-0.82311 3.90174,-0.006 4.3977,0.0598 6.98406,0.92085 3.41922,1.13838 6.21054,2.76513 8.74575,5.09685 l 1.92888,1.77408 -3.21921,2.75205 -3.21921,2.75202 -1.54455,-1.22091 c -6.08415,-4.80924 -13.65504,-4.78017 -18.96498,0.0728 -3.7107,3.39141 -5.20368,8.59536 -3.90087,13.59714 0.66687,2.56026 1.82601,4.49022 3.78762,6.30633 5.2494,4.86003 12.93666,4.96842 18.92871,0.26691 1.70766,-1.33989 1.73355,-1.34856 2.41323,-0.80859 2.02122,1.60578 5.61057,4.76829 5.61057,4.9434 0,0.40044 -3.78672,3.62052 -5.43918,4.62528 -4.81515,2.92779 -10.77435,3.995165 -16.51047,2.95722 z m 203.59965,0.0455 c -5.18823,-1.01706 -8.98392,-2.98662 -12.45852,-6.46458 -2.75619,-2.75889 -4.17591,-5.07114 -5.44068,-8.86101 -0.61266,-1.83588 -0.69948,-2.66595 -0.69021,-6.6 0.01,-4.07328 0.0871,-4.72758 0.81732,-6.9 1.14264,-3.3993 2.72574,-5.94987 5.32209,-8.57457 8.6139,-8.70801 23.25996,-9.14805 32.09907,-0.96441 1.15551,1.06983 2.10093,2.03466 2.10093,2.14404 0,0.10938 -1.41804,1.39026 -3.15117,2.84637 l -3.15117,2.6475 -1.31757,-1.15977 c -8.45211,-7.43985 -21.76563,-2.94141 -23.26491,7.86084 -1.07553,7.7493 3.88713,14.44359 11.52297,15.54363 4.13862,0.59622 8.58285,-0.70206 11.65242,-3.40398 0.86715,-0.76332 1.54356,-1.14642 1.77924,-1.00776 0.80271,0.47235 5.93019,4.98222 5.93019,5.21589 0,0.13533 -0.95073,1.12626 -2.11275,2.20212 -2.3217,2.14953 -6.29262,4.31334 -9.43725,5.14248 -2.54544,0.67116 -7.62903,0.83721 -10.2,0.33321 z m -330.31206,-0.55059 c -0.0788,-0.20625 -0.10827,-9.96 -0.0656,-21.675 l 0.0776,-21.3 8.7,-0.0845 c 9.63492,-0.0936 11.70354,0.1116 14.5116,1.43961 5.75538,2.72184 7.9329,9.48321 4.81269,14.94366 -0.60441,1.05774 -1.36059,1.86993 -2.23446,2.4 -0.72648,0.4407 -1.32513,0.8745 -1.33035,0.96402 -0.005,0.0895 0.5808,0.32067 1.30227,0.51363 2.67057,0.71427 5.37123,3.49101 6.31566,6.49359 0.85479,2.71755 0.58143,6.62997 -0.64641,9.25224 -1.78095,3.80349 -5.34312,6.42051 -9.681,7.11225 -2.94174,0.46914 -21.57963,0.41817 -21.76206,-0.0595 z m 20.13564,-8.59389 c 3.85197,-1.74948 4.06263,-6.94485 0.36624,-9.0324 -1.18698,-0.67035 -1.6785,-0.73803 -6.16482,-0.84879 l -4.875,-0.12036 0,5.28522 0,5.28522 4.725,-0.007 c 3.94956,-0.005 4.92582,-0.0978 5.94858,-0.56229 z m -2.36619,-17.71515 c 3.1257,-1.41909 3.31314,-5.99286 0.32034,-7.81758 -0.84033,-0.51237 -1.51527,-0.59628 -4.80273,-0.59727 l -3.825,0 0,4.5 0,4.5 3.525,-0.007 c 2.81442,-0.005 3.77847,-0.12165 4.78239,-0.57744 z m 21.99261,4.93404 0,-21.75 4.8,0 4.8,0 0,21.75 0,21.75 -4.8,0 -4.8,0 0,-21.75 z m 115.03794,21.375 c -0.0788,-0.20625 -0.10827,-9.96 -0.0656,-21.675 l 0.0776,-21.3 4.725,-0.0826 4.725,-0.0826 0,8.10762 0,8.10762 9.45,0 9.45,0 0,-8.10762 0,-8.10762 4.725,0.0826 4.725,0.0826 0,21.6 0,21.6 -4.725,0.0826 -4.725,0.0826 0,-9.30762 0,-9.30762 -9.45,0 -9.45,0 0,9.3 0,9.3 -4.65942,0 c -3.45114,0 -4.69656,-0.0972 -4.80264,-0.375 z m 46.96206,-21.37782 0,-21.75282 14.775,0.0778 14.775,0.0778 0.0832,4.275 0.0832,4.275 -10.05822,0 -10.05825,0 0,4.05 0,4.05 9.3,0 9.3,0 0,4.35 0,4.35 -9.3,0 -9.3,0 0,4.65 0,4.65 10.2,0 10.2,0 0,4.35 0,4.35 -15,0 -15,0 0,-21.75282 z m 37.8,0.003 0,-21.76674 3.975,0.0837 3.975,0.0837 7.23738,10.8 c 3.98055,5.94 7.39695,10.8 7.59198,10.8 0.19503,0 3.62073,-4.86 7.61262,-10.8 l 7.25802,-10.8 3.975,-0.0837 3.975,-0.0837 0,21.75873 0,21.7587 -4.49685,0 -4.49685,0 -0.0781,-13.11234 -0.0782,-13.11237 -6.73512,9.96237 c -3.70434,5.47929 -6.81912,9.96234 -6.92175,9.96234 -0.10266,0 -3.21435,-4.46355 -6.91488,-9.91899 l -6.72825,-9.91899 -0.15,12.99399 -0.15,12.99399 -4.425,0.083 -4.425,0.083 0,-21.76674 z m 54.9,0 0,-21.75 4.8,0 4.8,0 0,21.75 0,21.75 -4.8,0 -4.8,0 0,-21.75 z m 60.6831,21.375 c 0.81126,-2.06556 17.45229,-42.20703 17.66022,-42.6 0.24408,-0.46128 0.78105,-0.525 4.42389,-0.525 l 4.14612,0 8.89518,21.525 c 4.89237,11.83875 8.89437,21.62952 8.89335,21.75726 0,0.12774 -2.25516,0.19524 -5.00922,0.15 l -5.00733,-0.0823 -1.47738,-3.67935 -1.47738,-3.67935 -9.04026,0.0794 -9.04029,0.0793 -1.48398,3.675 -1.48398,3.675 -5.07312,0 c -3.93705,0 -5.04012,-0.084 -4.92582,-0.375 z m 28.1169,-14.92236 c 0,-0.16344 -1.22958,-3.36969 -2.73243,-7.125 -1.50282,-3.75531 -2.86314,-7.16532 -3.02295,-7.57782 -0.25629,-0.66165 -0.63822,0.105 -3.24171,6.50724 -1.62315,3.99147 -3.03942,7.53522 -3.14727,7.875 -0.19362,0.61002 -0.11871,0.61776 5.97414,0.61776 3.87441,0 6.17022,-0.11058 6.17022,-0.29718 z m 21.9,-6.46044 0,-21.75762 4.725,0.0826 4.725,0.0826 0.0774,17.325 0.0774,17.325 8.39757,0 8.39757,0 0,4.35 0,4.35 -13.2,0 -13.2,0 0,-21.75762 z"
     style="fill:#020292" />
  <path
     inkscape:connector-curvature="0"
     id="path4175"
     d="m 84.537009,178.68236 c 0,-0.0623 0.23625,-0.29853 0.525,-0.525 0.47582,-0.37314 0.48643,-0.36255 0.11327,0.11328 -0.39191,0.49971 -0.63827,0.65865 -0.63827,0.41172 z m 47.449081,-7.5336 c 0.31812,-2.0286 -0.0692,-5.37081 -0.87345,-7.53684 l -0.54036,-1.45539 0.82941,-2.34387 c 1.55664,-4.3989 2.12604,-7.9599 2.15712,-13.49067 0.0156,-2.763 0.10323,-5.02425 0.19494,-5.025 0.0917,0 1.00296,0.28104 2.025,0.62619 l 1.85826,0.62754 0,1.4577 c 0,2.29071 0.55521,4.43022 1.85727,7.15698 3.26436,6.83625 11.30796,11.04252 18.46773,9.65745 0.70125,-0.13566 1.275,-0.13623 1.275,0 0,0.47433 -5.10429,4.64187 -7.62957,6.22932 -5.16282,3.24552 -11.32338,5.30889 -16.85676,5.64588 l -3.03633,0.18489 0.27174,-1.73289 z m -40.825391,-4.82811 c 0.0144,-0.3495 0.0855,-0.42057 0.18124,-0.18126 0.0867,0.21657 0.076,0.47532 -0.0237,0.57501 -0.0997,0.0997 -0.17059,-0.0775 -0.15756,-0.39375 z m 0,-3 c 0.0144,-0.3495 0.0855,-0.42057 0.18124,-0.18126 0.0867,0.21657 0.076,0.47532 -0.0237,0.57501 -0.0997,0.0997 -0.17059,-0.0775 -0.15756,-0.39375 z m 69.878621,-4.67337 c 3.99225,-4.92069 7.08651,-12.12978 7.69173,-17.92023 0.18303,-1.75089 0.22086,-1.81314 1.63755,-2.69382 l 1.45017,-0.90147 0.33468,1.10694 c 0.61587,2.03712 0.70554,6.9123 0.16656,9.05883 -1.29483,5.15712 -4.82052,9.67386 -9.19689,11.78217 -3.70341,1.78413 -3.85635,1.75239 -2.0838,-0.43242 z M 26.989903,152.07464 c -4.57651,-0.90063 -8.59711,-4.73709 -9.83441,-9.38406 -0.86964,-3.26613 -0.21415,-7.61097 1.53426,-10.1697 l 0.76856,-1.12476 -1.99429,-2.77524 c -3.68503,-5.12805 -6.45761,-11.67714 -7.45233,-17.6031 C 9.4083329,107.4233 9.3976329,100.6199 9.9895929,96.969885 11.681133,86.540145 17.609993,76.748895 26.251113,70.114755 l 1.73589,-1.33272 0.0562,1.23654 c 0.0309,0.68013 0.44785,2.40192 0.92647,3.82623 l 0.87023,2.58966 -1.20794,0.19317 c -3.12837,0.50025 -6.7464,3.41376 -8.17929,6.58662 -1.18125,2.61564 -1.17786,5.85456 0.009,8.4825 0.45976,1.01814 1.15433,2.15025 1.54349,2.51586 l 0.70756,0.66471 -1.32221,1.68417 c -1.67441,2.13276 -2.47246,3.939395 -2.81228,6.366515 -0.99995,7.14183 3.67902,13.55067 10.72104,14.68476 5.38694,0.86754 10.83223,-2.17212 13.32738,-7.43958 0.89949,-1.89888 0.96044,-2.23695 0.96044,-5.32755 0,-3.07686 -0.0637,-3.43437 -0.94147,-5.287025 -0.5178,-1.09284 -1.43588,-2.53428 -2.04018,-3.20316 l -1.09872,-1.21617 1.06518,-1.48266 c 0.58585,-0.81546 1.06519,-1.60947 1.06519,-1.76448 0,-0.15501 0.17112,-0.51585 0.38026,-0.80187 0.35394,-0.48405 0.53702,-0.4476 2.64518,0.52641 4.38039,2.02386 6.11566,2.37378 12.15957,2.4519 4.91713,0.0636 5.63177,0.14082 7.5,0.81045 8.973716,3.21657 20.125266,3.14238 28.986066,-0.19284 l 1.99464,-0.75078 0.305,1.55511 c 0.34568,1.76256 0.5738,3.52086 0.76166,5.870885 0.0964,1.20606 0.0428,1.52937 -0.21161,1.275 -0.50524,-0.50523 -8.79684,-0.43143 -12.12226,0.10791 -6.14757,0.99705 -12.74479,3.75363 -17.701356,7.39629 l -1.55285,1.14123 -3.69715,0.13218 c -5.54343,0.19815 -9.89523,1.32186 -14.55725,3.75891 -4.41007,2.30535 -8.70828,6.1266 -11.4765,10.20297 -1.13954,1.67805 -1.30441,1.80642 -2.05127,1.59723 -0.44669,-0.12513 -2.16215,-0.22749 -3.81215,-0.22749 -2.74058,0 -3.17182,0.0814 -4.98701,0.94146 -1.92061,0.90999 -4.46299,2.88162 -4.46299,3.46104 0,0.95919 5.21168,5.81622 8.58943,8.00493 l 1.52437,0.98775 0.17091,3.50241 c 0.11671,2.39193 0.39948,4.28031 0.89183,5.95584 l 0.72092,2.4534 -0.62373,0.16749 c -0.83475,0.22416 -2.43778,0.1662 -4.02084,-0.14532 z m 66.294476,-13.779 c 0,-0.4125 0.0681,-0.58125 0.15131,-0.375 0.0832,0.20625 0.0832,0.54375 0,0.75 -0.0832,0.20625 -0.15131,0.0375 -0.15131,-0.375 z m -0.0237,-5.27499 c 0.0144,-0.3495 0.0855,-0.42057 0.18125,-0.18126 0.0867,0.21657 0.076,0.47532 -0.0237,0.57501 -0.0997,0.0997 -0.1706,-0.0775 -0.15757,-0.39375 z m 10.776301,-23.37501 c 1.06296,-1.0725 2.00016,-1.95 2.08266,-1.95 0.0825,0 -0.7197,0.8775 -1.78266,1.95 -1.06296,1.0725 -2.00016,1.95 -2.08266,1.95 -0.0825,0 0.7197,-0.8775 1.78266,-1.95 z m -7.741511,-3.9 c 0.006,-0.495 0.0734,-0.66117 0.14941,-0.3693 0.0761,0.2919 0.0711,0.6969 -0.0111,0.9 -0.0822,0.20313 -0.14441,-0.0357 -0.1383,-0.5307 z M 183.29689,87.156735 c -0.54357,-0.90879 -1.45077,-2.25819 -2.01597,-2.99865 l -1.02765,-1.34628 -0.13095,-4.1331 c -0.1428,-4.50615 -0.68301,-7.79511 -1.83828,-11.19174 -0.41019,-1.20594 -0.69648,-2.2419 -0.63624,-2.30217 0.0602,-0.0602 0.80376,0.43923 1.65222,1.10991 3.12072,2.46678 5.56878,6.36996 6.51099,10.38105 0.82419,3.50874 0.20979,9.75975 -1.14081,11.60682 -0.34695,0.47445 -0.4827,0.36315 -1.37331,-1.12584 z m -29.75991,-19.8111 c 0.55974,-0.5775 1.08519,-1.05 1.16769,-1.05 0.0825,0 -0.30795,0.4725 -0.86769,1.05 -0.55974,0.5775 -1.08519,1.05 -1.16769,1.05 -0.0825,0 0.30795,-0.4725 0.86769,-1.05 z m -9.6,0.63672 c 0,-0.0623 0.23625,-0.29853 0.525,-0.525 0.47583,-0.37314 0.48642,-0.36255 0.11328,0.11328 -0.39192,0.49971 -0.63828,0.65865 -0.63828,0.41172 z m 22.72851,-6.09891 c 0.37317,-0.0718 0.91317,-0.069 1.2,0.006 0.2868,0.0751 -0.0186,0.1338 -0.67851,0.13047 -0.66,-0.003 -0.89469,-0.0648 -0.52149,-0.13653 z M 31.998713,51.970635 c -0.37316,-0.47583 -0.36255,-0.48642 0.11327,-0.11328 0.28875,0.22647 0.525,0.46272 0.525,0.525 0,0.24693 -0.24636,0.088 -0.63827,-0.41172 z m -2.01576,-3.13683 c -1.86894,-3.68682 -1.87141,-7.722 -0.007,-11.41536 2.30754,-4.57122 7.66023,-7.51425 12.65016,-6.95541 l 1.73913,0.19479 -0.52838,0.79392 c -1.47238,2.21229 -3.40092,5.65815 -4.14016,7.39752 -0.64415,1.5156 -1.33245,2.43804 -3.07746,4.12431 -2.34009,2.26131 -4.58962,5.15721 -5.27817,6.79479 l -0.40095,0.95358 -0.95716,-1.88814 z m 90.251297,-1.37691 c -0.42873,-2.16054 -1.60986,-6.02286 -2.48685,-8.13207 l -0.67392,-1.62078 0.723,-2.12922 c 1.30848,-3.85344 1.21515,-8.91989 -0.23574,-12.79714 -1.09983,-2.939 -1.04028,-2.90695 -3.96222,-2.1333 -1.38135,0.36575 -3.60624,1.18654 -4.94421,1.82398 l -2.43267,1.159 -1.46733,-1.17893 c -3.64618,-2.92954 -10.215811,-6.21992 -14.629361,-7.32708 l -2.06204,-0.51727 0.71203,-0.54778 c 1.39861,-1.07597 4.6444,-2.61799 6.56204,-3.11751 2.3359,-0.60847 6.422701,-0.68402 8.700001,-0.16083 4.13448,0.94985 8.39862,3.78403 10.99053,7.3049 l 1.29087,1.75349 5.3343,0.0745 c 4.83951,0.0676 5.58474,0.1509 8.0343,0.89821 3.01971,0.92125 7.28982,3.05758 9.6822,4.84397 l 1.5822,1.18143 -1.50369,0.51112 c -7.20174,2.44797 -12.61071,9.41346 -12.61071,16.23972 l 0,1.65306 -1.725,0.96462 c -0.94875,0.53055 -2.35797,1.41474 -3.13158,1.96491 l -1.40658,1.00029 -0.33957,-1.71129 z"
     style="fill:#38090e" />
  <circle
     style="fill:none;fill-opacity:1;stroke:#020292;stroke-width:3;stroke-miterlimit:4;stroke-dasharray:none;stroke-opacity:1"
     id="path4148"
     cx="99.579132"
     cy="99.579132"
     r="98.079132" />
</svg>
