<?xml version="1.0" encoding="UTF-8" standalone="no"?>
<!-- Generator: Adobe Illustrator 18.0.0, SVG Export Plug-In . SVG Version: 6.00 Build 0)  -->

<svg
   xmlns:dc="http://purl.org/dc/elements/1.1/"
   xmlns:cc="http://creativecommons.org/ns#"
   xmlns:rdf="http://www.w3.org/1999/02/22-rdf-syntax-ns#"
   xmlns:svg="http://www.w3.org/2000/svg"
   xmlns="http://www.w3.org/2000/svg"
   xmlns:sodipodi="http://sodipodi.sourceforge.net/DTD/sodipodi-0.dtd"
   xmlns:inkscape="http://www.inkscape.org/namespaces/inkscape"
   version="1.1"
   id="Layer_1"
   x="0px"
   y="0px"
   width="846.32135"
   height="602.29999"
   viewBox="0 0 846.32136 602.30001"
   enable-background="new 0 0 874.8 636.1"
   xml:space="preserve"
   inkscape:version="0.48.5 r10040"
   sodipodi:docname="Diagonal_main.svg"><metadata
     id="metadata49"><rdf:RDF><cc:Work
         rdf:about=""><dc:format>image/svg+xml</dc:format><dc:type
           rdf:resource="http://purl.org/dc/dcmitype/StillImage" /></cc:Work></rdf:RDF></metadata><defs
     id="defs47" /><sodipodi:namedview
     pagecolor="#ffffff"
     bordercolor="#666666"
     borderopacity="1"
     objecttolerance="10"
     gridtolerance="10"
     guidetolerance="10"
     inkscape:pageopacity="0"
     inkscape:pageshadow="2"
     inkscape:window-width="640"
     inkscape:window-height="480"
     id="namedview45"
     showgrid="false"
     fit-margin-top="0"
     fit-margin-left="0"
     fit-margin-right="0"
     fit-margin-bottom="0"
     inkscape:zoom="0.37101086"
     inkscape:cx="418.82498"
     inkscape:cy="300.84999"
     inkscape:window-x="0"
     inkscape:window-y="31"
     inkscape:window-maximized="0"
     inkscape:current-layer="Layer_1" /><g
     id="g3"
     transform="translate(-18.575011,-16.6)"><path
       d="m 375.1,539.8 17.5,-17.5 68.4,12.6 -40.5,-40.5 19.1,-19.1 72.7,72.7 -16.5,16.5 -70.7,-12.7 41.7,41.7 -19.1,19.1 -72.6,-72.8 z"
       id="path5"
       inkscape:connector-curvature="0"
       style="fill:#4d4d4d" /><path
       d="m 562,501.7 c -5.4,5.4 -11.4,9.5 -18,12.2 -6.5,2.7 -13.2,4 -19.9,4 -6.8,0 -13.4,-1.4 -20,-4.2 -6.6,-2.8 -12.6,-7 -18.1,-12.5 -5.5,-5.5 -9.7,-11.6 -12.5,-18.1 -2.8,-6.6 -4.2,-13.2 -4.2,-20 0,-6.8 1.4,-13.4 4.1,-19.9 2.7,-6.5 6.8,-12.5 12.3,-17.9 5.4,-5.4 11.4,-9.5 18,-12.3 6.5,-2.8 13.2,-4.1 19.9,-4.1 6.7,0 13.4,1.5 19.9,4.2 6.6,2.8 12.6,7 18.1,12.5 5.5,5.5 9.7,11.6 12.5,18.1 2.8,6.6 4.2,13.2 4.2,19.9 0,6.7 -1.3,13.4 -4,19.9 -2.8,6.7 -6.8,12.7 -12.3,18.2 z m -18.1,-18.1 c 2.8,-2.8 4.8,-5.9 6,-9.1 1.2,-3.3 1.6,-6.6 1.3,-9.9 -0.3,-3.3 -1.3,-6.6 -2.9,-9.9 -1.7,-3.3 -3.9,-6.3 -6.6,-9 -2.8,-2.8 -5.8,-5 -9,-6.6 -3.3,-1.7 -6.6,-2.7 -9.9,-2.9 -3.3,-0.3 -6.6,0.1 -9.9,1.3 -3.3,1.2 -6.3,3.2 -9.2,6 -2.9,2.8 -4.8,5.9 -6,9.2 -1.2,3.3 -1.6,6.6 -1.3,9.9 0.3,3.3 1.3,6.6 2.9,9.9 1.7,3.3 3.9,6.3 6.6,9 2.8,2.8 5.8,5 9,6.6 3.3,1.7 6.6,2.7 9.9,2.9 3.3,0.3 6.6,-0.1 9.9,-1.3 3.4,-1.3 6.4,-3.3 9.2,-6.1 z"
       id="path7"
       inkscape:connector-curvature="0"
       style="fill:#4d4d4d" /><path
       d="m 662.1,371 c 2,18.4 -3.6,34.4 -17,47.7 -5.6,5.6 -11.7,9.8 -18.2,12.5 -6.5,2.8 -13.1,4.1 -19.8,4.1 -6.6,0 -13.2,-1.5 -19.7,-4.2 -6.5,-2.8 -12.5,-7 -18.1,-12.6 -5.5,-5.5 -9.7,-11.5 -12.6,-18 -2.9,-6.5 -4.4,-13.1 -4.5,-19.9 -0.1,-6.8 1.2,-13.5 3.9,-20 2.7,-6.6 6.9,-12.7 12.5,-18.2 6.3,-6.3 13.2,-11.1 20.7,-14.4 7.5,-3.3 15.7,-4.1 24.6,-2.6 L 614,351 c -4.8,-0.7 -9.4,-0.5 -13.9,0.7 -4.5,1.2 -8.6,3.6 -12.2,7.2 -3.1,3.1 -5.3,6.3 -6.6,9.7 -1.4,3.4 -2,6.8 -1.8,10.3 0.2,3.5 1.1,6.8 2.6,10.1 1.6,3.3 3.8,6.4 6.6,9.2 2.9,2.9 6,5.1 9.4,6.7 3.4,1.6 6.8,2.4 10.3,2.6 3.5,0.1 6.9,-0.5 10.3,-1.8 3.4,-1.3 6.5,-3.5 9.4,-6.4 4.2,-4.2 6.9,-8.4 8.1,-12.5 1.2,-4.1 1.4,-9.1 0.8,-14.8 l 25.1,-1 z"
       id="path9"
       inkscape:connector-curvature="0"
       style="fill:#4d4d4d" /><path
       d="m 631.8,283 22.1,-22.1 98.4,47 -20.8,20.8 -19.7,-10.3 -24.3,24.3 10.2,19.8 -19.9,19.9 -46,-99.4 z m 62,25.2 -34.8,-18.6 18.3,35.1 16.5,-16.5 z"
       id="path11"
       inkscape:connector-curvature="0"
       style="fill:#4d4d4d" /><path
       d="m 742.6,271.6 c 4.1,0 8.6,-0.8 13.5,-2.4 4.9,-1.6 9.4,-4.4 13.3,-8.3 0.9,-0.9 1.8,-2 2.7,-3.2 0.8,-1.2 1.4,-2.4 1.8,-3.6 0.4,-1.2 0.4,-2.5 0.2,-3.7 -0.2,-1.2 -0.9,-2.4 -2.1,-3.6 -1.9,-1.9 -4.4,-2.5 -7.6,-1.8 -3.2,0.7 -7.2,2.3 -12.1,4.7 l -5.3,2.7 c -3,1.5 -6.2,2.9 -9.6,4 -3.4,1.1 -6.9,1.8 -10.4,2 -3.5,0.2 -6.8,-0.3 -10.2,-1.4 -3.3,-1.1 -6.5,-3.1 -9.5,-6.1 -3.3,-3.3 -5.8,-7.1 -7.5,-11.2 -1.6,-4.1 -2.3,-8.4 -2.1,-12.9 0.2,-4.5 1.5,-9.1 3.8,-13.8 2.3,-4.7 5.7,-9.3 10.3,-13.9 3.6,-3.6 7.1,-6.5 10.7,-8.7 3.6,-2.3 6.9,-4 10,-5.2 3.1,-1.2 6,-2.1 8.6,-2.5 2.6,-0.4 4.8,-0.6 6.4,-0.5 l 2.6,22.2 c -4.4,0.7 -8.6,1.8 -12.6,3.3 -4,1.6 -7.4,3.8 -10.3,6.7 -0.9,0.9 -1.8,2 -2.5,3.2 -0.7,1.2 -1.3,2.3 -1.6,3.5 -0.3,1.2 -0.4,2.4 -0.2,3.5 0.2,1.2 0.8,2.3 1.9,3.3 1.1,1.1 2.3,1.8 3.6,2 1.3,0.3 2.8,0.2 4.3,-0.2 1.5,-0.4 3.2,-1 5,-1.9 1.8,-0.9 3.7,-1.8 5.8,-2.8 l 4.6,-2.4 c 3.3,-1.7 6.7,-3.2 10.3,-4.7 3.6,-1.5 7.3,-2.4 11.1,-2.6 3.8,-0.3 7.7,0.3 11.7,1.6 4,1.3 7.9,3.9 11.7,7.8 3.3,3.3 5.6,7.2 6.9,11.6 1.3,4.4 1.6,8.9 1,13.6 -0.6,4.7 -2.2,9.4 -4.6,14.1 -2.5,4.7 -5.7,9.1 -9.8,13.2 -7.3,7.3 -14.3,12.4 -21.1,15.4 -6.8,3 -13.6,4.5 -20.3,4.7 l -2.4,-25.7 z"
       id="path13"
       inkscape:connector-curvature="0"
       style="fill:#4d4d4d" /><path
       d="m 806.4,207.8 c 4.1,0 8.6,-0.8 13.5,-2.4 4.9,-1.6 9.4,-4.4 13.3,-8.3 0.9,-0.9 1.8,-2 2.7,-3.2 0.8,-1.2 1.4,-2.4 1.8,-3.6 0.4,-1.2 0.4,-2.5 0.2,-3.7 -0.2,-1.2 -0.9,-2.4 -2.1,-3.6 -1.9,-1.9 -4.4,-2.5 -7.6,-1.8 -3.2,0.7 -7.2,2.3 -12.1,4.7 l -5.3,2.7 c -3,1.5 -6.2,2.9 -9.6,4 -3.4,1.1 -6.9,1.8 -10.4,2 -3.5,0.2 -6.8,-0.3 -10.2,-1.4 -3.3,-1.1 -6.5,-3.1 -9.5,-6.1 -3.3,-3.3 -5.8,-7.1 -7.5,-11.2 -1.6,-4.1 -2.3,-8.4 -2.1,-12.9 0.2,-4.5 1.5,-9.1 3.8,-13.8 2.3,-4.7 5.7,-9.3 10.3,-13.9 3.6,-3.6 7.1,-6.5 10.7,-8.7 3.6,-2.3 6.9,-4 10,-5.2 3.1,-1.2 6,-2.1 8.6,-2.5 2.6,-0.4 4.8,-0.6 6.4,-0.5 l 2.6,22.2 c -4.4,0.7 -8.6,1.8 -12.6,3.3 -4,1.6 -7.4,3.8 -10.3,6.7 -0.9,0.9 -1.8,2 -2.5,3.2 -0.7,1.2 -1.3,2.3 -1.6,3.5 -0.3,1.2 -0.4,2.4 -0.2,3.5 0.2,1.2 0.8,2.3 1.9,3.3 1.1,1.1 2.3,1.8 3.6,2 1.3,0.3 2.8,0.2 4.3,-0.2 1.5,-0.4 3.2,-1 5,-1.9 1.8,-0.9 3.7,-1.8 5.8,-2.8 l 4.6,-2.4 c 3.3,-1.7 6.7,-3.2 10.3,-4.7 3.6,-1.5 7.3,-2.4 11.1,-2.6 3.8,-0.3 7.7,0.3 11.7,1.6 4,1.3 7.9,3.9 11.7,7.8 3.3,3.3 5.6,7.2 6.9,11.6 1.3,4.4 1.6,8.9 1,13.6 -0.6,4.7 -2.2,9.4 -4.6,14.1 -2.5,4.7 -5.7,9.1 -9.8,13.2 -7.3,7.3 -14.3,12.4 -21.1,15.4 -6.8,3 -13.6,4.5 -20.3,4.7 l -2.4,-25.7 z"
       id="path15"
       inkscape:connector-curvature="0"
       style="fill:#4d4d4d" /></g><g
     id="g17"
     transform="translate(-18.575011,-16.6)"><path
       d="m 553.5,610.1 c -2.1,-2.1 -3.6,-4.5 -4.4,-7.2 -0.8,-2.6 -1.2,-5.3 -1.2,-8 0,-2.7 0.2,-5.5 0.7,-8.3 0.5,-2.8 0.9,-5.4 1.2,-7.7 0.3,-2.4 0.5,-4.5 0.5,-6.3 0,-1.9 -0.5,-3.3 -1.5,-4.3 -0.9,-0.9 -2.2,-1.4 -3.7,-1.3 -1.6,0 -3.1,0.8 -4.8,2.5 -0.9,0.9 -1.5,1.8 -1.9,2.9 -0.4,1.1 -0.7,2 -0.8,3.1 -0.1,1 -0.1,2 0,2.9 0.1,0.9 0.2,1.7 0.4,2.3 l -13.5,2.5 c -0.4,-1.8 -0.7,-3.6 -0.7,-5.6 0,-2 0.3,-4 0.8,-6.1 0.6,-2.1 1.5,-4.2 2.7,-6.4 1.2,-2.2 2.9,-4.3 5,-6.4 2.3,-2.3 4.7,-4 7.2,-5.1 2.5,-1.1 4.9,-1.7 7.3,-1.7 2.4,0 4.6,0.4 6.7,1.2 2.1,0.8 3.9,2 5.4,3.5 1.9,1.9 3.2,4 3.9,6.3 0.7,2.3 1.1,4.7 1.1,7.1 0,2.5 -0.1,4.9 -0.6,7.3 -0.4,2.4 -0.8,4.7 -1.1,6.8 -0.3,2.1 -0.5,4 -0.5,5.6 0,1.6 0.3,2.9 1.1,3.7 l 16.6,-16.6 9.8,9.8 -29.7,29.7 -6,-6.2 z"
       id="path19"
       inkscape:connector-curvature="0"
       style="fill:#999999" /><path
       d="m 613,564.7 c -2.7,2.7 -5.6,4.6 -8.7,5.6 -3.1,1 -6.3,1.2 -9.6,0.7 -3.3,-0.5 -6.6,-1.8 -10,-3.8 -3.4,-2 -6.7,-4.6 -9.9,-7.8 -3.2,-3.2 -5.8,-6.5 -7.8,-9.9 -2,-3.4 -3.2,-6.7 -3.8,-10 -0.5,-3.3 -0.3,-6.5 0.7,-9.6 1,-3.1 2.9,-6 5.6,-8.7 2.9,-2.9 5.9,-4.8 9,-5.9 3.1,-1 6.3,-1.2 9.6,-0.6 3.2,0.6 6.5,1.9 9.8,4 3.3,2 6.6,4.7 9.8,7.9 3.2,3.2 5.9,6.5 7.9,9.8 2,3.3 3.4,6.6 4,9.8 0.6,3.2 0.4,6.4 -0.6,9.6 -1.2,3 -3.1,6.1 -6,8.9 z m -10.1,-10.1 c 1,-1.1 1.6,-2.2 1.6,-3.5 0,-1.3 -0.3,-2.6 -0.9,-4.1 -0.7,-1.4 -1.6,-3 -2.9,-4.5 -1.3,-1.6 -2.7,-3.2 -4.3,-4.8 -1.6,-1.6 -3.2,-3.1 -4.8,-4.3 -1.6,-1.3 -3.1,-2.2 -4.5,-2.9 -1.4,-0.7 -2.8,-1 -4.1,-0.9 -1.3,0 -2.4,0.6 -3.5,1.6 -1.1,1.1 -1.6,2.2 -1.7,3.5 -0.1,1.3 0.2,2.6 0.9,4.1 0.7,1.4 1.7,2.9 2.9,4.5 1.3,1.6 2.7,3.2 4.3,4.8 1.6,1.6 3.2,3.1 4.8,4.3 1.6,1.3 3.1,2.2 4.5,2.9 1.4,0.7 2.8,1 4.1,0.9 1.3,0 2.5,-0.5 3.6,-1.6 z"
       id="path21"
       inkscape:connector-curvature="0"
       style="fill:#999999" /><path
       d="m 627.5,529.2 7.2,-7.2 -19.8,-19.8 -2.7,9 -13.1,-3.7 5.6,-19.2 8.9,-8.9 31.9,31.9 6.7,-6.7 9.5,9.5 -24.6,24.6 -9.6,-9.5 z"
       id="path23"
       inkscape:connector-curvature="0"
       style="fill:#999999" /><path
       d="m 661.7,489.4 c 2.3,-0.1 4.4,-0.4 6.5,-1.1 2,-0.6 3.9,-1.8 5.5,-3.4 2.1,-2.1 3.2,-4.3 3.1,-6.4 -0.1,-2.1 -0.8,-3.9 -2.2,-5.3 -0.7,-0.7 -1.5,-1.2 -2.4,-1.6 -0.9,-0.4 -1.9,-0.6 -3,-0.6 -1.1,0 -2.1,0.2 -3.3,0.7 -1.1,0.5 -2.2,1.2 -3.2,2.2 -0.8,0.8 -1.6,1.8 -2.5,3.1 -0.9,1.3 -1.6,2.6 -2,4 l -8.2,1.2 -16.6,-22.8 23.2,-23.2 9.4,9.4 -15.8,15.8 4.5,6 c 0.2,-0.4 0.7,-1.1 1.5,-2 0.8,-1 1.5,-1.7 2,-2.3 2.1,-2.1 4.3,-3.6 6.6,-4.7 2.4,-1.1 4.7,-1.7 7.1,-1.8 2.4,-0.1 4.8,0.3 7.1,1.3 2.4,1 4.6,2.5 6.6,4.5 2,2 3.6,4.3 4.7,6.8 1.1,2.5 1.6,5.1 1.6,7.8 0,2.7 -0.6,5.5 -1.8,8.3 -1.2,2.8 -3.1,5.5 -5.7,8.1 -3.4,3.4 -6.8,5.7 -10.2,7 -3.4,1.3 -7,2 -10.6,2.2 l -1.9,-13.2 z"
       id="path25"
       inkscape:connector-curvature="0"
       style="fill:#999999" /></g><g
     id="g27"
     transform="translate(-18.575011,-16.6)"><g
       id="g29"><path
         d="m 446,16.6 c -46.9,0 -91,18.2 -123.9,51.1 L 69.8,320 c -68.3,68.3 -68.3,179.5 0,247.8 33,33 77,51.1 123.9,51.1 47,0 91,-18.2 123.9,-51.1 L 569.9,315.5 C 638.2,247.2 638.2,136 569.9,67.7 537,34.8 493,16.6 446,16.6 z"
         id="path31"
         inkscape:connector-curvature="0"
         style="fill:#4d4d4d" /><g
         id="g33"><path
           d="m 600.7,133.8 c -10.2,-3.7 -21.2,-5.7 -32.6,-5.7 -53.5,0 -96.9,43.5 -96.9,96.9 0,46.8 33.4,86 77.6,95 l 14.3,-14.3 c 46.2,-46.1 58.7,-113.9 37.6,-171.9 z"
           id="path35"
           inkscape:connector-curvature="0"
           style="fill:#8aeb87" /><path
           d="M 220.4,354.1 C 199.6,297 263.3,220.4 365.7,174 345,145.5 329,116.4 318.1,88.5 L 76.8,329.8 c -50.6,50.6 -60.9,126.9 -30.9,188 -2.5,-17.1 -3.7,-36 -1.3,-55.6 0.2,-1.4 0.4,-2.8 0.5,-4.2 l 0.1,-0.9 0,-0.2 0.1,-0.5 0.2,-0.9 0.3,-1.8 0.3,-1.8 0.2,-0.9 c 0.1,-0.3 0.1,-0.6 0.2,-1 0.4,-1.6 0.7,-3.1 1.1,-4.7 0.7,-3.2 1.6,-6 2.5,-8.8 0.8,-2.9 2,-5.6 3,-8.4 4.4,-11.1 10.3,-21.8 18,-31.5 5.7,-7.3 12.5,-14.1 20.2,-19.8 0.4,-1 0.9,-2 1.4,-3 0.7,-1.4 1.6,-2.7 2.5,-4.2 1,-1.3 1.9,-2.8 3.1,-4.1 1.2,-1.3 2.3,-2.7 3.6,-4 0.7,-0.6 1.3,-1.3 2,-1.9 0.7,-0.6 1.4,-1.2 2.2,-1.8 3,-2.4 6.3,-4.6 9.9,-6.2 1.8,-0.9 3.7,-1.5 5.6,-2.2 2,-0.5 3.9,-1.1 5.9,-1.4 4,-0.8 8,-0.8 11.8,-0.8 3.8,0.1 7.5,0.2 11.1,0.2 3.6,0 7,-0.2 10.2,-0.8 3.2,-0.5 6.2,-1.4 8.7,-2.6 2.6,-1.2 4.7,-2.7 6.5,-4.3 1.7,-1.5 3,-3.2 3.9,-4.6 0.9,-1.4 1.4,-2.7 1.7,-3.5 0.3,-0.9 0.4,-1.3 0.4,-1.3 0,0 -0.1,0.5 -0.3,1.3 -0.3,0.9 -0.7,2.1 -1.5,3.6 -0.8,1.5 -2,3.2 -3.7,4.9 -1.7,1.7 -3.8,3.4 -6.4,4.8 -2.6,1.4 -5.6,2.6 -8.9,3.3 -3.3,0.8 -6.8,1.2 -10.5,1.5 -3.7,0.3 -7.4,0.3 -11.2,0.5 -3.8,0.2 -7.5,0.5 -11.1,1.4 -1.8,0.3 -3.5,1.1 -5.2,1.6 -1.7,0.8 -3.4,1.4 -4.9,2.4 -3.2,1.7 -6,3.9 -8.6,6.1 -0.6,0.6 -1.2,1.2 -1.8,1.8 -0.6,0.6 -1.1,1.2 -1.7,1.8 -1.1,1.2 -2,2.5 -3,3.7 -0.1,0.1 -0.1,0.2 -0.2,0.3 0.2,-0.1 0.5,-0.3 0.7,-0.4 1.5,-0.7 2.8,-1.6 4.4,-2.1 l 4.5,-1.8 c 0.8,-0.3 1.5,-0.6 2.3,-0.9 l 2.4,-0.7 4.7,-1.4 0.6,-0.2 c -0.3,0.1 0.8,-0.2 0.7,-0.2 l 0.2,0 1,-0.2 1.9,-0.4 c 0.5,-0.1 1.5,-0.3 2.4,-0.4 l 2.6,-0.4 c 0.9,-0.2 1.7,-0.2 2.5,-0.3 l 2.4,-0.2 c 12.7,-1 25,0.7 36.4,3.9 5.7,1.6 11.2,3.6 16.5,5.8 2.7,1.1 5.2,2.3 7.8,3.6 2.2,1.1 4.9,2.5 7.4,3.9 19.3,10.8 35.4,23.9 51.2,34.8 2,1.4 4,2.8 6,4.2 1.2,0.8 2.4,1.6 3.5,2.4 0.4,-0.1 0.9,-0.2 1.4,-0.4 2.2,-0.5 4.9,-0.9 7.9,-1.1 3.1,-0.2 6.5,-0.1 10.2,0.4 7.4,0.9 15.6,3.2 23.9,6.5 4.2,1.7 8.3,3.5 12.5,5.4 4.2,1.9 8.5,3.8 12.8,5.5 4.3,1.7 8.7,3.2 13.1,4.4 4.4,1.1 8.8,1.8 13.1,2 4.3,0.2 8.5,-0.1 12.4,-0.6 4,-0.5 7.7,-1.3 11.1,-2.1 6.8,-1.7 12.4,-3.6 16.2,-4.9 3.9,-1.4 6.1,-2.1 6.1,-2.1 0,0 -2.2,0.9 -6,2.4 -3.8,1.5 -9.3,3.7 -16,5.8 -6.8,2 -14.9,4 -23.9,4 -4.4,0 -9.1,-0.5 -13.7,-1.4 -4.6,-0.9 -9.2,-2.3 -13.7,-3.8 -4.5,-1.5 -8.9,-3.2 -13.2,-4.9 -4.3,-1.7 -8.5,-3.3 -12.6,-4.7 -8.2,-2.8 -16,-4.5 -22.7,-5 -3.3,-0.2 -6.4,-0.2 -9,0.1 -0.3,0 -0.6,0.1 -1,0.1 1.8,1.1 3.5,2.2 5.3,3.3 2,1.2 3.9,2.5 5.9,3.7 2,1.2 4,2.3 5.9,3.5 2,1.1 3.9,2.3 5.9,3.4 2,1.1 3.9,2.1 5.9,3.2 15.6,8.5 30.9,15.4 45.5,20.8 14.5,5.5 28.3,9.2 40.7,11.8 1.6,0.3 3.2,0.7 4.8,1 l 58.7,-58.7 c -0.7,-6.1 -1.3,-12.2 -1.8,-18.4 -109.4,31.9 -209.2,14.3 -230.2,-43.4 z"
           id="path37"
           inkscape:connector-curvature="0"
           style="fill:#fff09f" /><path
           d="m 345.3,471.6 c -15.5,-4.2 -31.9,-9.8 -48.8,-17 -2.1,-0.9 -4.2,-1.8 -6.4,-2.7 -2.1,-1 -4.2,-2 -6.4,-2.9 -2.1,-1 -4.3,-2 -6.5,-3 -2.1,-1.1 -4.3,-2.1 -6.4,-3.2 -2.2,-1.1 -4.3,-2.2 -6.5,-3.3 -2.2,-1.2 -4.3,-2.3 -6.5,-3.5 -2.2,-1.2 -4.4,-2.3 -6.6,-3.5 -2.1,-1.2 -4.3,-2.4 -6.4,-3.6 -12.9,-7.3 -25.5,-15.2 -38.2,-22 1.5,2.6 3.1,5.2 4.7,7.8 5.3,8.5 11,16.7 16.7,24.3 5.6,7.5 11.2,14.3 16.2,20 2.5,2.8 4.9,5.3 7.2,7.2 2.3,2 4.6,3.4 6.5,4.4 1.9,1 3.6,1.5 4.7,1.9 1.1,0.3 1.8,0.4 1.8,0.4 0,0 -0.6,-0.1 -1.8,-0.3 -1.1,-0.3 -2.8,-0.7 -4.9,-1.6 -2,-0.9 -4.4,-2.3 -6.8,-4.2 -2.5,-1.9 -5,-4.2 -7.7,-7 -5.3,-5.4 -11.2,-12 -17.3,-19.3 -6.1,-7.3 -12.2,-15.3 -18,-23.6 -2.9,-4.1 -5.7,-8.4 -8.4,-12.6 -0.3,-0.5 -0.6,-1 -0.9,-1.5 -2,-1 -4,-1.9 -6,-2.8 -2.2,-1 -4.1,-1.8 -6.7,-2.8 -2.1,-0.8 -4.4,-1.6 -6.6,-2.3 -4.4,-1.4 -8.9,-2.6 -13.4,-3.4 -9,-1.6 -17.9,-1.9 -26,-0.4 l -1.5,0.3 c -0.5,0.1 -1,0.2 -1.4,0.3 l -1.3,0.3 c -0.4,0.1 -0.8,0.2 -1.5,0.4 l -1.9,0.6 -0.9,0.3 -0.2,0.1 c -0.2,0.1 0.7,-0.2 0.3,-0.1 l -0.3,0.1 -2.8,1.1 -1.4,0.5 c -0.4,0.2 -0.9,0.5 -1.3,0.7 l -2.6,1.4 c -0.9,0.4 -1.7,1.1 -2.5,1.6 -0.8,0.6 -1.7,1.1 -2.5,1.6 -6.4,4.8 -11.9,10.9 -16.4,17.9 -4.5,7 -7.9,14.8 -10.2,22.8 -0.5,2 -1.2,4 -1.5,6 -0.4,2 -0.9,4.1 -1,5.8 l 0,0.3 c 0.3,-0.2 0.5,-0.5 0.7,-0.7 2.9,-2.6 6.4,-4.9 10.4,-6.1 4,-1.3 8.2,-1.3 12,-1.2 l 2.8,0 1.3,0 1.4,-0.1 c 1.9,0 3.7,-0.3 5.5,-0.5 3.6,-0.6 7.1,-1.5 10.4,-2.7 3.3,-1.2 6.3,-2.8 9.1,-4.4 2.7,-1.7 5.3,-3.5 7.4,-5.3 2.2,-1.8 4,-3.7 5.5,-5.4 1.5,-1.8 2.8,-3.3 3.7,-4.7 1,-1.3 1.6,-2.5 2.1,-3.3 0.5,-0.8 0.7,-1.2 0.7,-1.2 0,0 -0.2,0.4 -0.6,1.2 -0.4,0.8 -1,2 -1.9,3.4 -0.8,1.5 -2,3.1 -3.4,5 -1.5,1.8 -3.2,3.9 -5.3,5.9 -2,2.1 -4.5,4 -7.2,6 -2.8,1.9 -5.8,3.7 -9.2,5.2 -3.4,1.5 -7,2.7 -10.7,3.6 -1.9,0.4 -3.9,0.8 -5.8,0.9 l -1.4,0.2 -1.5,0.1 -2.9,0.1 c -3.8,0.2 -7.4,0.4 -10.5,1.7 -3.1,1.2 -5.9,3.2 -8.2,5.6 -2.3,2.3 -4,5.1 -5.2,7.7 -0.1,0.2 -0.2,0.5 -0.3,0.7 l 0,0.5 c -0.4,16.7 2.6,33.4 6.9,49.5 4.3,16.1 9.9,31.6 15.1,46.6 3.8,10.8 7.3,21 10.6,30.4 61,29.7 136.9,19.3 187.4,-31.2 L 389,479.5 c -0.3,0 -0.6,-0.1 -0.8,-0.1 -12.9,-1.1 -27.4,-3.6 -42.9,-7.8 z"
           id="path39"
           inkscape:connector-curvature="0"
           style="fill:#ff8ab1" /></g></g><g
       id="g41"><path
         d="m 405.9,225.1 c 0,-89.8 57.4,-145.3 144.1,-161.8 0.1,0 -2.5,-2.1 -2.3,-2.1 -6.3,-4.5 -10.4,-7.5 -17.1,-10.9 -90,17.8 -143.4,84.9 -143.4,177.3 0,71.7 33.8,127.4 96,157.4 l 14.2,-13.8 C 436.3,342.2 405.9,293 405.9,225.1 z"
         id="path43"
         inkscape:connector-curvature="0"
         style="fill:#4ab0e2" /></g></g></svg>