<?xml version="1.0" standalone="no"?>
<!DOCTYPE svg PUBLIC "-//W3C//DTD SVG 20010904//EN"
 "http://www.w3.org/TR/2001/REC-SVG-20010904/DTD/svg10.dtd">
<svg version="1.0" xmlns="http://www.w3.org/2000/svg"
 width="480.000000pt" height="69.000000pt" viewBox="0 0 480.000000 69.000000"
 preserveAspectRatio="xMidYMid meet">
<metadata>
Created by potrace 1.14, written by Peter Selinger 2001-2017
</metadata>
<g transform="translate(0.000000,69.000000) scale(0.100000,-0.100000)"
fill="#000000" stroke="none">
<path d="M0 345 l0 -345 240 0 240 0 0 80 0 80 -145 0 -145 0 0 49 0 50 46 3
46 3 0 80 0 80 -46 3 -46 3 0 50 0 49 145 0 145 0 0 80 0 80 -240 0 -240 0 0
-345z"/>
<path d="M750 345 l0 -185 141 0 c140 0 140 0 137 23 -3 21 -7 22 -116 25
l-113 3 3 52 3 52 98 3 c95 3 97 3 97 27 0 24 -2 24 -97 27 l-98 3 0 50 0 50
108 3 c106 3 107 3 107 27 l0 25 -135 0 -135 0 0 -185z"/>
<path d="M1540 375 c0 -94 4 -164 11 -179 12 -26 70 -53 89 -41 20 12 10 43
-15 49 l-25 6 0 160 0 160 -30 0 -30 0 0 -155z"/>
<path d="M1680 345 l0 -185 25 0 c25 0 25 1 25 89 0 106 18 141 75 141 52 0
65 -27 65 -137 0 -93 0 -93 25 -93 l25 0 0 111 c0 109 0 111 -29 140 -24 23
-38 29 -73 29 -24 0 -54 -7 -66 -16 l-22 -15 0 60 c0 58 -1 61 -25 61 l-25 0
0 -185z"/>
<path d="M2820 505 c0 -21 5 -25 30 -25 l30 0 0 -135 0 -135 -30 0 c-25 0 -30
-4 -30 -25 0 -25 1 -25 86 -25 83 0 85 1 82 23 -2 16 -11 23 -30 25 l-28 3 0
135 0 134 30 0 c25 0 30 4 30 25 0 25 -1 25 -85 25 -84 0 -85 0 -85 -25z"/>
<path d="M3590 480 c0 -33 -3 -40 -20 -40 -28 0 -28 -46 0 -53 17 -4 20 -15
22 -102 3 -93 4 -99 30 -118 20 -15 35 -18 62 -13 30 6 36 11 36 33 0 22 -3
24 -26 19 -44 -11 -54 7 -54 100 l0 84 40 0 c36 0 40 3 40 25 0 23 -4 25 -40
25 l-40 0 0 40 c0 36 -2 40 -25 40 -22 0 -25 -4 -25 -40z"/>
<path d="M3907 514 c-4 -4 -7 -22 -7 -41 0 -23 -5 -33 -15 -33 -9 0 -15 -9
-15 -25 0 -16 6 -25 15 -25 12 0 15 -15 15 -79 0 -99 12 -135 52 -152 40 -16
82 -2 86 30 3 21 1 23 -21 17 -51 -12 -57 -2 -57 95 l0 89 40 0 c36 0 40 3 40
25 0 22 -4 25 -39 25 -39 0 -40 1 -43 38 -2 28 -8 38 -23 40 -12 2 -24 0 -28
-4z"/>
<path d="M4380 482 c0 -31 -4 -41 -19 -45 -14 -3 -18 -11 -14 -26 3 -12 12
-21 19 -21 11 0 14 -19 14 -85 0 -46 5 -95 11 -109 25 -54 120 -59 127 -7 3
21 1 23 -21 17 -51 -12 -57 -2 -57 95 l0 89 40 0 c36 0 40 3 40 25 0 22 -4 25
-39 25 -39 0 -40 1 -43 38 -3 32 -7 37 -30 40 -26 3 -28 1 -28 -36z"/>
<path d="M1108 428 c-29 -10 -34 -23 -19 -47 6 -10 13 -11 29 -2 33 18 90 13
112 -9 33 -33 24 -40 -49 -40 -87 0 -122 -24 -124 -83 -2 -73 83 -118 154 -83
21 11 35 13 37 6 2 -5 15 -10 28 -10 24 0 24 1 24 100 0 110 -11 145 -51 166
-32 16 -101 17 -141 2z"/>
<path d="M1340 300 l0 -140 30 0 30 0 0 79 c0 70 3 83 25 110 15 16 38 31 53
33 21 2 28 9 30 32 4 28 3 29 -33 23 -21 -3 -46 -14 -56 -23 -18 -16 -19 -16
-19 4 0 18 -6 22 -30 22 l-30 0 0 -140z"/>
<path d="M2013 429 c-36 -11 -37 -12 -23 -39 9 -16 15 -18 36 -10 59 23 124 4
124 -36 0 -11 -15 -14 -64 -14 -55 0 -69 -4 -95 -26 -49 -41 -40 -108 19 -139
36 -19 77 -19 110 0 30 17 44 19 35 5 -4 -6 7 -10 24 -10 l31 0 0 93 c0 103
-17 153 -60 174 -29 15 -91 15 -137 2z"/>
<path d="M2260 300 l0 -140 25 0 c25 0 25 1 25 86 0 111 16 144 72 144 45 0
58 -31 58 -137 0 -93 0 -93 25 -93 25 0 25 1 25 86 0 111 16 144 72 144 45 0
58 -31 58 -137 0 -93 0 -93 25 -93 l25 0 0 111 c0 109 0 111 -29 140 -24 23
-38 29 -73 29 -27 0 -52 -8 -68 -19 -24 -19 -25 -19 -48 0 -30 23 -89 25 -120
3 -20 -14 -22 -14 -22 0 0 10 -9 16 -25 16 l-25 0 0 -140z"/>
<path d="M3030 300 l0 -140 25 0 c25 0 25 1 25 89 0 106 18 141 75 141 52 0
65 -27 65 -137 l0 -93 28 0 27 0 -5 116 c-5 112 -6 117 -33 140 -33 28 -100
33 -135 8 -20 -14 -22 -14 -22 0 0 10 -9 16 -25 16 l-25 0 0 -140z"/>
<path d="M3345 415 c-26 -25 -32 -63 -15 -95 6 -11 38 -29 71 -41 64 -24 79
-40 59 -64 -16 -20 -54 -19 -97 2 -30 14 -36 14 -44 2 -15 -24 -11 -29 37 -51
81 -35 164 -2 164 67 0 44 -17 62 -85 88 -45 17 -60 28 -60 43 0 16 7 19 45
18 25 0 53 -4 62 -8 12 -5 20 -1 28 14 10 18 7 22 -24 35 -55 23 -112 19 -141
-10z"/>
<path d="M4072 326 c3 -105 5 -117 27 -140 32 -34 84 -43 127 -22 19 8 34 11
34 6 0 -6 14 -10 30 -10 l31 0 -3 138 -3 137 -27 3 -28 3 0 -100 c0 -96 -1
-100 -26 -120 -33 -26 -55 -26 -85 -2 -22 17 -24 28 -27 120 -4 100 -4 101
-29 101 l-25 0 4 -114z"/>
<path d="M4598 424 c-33 -18 -68 -81 -68 -124 0 -71 50 -133 117 -146 43 -8
104 9 128 36 17 19 17 22 3 37 -15 14 -19 14 -44 -6 -37 -29 -88 -28 -119 4
-14 13 -25 31 -25 40 0 14 14 16 103 14 l102 -2 3 26 c5 39 -24 95 -60 117
-39 24 -101 26 -140 4z"/>
<path d="M390 346 l0 -86 45 0 46 0 -3 83 -3 82 -42 3 -43 3 0 -85z"/>
</g>
</svg>
