<!-- Created with Inkscape (http://www.inkscape.org/) -->
<svg xmlns:rdf="http://www.w3.org/1999/02/22-rdf-syntax-ns#" xmlns="http://www.w3.org/2000/svg" xml:space="preserve" height="414.45" width="971.36" version="1.1" xmlns:cc="http://creativecommons.org/ns#" xmlns:dc="http://purl.org/dc/elements/1.1/"><metadata><rdf:RDF><cc:Work rdf:about=""><dc:format>image/svg+xml</dc:format><dc:type rdf:resource="http://purl.org/dc/dcmitype/StillImage"/><dc:title/></cc:Work></rdf:RDF></metadata><g transform="matrix(1.25,0,0,-1.25,0,414.45)"><g fill-rule="nonzero" transform="scale(0.1,0.1)"><path fill="#469fdd" d="m2053.2,929.65c-18.35,127.22-50.55,252.42-92.13,375.09-28.88,84.7-60.22,168.95-93.55,252.91-14.98-15.51-29.63-31.28-43.68-47.59-56.08-62.95-103.67-132.25-143.46-206.06,44-124.57,74.91-253.38,92.35-383.16,34.47-248.04,26.07-497.41-3.64-741.54,69.05,5.097,136.95,14.988,203.41,29.39,42.36,108.59,70.98,221.97,85.54,336.53,16.01,127.88,13.4,257.27-4.84,384.43"/><path fill="#2c5bb0" d="m2346.6,452.13c18.96,50.512,35.99,101.63,50.15,153.35,28.58,103.31,45.9,209.05,47.89,314.52,2.14,105.56-11.75,210.12-36.51,313.27-24.43,103.39-61.27,205.19-90.47,313.23-27.14,98.03-49,202.58-49.95,309.7-61.7-35.63-121.95-72.87-179.19-113.69-45.49-31.3-89.29-64.67-130.89-100.19,38.91-99.94,76.66-201.07,106.43-305.42,37.13-129.12,66.41-261.86,78.16-397.02,12.19-134.96,7.66-271.86-16.23-405.04-19.15-107.33-50.98-211.71-92.47-311.57,89.46,23.441,175.89,55.031,258.43,94.171,7.19,20.321,16.5,39.727,24.55,59.418,10.55,24.922,20.49,50.032,30.1,75.27"/><path fill="#6c1b5d" d="m3046.8,1853.9c-16.69-59.69-37.53-116.94-56.71-173.32-18.83-56.53-37.6-111.57-52.86-166.83-30.12-110.39-46.63-222.05-46.24-337.69,0.03-57.69,3.69-116.18,12.16-174.44,4.22-29.15,9.37-58.252,15.33-87.291,1.87-9.14,3.93-18.14,5.94-27.148,98.48,162.06,167.45,345.58,198.13,544.28,32.66,211.56,19.37,423.05-36.35,623.3-6.18-68.3-20.75-136.14-39.4-200.86"/><path fill="#469fdd" d="m1066.2,2681.2c7.88-125.26,31.05-248.51,72-364.9,33.58-100.99,82.37-194.75,137.61-286.68,10.49,17,20.73,34.15,31.6,50.92,38.84,58.81,80.55,115.7,124.14,171.08,43.79,55.21,89.19,109.24,137.85,160.3,1.63,1.7,3.36,3.28,5,4.98-0.77,4.99-1.68,9.91-2.39,14.91-19.28,135.24-16.09,276.69,20.55,409.9,29.09,107.42,79.53,207.93,142.97,296.82-233.6,12.71-458.83-30.24-662.26-117.51-4.03-50.49-8.22-100.58-9.52-150.94-2.06-63.17-1.61-126.25,2.45-188.88"/><path fill="#2c5bb0" d="m1665.2,2824.2c-22.42-106.26-21.55-215.62-5.21-323.26,20.52,19.25,41.13,38.41,62.35,56.93,195.91,170.93,423.57,309.26,671.29,387.28-155.61,88.93-327.61,149.82-510.06,177.99-25.02,3.86-50.45,7.15-75.55,9.73-3.6,0.37-7.16,0.5-10.72,0.83-26.95-41.98-51.81-84.62-72.25-129.42-26.84-57.86-46.99-118.33-59.85-180.08"/><path fill="#d61359" d="m1263,536.41c-34.28,112.35-89.41,217.17-152.52,317.99-34.23,55.274-71.28,109.37-109.16,163.5-19.792-109.86-31.807-221.29-34.901-333.17-1.899-67.812-0.563-135.77,4.14-203.58,2.36-33.898,5.524-67.757,9.567-101.53,1.758-14.301,3.64-28.98,5.09-43.769,103.44-52.442,213.41-92.782,328.29-119.97-0.89,50.23-4.18,99.672-11.1,148.74-8.2,58.57-22.61,115.7-39.41,171.79"/><path fill="#d61359" d="m2454.5,2908.4c-122.84-43.59-239.83-100.83-348.68-171.63-113.59-73.19-218.16-159.49-315.33-252.96-36.23-34.95-70.85-71.5-104.67-108.73-11.52-12.67-23.28-25.11-34.51-37.99-16.79-19.14-33.22-38.58-49.62-58.04-27.05-32.1-53.64-64.54-78.98-97.99-40.94-53.58-79.42-109-116.28-165.45-21.12-31.76-41.38-64.13-61.09-96.79,54.75-84.64,112.05-169.52,165.1-258.95,41.56-70.53,80.54-143.58,114.69-218.99,32.81,51.87,69.49,101.25,110.12,147.1,26.92,30.21,55.36,58.84,84.79,86.28,30.12,28.08,61.33,54.85,93.57,80.16,36.51,28.65,74.14,55.63,112.61,80.9,80.9,51.63,164.68,96.72,249.42,138.14,12.11,87.42,36.96,172.61,73.65,250.73,46.98,104.67,109.29,199.31,176.58,288.12,33.51,44.57,68.59,87.64,104.61,129.69,21.57,24.84,43.31,49.63,65.7,73.68-73.97,72.97-154.96,137.4-241.68,192.72"/><path fill="#293984" d="m2963.5,1883.5c103.48,222.66,45.74,384.43,29.13,418.69-7.66,15.78-15.3,31.54-23.53,47.06-33.74,63.7-72.3,125.41-115.67,184.63-37.28,50.91-77.65,98.66-120.3,143.82-18.32-24.46-36.62-48.84-54.33-73.74-31.48-44.17-61.89-88.92-90.15-134.77-56.34-91.77-105.18-187.27-141.78-285.21-17.83-49.15-32.11-98.94-43.4-148.85-0.15-0.76-0.27-1.51-0.43-2.27-7.79-36.42-12.99-73.17-15.45-110.04-0.88-13.06-1.43-26.15-1.61-39.23-3.47-101.64,14.38-204.14,41.59-307.76,27.56-103.45,59.19-210.07,80.62-320.96,21.95-110.64,31.01-225.77,21.92-339.03-8.57-113.31-33.45-224.16-69.26-329.99-17.8-53.008-38.39-104.83-60.83-155.64-11.32-25.34-22.95-50.519-35.18-75.379-0.08-0.16-0.18-0.328-0.25-0.5,208.71,113.4,388.67,275.86,522.53,474.51-4.58,8.348-8.14,17.109-11.55,25.949-5.38,14.051-10.75,28.84-15.78,43.219-10.18,28.992-19.58,58.352-28.1,88.121-16.93,59.49-30.68,120.55-38.7,183.05-16.3,124.78-5.61,256.03,31.55,376.72,35.13,121.69,89.66,231.55,138.96,337.6"/><path fill="#57a334" d="m1719.2,339.31c-0.37,63.589-2.02,127.03-5.73,190.23-6.19,126.43-19.32,251.97-41.3,375.29-15.59,83.992-35.15,166.97-60.14,248.04-11.63,37.72-24.3,75.07-38.5,111.85-6.02,15.93-12.82,31.54-19.3,47.28-40.72,98.98-89.46,194.62-145.63,287.28-40.67,68.54-84.58,136.26-128.13,205.33-23.62,37.46-47.08,75.31-69.88,114.08-1.34,2.31-2.78,4.57-4.16,6.89-65.55,112.74-122.96,234.17-159.43,362.07-36.31,128.04-51.554,260.42-52.46,391.03-0.582,65.39,2.598,130.5,8.32,195.16,3.85,40.68,8.31,81.36,14.07,121.69-66.203-31.75-129.82-68.25-190.41-109.25-41.976-108.75-81.515-218.05-110.41-330.05-30.402-116.34-51.363-234.74-57.359-353.19-6.047-118.34,2.578-236.49,28.937-350.36,13.047-56.99,30.953-112.66,51.918-167.25,20.543-54.76,45.032-108.21,72.535-160.46,43.688-83.58,95.582-163.52,149.26-243.61,13.555-20.25,27.211-40.52,40.911-60.84,10.8-15.75,21.66-31.62,32.53-47.45,58.21-84.94,116.53-171.44,168.96-263.21,61.76-108.89,113.12-226.65,143.14-350.45,15.6-61.711,22.99-125.29,25.96-188.38,2.56-55.902,0.15-112.07-6.76-166.87,21.48-4.269,43.03-8.25,64.79-11.621,20.16-3.121,40.54-5.527,60.81-7.82,4.93-0.559,9.88-1.387,14.79-1.918,12.23-1.25,24.39-1.91,36.58-2.871,58.65-4.578,116.84-5.969,174.33-3.77,0.99,54.52,1.76,108.9,1.76,163.15"/><path fill="#1f6230" d="m927.16,368.62,0.008,0c-0.152,0.828-0.086,0.418-0.008,0"/><path fill="#1f6230" d="m927.17,368.62-0.008,0c0.066-0.43,0.145-0.859,0.008,0"/><path fill="#693617" d="m613.98,757.78c-13.011,74.071-34.257,146.24-61.074,216.2-53.648,140.15-128.16,271.78-201.72,408.02-36.55,68.23-72.007,138.39-101.27,212.23-27.34,68.87-49.773,140.37-67.352,212.8-47.671-471.58,130.98-913.15,448.26-1217.7-0.57,18.699-1.437,37.437-2.855,56.316-2.84,37.672-7.508,75.094-13.989,112.11"/><path fill="#8e9194" d="M1827.7,3306.7c-909.24,93.7-1725.2-569.8-1818.9-1479.1-93.672-909.18,569.87-1725.1,1479.1-1818.8,909.3-93.672,1725.2,569.83,1818.8,1479.1,93.7,909.2-569.8,1725.1-1479,1818.8zm-8.24-80.01c865.1-89.1,1496.3-865.4,1407.2-1730.6-89.1-865.09-865.4-1496.4-1730.5-1407.2-865.18,89.128-1496.5,865.44-1407.4,1730.5,89.126,865.1,865.47,1496.4,1730.6,1407.3"/><path fill="#8e9194" d="m4279.1,1489.4c-1.57,116.34-78.03,189.46-202.94,189.46-117.78,0-190.84-74.79-205.88-189.46h408.82zm-408.82-149.58c13.34-118.02,103-189.48,214.33-189.48,99.78,0,164.58,46.58,214.43,108.07l142.97-108.07c-93.06-114.64-210.91-159.54-337.28-159.54-240.99,0-433.84,167.88-433.84,418.79,0,250.99,192.85,418.81,433.84,418.81,222.67,0,373.8-156.24,373.8-433.75v-54.83h-608.25"/><path fill="#65686c" d="m4682.8,2187.4,209.48,0,0-987.12,500.23,0,0-189.52-709.71,0,0,1176.6"/><path fill="#65686c" d="m5540.4,1010.8,209.55,0,0,1176.6-209.55,0,0-1176.6z"/><path fill="#65686c" d="m6007.6,2187.4,759.46,0,0-189.51-550.08,0,0-309.06,518.48,0,0-189.47-518.48,0,0-488.6-209.38,0,0,1176.6"/><path fill="#65686c" d="m6961.4,2187.4,779.46,0,0-189.51-569.94,0,0-289.19,539.98,0,0-189.4-539.98,0,0-319.02,599.98,0,0-189.52-809.5,0,0,1176.6"/><path fill="#1f6230" d="m927.17,368.62c-5.887,34.43-11.563,72.238-15.703,106.96-8.321,69.434-13.188,139.33-14.75,209.35-3.086,140.1,7.125,280.62,29.328,419.36,0.894,5.62,1.937,11.22,2.863,16.86-7.664,10.93-15.355,21.79-22.992,32.81-70.891,100.27-138.8,205.43-196.21,318.03-28.648,56.27-54.426,114.44-76.023,174.39-21.227,60.07-37.621,122.01-49.446,184.67-23.726,125.39-27.5,253.77-14.121,378.9,22.832,216.1,88.988,421.23,173.73,615.95-339.86-244.67-592.39-778.84-506.12-985.16,29.207-69.86,64.601-136.86,102.96-202.51,38.442-65.65,77.289-131.64,114.7-199.67,74.472-135.75,146.34-279.49,188.59-434.89,21.254-77.408,35.473-156.87,42.243-236.6,3.297-39.879,4.64-79.851,4.027-119.66-0.293-19.82-1.172-39.84-2.406-59.871l-2.364-29.641c-0.632-5.347-1.464-10.679-2.511-16.007,74.953-65.403,156.6-123.67,244.2-173.27-0.078,0.418-0.144,0.828,0.008,0"/></g></g></svg>
