<?xml version="1.0" encoding="UTF-8" standalone="no"?>
<!-- Generator: Adobe Illustrator 18.0.0, SVG Export Plug-In . SVG Version: 6.00 Build 0)  -->

<svg
   xmlns:dc="http://purl.org/dc/elements/1.1/"
   xmlns:cc="http://creativecommons.org/ns#"
   xmlns:rdf="http://www.w3.org/1999/02/22-rdf-syntax-ns#"
   xmlns:svg="http://www.w3.org/2000/svg"
   xmlns="http://www.w3.org/2000/svg"
   xmlns:sodipodi="http://sodipodi.sourceforge.net/DTD/sodipodi-0.dtd"
   xmlns:inkscape="http://www.inkscape.org/namespaces/inkscape"
   version="1.1"
   id="Layer_1"
   x="0px"
   y="0px"
   width="1369.975"
   height="195"
   viewBox="0 0 1369.975 195"
   enable-background="new 0 0 1377.4 204"
   xml:space="preserve"
   inkscape:version="0.48.5 r10040"
   sodipodi:docname="Horizontal header.svg"><metadata
     id="metadata47"><rdf:RDF><cc:Work
         rdf:about=""><dc:format>image/svg+xml</dc:format><dc:type
           rdf:resource="http://purl.org/dc/dcmitype/StillImage" /></cc:Work></rdf:RDF></metadata><defs
     id="defs45" /><sodipodi:namedview
     pagecolor="#ffffff"
     bordercolor="#666666"
     borderopacity="1"
     objecttolerance="10"
     gridtolerance="10"
     guidetolerance="10"
     inkscape:pageopacity="0"
     inkscape:pageshadow="2"
     inkscape:window-width="640"
     inkscape:window-height="480"
     id="namedview43"
     showgrid="false"
     fit-margin-top="0"
     fit-margin-left="0"
     fit-margin-right="0"
     fit-margin-bottom="0"
     inkscape:zoom="0.26499201"
     inkscape:cx="686.575"
     inkscape:cy="99"
     inkscape:window-x="0"
     inkscape:window-y="31"
     inkscape:window-maximized="0"
     inkscape:current-layer="Layer_1" /><g
     id="g3"
     transform="translate(-2.1250122,-6)"><g
       id="g5"><path
         d="m 140.5,6 c -15.2,0 -29.4,5.9 -40.1,16.5 l -81.7,81.7 c -22.1,22.1 -22.1,58.1 0,80.2 10.7,10.7 24.9,16.6 40.1,16.6 15.2,0 29.4,-5.9 40.1,-16.5 l 81.7,-81.7 c 22.1,-22.1 22.1,-58.1 0,-80.2 C 169.9,11.9 155.7,6 140.5,6 z"
         id="path7"
         inkscape:connector-curvature="0"
         style="fill:#4d4d4d" /><g
         id="g9"><path
           d="m 190.5,44 c -3.3,-1.2 -6.9,-1.8 -10.6,-1.8 -17.3,0 -31.4,14.1 -31.4,31.4 0,15.2 10.8,27.8 25.1,30.7 l 4.6,-4.6 c 15.1,-15 19.2,-37 12.3,-55.7 z"
           id="path11"
           inkscape:connector-curvature="0"
           style="fill:#8aeb87" /><path
           d="M 67.5,115.3 C 60.7,96.8 81.3,72 114.5,57 107.8,47.8 102.6,38.3 99.1,29.3 L 21,107.4 c -16.4,16.4 -19.7,41.1 -10,60.8 -0.8,-5.6 -1.2,-11.6 -0.4,-18 0.1,-0.5 0.1,-0.9 0.2,-1.4 l 0,-0.3 0,-0.1 0,-0.1 0.1,-0.3 0.1,-0.6 0.1,-0.6 0.1,-0.3 c 0,-0.1 0,-0.2 0.1,-0.3 0.1,-0.5 0.2,-1 0.4,-1.5 0.2,-1 0.5,-1.9 0.8,-2.8 0.3,-0.9 0.6,-1.8 1,-2.7 1.4,-3.6 3.3,-7.1 5.8,-10.2 1.9,-2.4 4,-4.5 6.6,-6.4 0.1,-0.3 0.3,-0.6 0.5,-1 0.2,-0.4 0.5,-0.9 0.8,-1.3 0.3,-0.4 0.6,-0.9 1,-1.3 0.4,-0.4 0.7,-0.9 1.2,-1.3 0.2,-0.2 0.4,-0.4 0.7,-0.6 0.2,-0.2 0.5,-0.4 0.7,-0.6 1,-0.8 2,-1.5 3.2,-2 0.6,-0.3 1.2,-0.5 1.8,-0.7 0.6,-0.2 1.3,-0.4 1.9,-0.5 1.3,-0.3 2.6,-0.3 3.8,-0.2 1.2,0 2.4,0.1 3.6,0.1 1.2,0 2.3,-0.1 3.3,-0.3 1,-0.2 2,-0.5 2.8,-0.9 0.8,-0.4 1.5,-0.9 2.1,-1.4 0.6,-0.5 1,-1 1.3,-1.5 0.3,-0.5 0.4,-0.9 0.6,-1.1 0.1,-0.3 0.1,-0.4 0.1,-0.4 0,0 0,0.2 -0.1,0.4 -0.1,0.3 -0.2,0.7 -0.5,1.2 -0.3,0.5 -0.6,1 -1.2,1.6 -0.5,0.6 -1.2,1.1 -2.1,1.6 -0.8,0.5 -1.8,0.8 -2.9,1.1 -1.1,0.3 -2.2,0.4 -3.4,0.5 -1.2,0.1 -2.4,0.1 -3.6,0.2 -1.2,0.1 -2.4,0.2 -3.6,0.5 -0.6,0.1 -1.1,0.3 -1.7,0.5 -0.5,0.3 -1.1,0.5 -1.6,0.8 -1,0.5 -1.9,1.3 -2.8,2 -0.2,0.2 -0.4,0.4 -0.6,0.6 -0.2,0.2 -0.4,0.4 -0.5,0.6 -0.4,0.4 -0.7,0.8 -1,1.2 0,0 0,0.1 -0.1,0.1 0.1,0 0.2,-0.1 0.2,-0.1 0.5,-0.2 0.9,-0.5 1.4,-0.7 l 1.5,-0.6 c 0.2,-0.1 0.5,-0.2 0.7,-0.3 l 0.8,-0.2 1.5,-0.4 0.2,-0.1 c -0.1,0 0.2,-0.1 0.2,-0.1 l 0.1,0 0.3,-0.1 0.6,-0.1 c 0.2,0 0.5,-0.1 0.8,-0.1 l 0.8,-0.1 c 0.3,0 0.5,-0.1 0.8,-0.1 l 0.8,-0.1 c 4.1,-0.3 8.1,0.2 11.8,1.3 1.8,0.5 3.6,1.2 5.3,1.9 0.9,0.4 1.7,0.8 2.5,1.2 0.7,0.4 1.6,0.8 2.4,1.3 6.3,3.5 11.5,7.7 16.6,11.3 0.7,0.5 1.3,0.9 2,1.4 0.4,0.3 0.8,0.5 1.1,0.8 0.1,0 0.3,-0.1 0.4,-0.1 0.7,-0.1 1.6,-0.3 2.6,-0.3 1,-0.1 2.1,0 3.3,0.1 2.4,0.3 5,1 7.7,2.1 1.4,0.5 2.7,1.1 4.1,1.8 1.4,0.6 2.7,1.2 4.1,1.8 1.4,0.6 2.8,1 4.2,1.4 1.4,0.4 2.8,0.6 4.2,0.7 1.4,0.1 2.7,0 4,-0.2 1.3,-0.2 2.5,-0.4 3.6,-0.7 2.2,-0.5 4,-1.2 5.3,-1.6 1.3,-0.4 2,-0.7 2,-0.7 0,0 -0.7,0.3 -1.9,0.8 -1.2,0.5 -3,1.2 -5.2,1.9 -2.2,0.7 -4.8,1.3 -7.7,1.3 -1.4,0 -3,-0.2 -4.4,-0.5 -1.5,-0.3 -3,-0.7 -4.4,-1.2 -1.5,-0.5 -2.9,-1 -4.3,-1.6 -1.4,-0.5 -2.8,-1.1 -4.1,-1.5 -2.6,-0.9 -5.2,-1.5 -7.3,-1.6 -1.1,-0.1 -2.1,-0.1 -2.9,0 -0.1,0 -0.2,0 -0.3,0 0.6,0.4 1.1,0.7 1.7,1.1 0.6,0.4 1.3,0.8 1.9,1.2 0.6,0.4 1.3,0.7 1.9,1.1 0.6,0.4 1.3,0.7 1.9,1.1 0.6,0.3 1.3,0.7 1.9,1 5.1,2.7 10,5 14.7,6.7 4.7,1.8 9.2,3 13.2,3.8 0.5,0.1 1.1,0.2 1.6,0.3 l 19,-19 c -0.2,-2 -0.4,-3.9 -0.6,-6 -35.6,9.8 -68,4.1 -74.7,-14.5 z"
           id="path13"
           inkscape:connector-curvature="0"
           style="fill:#fff09f" /><path
           d="m 107.9,153.3 c -5,-1.3 -10.3,-3.2 -15.8,-5.5 -0.7,-0.3 -1.4,-0.6 -2.1,-0.9 -0.7,-0.3 -1.4,-0.6 -2.1,-1 -0.7,-0.3 -1.4,-0.6 -2.1,-1 -0.7,-0.3 -1.4,-0.7 -2.1,-1 -0.7,-0.4 -1.4,-0.7 -2.1,-1.1 -0.7,-0.4 -1.4,-0.8 -2.1,-1.1 -0.7,-0.4 -1.4,-0.8 -2.1,-1.1 -0.7,-0.4 -1.4,-0.8 -2.1,-1.2 -4.2,-2.4 -8.2,-4.9 -12.4,-7.1 0.5,0.8 1,1.7 1.5,2.5 1.7,2.7 3.6,5.4 5.4,7.9 1.8,2.4 3.6,4.6 5.2,6.5 0.8,0.9 1.6,1.7 2.3,2.3 0.8,0.6 1.5,1.1 2.1,1.4 0.6,0.3 1.2,0.5 1.5,0.6 0.4,0.1 0.6,0.1 0.6,0.1 0,0 -0.2,0 -0.6,-0.1 -0.4,-0.1 -0.9,-0.2 -1.6,-0.5 -0.7,-0.3 -1.4,-0.7 -2.2,-1.3 -0.8,-0.6 -1.6,-1.4 -2.5,-2.3 -1.7,-1.8 -3.6,-3.9 -5.6,-6.2 -2,-2.4 -4,-5 -5.8,-7.6 -0.9,-1.3 -1.8,-2.7 -2.7,-4.1 -0.1,-0.2 -0.2,-0.3 -0.3,-0.5 -0.6,-0.3 -1.3,-0.6 -1.9,-0.9 -0.7,-0.3 -1.3,-0.6 -2.2,-0.9 -0.7,-0.3 -1.4,-0.5 -2.1,-0.7 -1.4,-0.5 -2.9,-0.8 -4.3,-1.1 -2.9,-0.5 -5.8,-0.6 -8.4,-0.1 l -0.5,0.1 c -0.2,0 -0.3,0.1 -0.5,0.1 l -0.4,0.1 c -0.1,0 -0.3,0.1 -0.5,0.1 l -0.6,0.2 -0.3,0.1 -0.1,0 c -0.1,0 0.2,-0.1 0.1,0 l -0.1,0 -0.9,0.4 -0.4,0.2 c -0.1,0.1 -0.3,0.2 -0.4,0.2 l -0.8,0.4 c -0.3,0.1 -0.5,0.3 -0.8,0.5 -0.3,0.2 -0.5,0.3 -0.8,0.5 -2.1,1.5 -3.9,3.5 -5.3,5.8 -1.5,2.3 -2.6,4.8 -3.3,7.4 -0.2,0.7 -0.4,1.3 -0.5,2 -0.1,0.7 -0.3,1.3 -0.3,1.9 l 0,0.1 c 0.1,-0.1 0.2,-0.2 0.2,-0.2 0.9,-0.9 2.1,-1.6 3.4,-2 1.3,-0.4 2.6,-0.4 3.9,-0.4 l 0.9,0 0.4,0 0.5,0 c 0.6,0 1.2,-0.1 1.8,-0.2 1.2,-0.2 2.3,-0.5 3.4,-0.9 1.1,-0.4 2,-0.9 3,-1.4 0.9,-0.6 1.7,-1.1 2.4,-1.7 0.7,-0.6 1.3,-1.2 1.8,-1.8 0.5,-0.6 0.9,-1.1 1.2,-1.5 0.3,-0.4 0.5,-0.8 0.7,-1.1 0.1,-0.2 0.2,-0.4 0.2,-0.4 0,0 -0.1,0.1 -0.2,0.4 -0.1,0.3 -0.3,0.6 -0.6,1.1 -0.3,0.5 -0.7,1 -1.1,1.6 -0.5,0.6 -1,1.3 -1.7,1.9 -0.7,0.7 -1.5,1.3 -2.3,1.9 -0.9,0.6 -1.9,1.2 -3,1.7 -1.1,0.5 -2.3,0.9 -3.5,1.2 -0.6,0.1 -1.3,0.2 -1.9,0.3 l -0.5,0.1 -0.5,0 -0.9,0 c -1.2,0.1 -2.4,0.1 -3.4,0.6 -1,0.4 -1.9,1 -2.6,1.8 -0.7,0.7 -1.3,1.6 -1.7,2.5 0,0.1 -0.1,0.2 -0.1,0.2 l 0,0.2 c -0.1,5.4 0.8,10.8 2.2,16 1.4,5.2 3.2,10.2 4.9,15.1 1.2,3.5 2.4,6.8 3.4,9.8 19.7,9.6 44.3,6.2 60.7,-10.1 L 122,156 c -0.1,0 -0.2,0 -0.3,0 -4.1,-0.5 -8.8,-1.3 -13.8,-2.7 z"
           id="path15"
           inkscape:connector-curvature="0"
           style="fill:#ff8ab1" /></g></g><g
       id="g17"><path
         d="m 127.5,73.5 c 0,-29.1 18.6,-47 46.6,-52.4 0,0 -0.8,-0.7 -0.8,-0.7 -2,-1.5 -3.4,-2.4 -5.5,-3.5 -29.1,5.8 -46.4,27.5 -46.4,57.4 0,23.2 10.9,41.2 31.1,50.9 l 4.6,-4.5 C 137.3,111.4 127.5,95.5 127.5,73.5 z"
         id="path19"
         inkscape:connector-curvature="0"
         style="fill:#4ab0e2" /></g></g><g
     id="g21"
     transform="translate(-2.1250122,-6)"><path
       d="m 215.2,37.1 h 35.1 l 55.8,81.1 V 37.1 h 38.2 V 182.5 H 311.4 L 253.4,99 v 83.5 H 215.2 V 37.1 z"
       id="path23"
       inkscape:connector-curvature="0"
       style="fill:#4d4d4d" /><path
       d="m 440.4,186 c -10.9,0 -21,-1.9 -30.2,-5.8 -9.2,-3.9 -17.2,-9.2 -24,-15.9 -6.8,-6.8 -12,-14.8 -15.8,-24.2 -3.8,-9.4 -5.7,-19.6 -5.7,-30.6 0,-11 1.9,-21.3 5.7,-30.6 3.8,-9.4 9,-17.4 15.8,-24.2 6.8,-6.8 14.8,-12 24,-15.8 9.2,-3.8 19.3,-5.7 30.2,-5.7 10.9,0 21,1.9 30.3,5.7 9.3,3.8 17.3,9 24,15.8 6.7,6.8 11.9,14.8 15.7,24.2 3.8,9.4 5.7,19.6 5.7,30.6 0,11 -1.9,21.3 -5.7,30.6 -3.8,9.4 -9,17.4 -15.7,24.2 -6.7,6.8 -14.7,12.1 -24,15.9 -9.3,3.9 -19.4,5.8 -30.3,5.8 z m 0,-36.2 c 5.7,0 10.7,-1.1 15.2,-3.2 4.4,-2.1 8.2,-5 11.2,-8.6 3.1,-3.6 5.4,-7.9 7,-12.9 1.6,-4.9 2.4,-10.2 2.4,-15.7 0,-5.5 -0.8,-10.8 -2.4,-15.7 -1.6,-4.9 -3.9,-9.2 -7,-12.9 -3.1,-3.6 -6.8,-6.5 -11.2,-8.6 -4.4,-2.1 -9.5,-3.2 -15.2,-3.2 -5.7,0 -10.7,1.1 -15.2,3.2 -4.4,2.1 -8.2,5 -11.2,8.6 -3.1,3.6 -5.4,7.9 -7,12.9 -1.6,4.9 -2.4,10.2 -2.4,15.7 0,5.5 0.8,10.8 2.4,15.7 1.6,4.9 3.9,9.2 7,12.9 3.1,3.6 6.8,6.5 11.2,8.6 4.5,2.1 9.5,3.2 15.2,3.2 z"
       id="path25"
       inkscape:connector-curvature="0"
       style="fill:#4d4d4d" /><path
       d="m 671.3,155.5 c -16.4,20.5 -38,30.7 -64.8,30.7 -11.2,0 -21.4,-1.9 -30.7,-5.7 -9.3,-3.8 -17.3,-9 -23.9,-15.7 -6.6,-6.7 -11.8,-14.7 -15.5,-24 -3.7,-9.3 -5.6,-19.5 -5.6,-30.7 0,-11 1.8,-21.3 5.5,-30.6 3.6,-9.4 8.8,-17.5 15.5,-24.4 6.7,-6.9 14.7,-12.3 24,-16.1 9.3,-3.9 19.5,-5.8 30.7,-5.8 12.6,0 24.3,2.1 35.1,6.3 10.8,4.2 19.8,11.6 27.3,22 l -25.5,25.7 c -4.1,-5.5 -8.9,-10 -14.6,-13.3 -5.7,-3.3 -12.1,-5 -19.4,-5 -6.1,0 -11.6,1 -16.4,3.1 -4.8,2 -8.8,4.9 -12.1,8.5 -3.3,3.6 -5.8,7.9 -7.5,12.8 -1.7,4.9 -2.6,10.1 -2.6,15.8 0,5.8 0.9,11.2 2.7,16.1 1.8,4.9 4.4,9.2 7.7,12.9 3.3,3.6 7.4,6.5 12.1,8.5 4.7,2 10,3.1 15.8,3.1 8.4,0 15.3,-1.5 20.6,-4.5 5.3,-3 10.5,-7.7 15.6,-14.1 l 26,24.4 z"
       id="path27"
       inkscape:connector-curvature="0"
       style="fill:#4d4d4d" /><path
       d="m 729.1,37.1 h 44.3 l 51.5,145.4 h -41.6 l -9.4,-30.1 h -48.6 l -9.6,30.1 H 675.8 L 729.1,37.1 z m 36.8,87.2 -16.1,-53.4 -16.8,53.4 h 32.9 z"
       id="path29"
       inkscape:connector-curvature="0"
       style="fill:#4d4d4d" /><path
       d="m 851.4,136.5 c 4.1,4.1 9.4,7.8 15.9,11.1 6.5,3.3 13.7,5 21.6,5 1.9,0 3.9,-0.2 5.9,-0.5 2,-0.4 3.8,-1 5.5,-1.9 1.6,-0.9 2.9,-2 3.9,-3.5 1,-1.5 1.5,-3.3 1.5,-5.7 0,-3.8 -1.9,-6.9 -5.8,-9.4 -3.9,-2.5 -9.5,-4.9 -16.9,-7.4 l -8.1,-2.6 c -4.5,-1.5 -9,-3.3 -13.6,-5.7 -4.6,-2.3 -8.7,-5.1 -12.3,-8.4 -3.6,-3.3 -6.6,-7.1 -8.8,-11.6 -2.3,-4.4 -3.4,-9.6 -3.4,-15.6 0,-6.7 1.2,-12.9 3.7,-18.6 2.5,-5.7 6.1,-10.8 10.8,-15 4.7,-4.3 10.6,-7.6 17.6,-10 7,-2.4 15,-3.6 24.2,-3.6 7.1,0 13.6,0.7 19.4,2 5.8,1.3 10.9,2.9 15.3,4.8 4.4,1.9 8.1,3.9 11.1,6.1 3.1,2.2 5.4,4.1 7,5.9 l -19.6,24.9 c -5.1,-3.8 -10.4,-6.9 -15.9,-9.3 -5.5,-2.4 -11.2,-3.6 -17,-3.6 -1.9,0 -3.8,0.2 -5.7,0.7 -1.9,0.4 -3.6,1.1 -5.1,2 -1.5,0.9 -2.8,2 -3.7,3.4 -0.9,1.4 -1.4,3.1 -1.4,5.1 0,2.2 0.5,4.1 1.6,5.7 1.1,1.6 2.6,3 4.5,4.1 1.9,1.2 4.2,2.2 6.9,3.2 2.7,0.9 5.6,1.9 8.6,2.9 l 7,2.2 c 4.9,1.6 10,3.5 15,5.6 5.1,2.1 9.7,4.9 13.7,8.5 4.1,3.6 7.4,8 10,13.3 2.6,5.3 3.9,11.8 3.9,19.5 0,6.7 -1.6,12.9 -4.7,18.5 -3.1,5.7 -7.3,10.5 -12.6,14.6 -5.3,4.1 -11.6,7.2 -18.8,9.5 -7.2,2.3 -14.9,3.4 -23,3.4 -14.5,0 -26.7,-1.9 -36.5,-5.8 -9.8,-3.9 -18.1,-9 -25,-15.6 l 23.3,-28.2 z"
       id="path31"
       inkscape:connector-curvature="0"
       style="fill:#4d4d4d" /><path
       d="m 979,136.5 c 4.1,4.1 9.4,7.8 15.9,11.1 6.5,3.3 13.7,5 21.6,5 1.9,0 3.9,-0.2 5.9,-0.5 2,-0.4 3.8,-1 5.5,-1.9 1.6,-0.9 2.9,-2 3.9,-3.5 1,-1.5 1.5,-3.3 1.5,-5.7 0,-3.8 -1.9,-6.9 -5.8,-9.4 -3.9,-2.5 -9.5,-4.9 -16.9,-7.4 l -8.1,-2.6 c -4.5,-1.5 -9,-3.3 -13.6,-5.7 -4.6,-2.3 -8.7,-5.1 -12.3,-8.4 -3.6,-3.3 -6.6,-7.1 -8.8,-11.6 -2.3,-4.4 -3.4,-9.6 -3.4,-15.6 0,-6.7 1.2,-12.9 3.7,-18.6 2.5,-5.7 6.1,-10.8 10.8,-15 4.7,-4.3 10.6,-7.6 17.6,-10 7,-2.4 15,-3.6 24.2,-3.6 7.1,0 13.6,0.7 19.4,2 5.8,1.3 10.9,2.9 15.3,4.8 4.4,1.9 8.1,3.9 11.1,6.1 3.1,2.2 5.4,4.1 7,5.9 l -19.6,24.9 c -5.1,-3.8 -10.4,-6.9 -15.9,-9.3 -5.5,-2.4 -11.2,-3.6 -17,-3.6 -1.9,0 -3.8,0.2 -5.7,0.7 -1.9,0.4 -3.6,1.1 -5.1,2 -1.5,0.9 -2.8,2 -3.7,3.4 -0.9,1.4 -1.4,3.1 -1.4,5.1 0,2.2 0.5,4.1 1.6,5.7 1.1,1.6 2.6,3 4.5,4.1 1.9,1.2 4.2,2.2 6.9,3.2 2.7,0.9 5.6,1.9 8.6,2.9 l 7,2.2 c 4.9,1.6 10,3.5 15,5.6 5.1,2.1 9.7,4.9 13.7,8.5 4.1,3.6 7.4,8 10,13.3 2.6,5.3 3.9,11.8 3.9,19.5 0,6.7 -1.6,12.9 -4.7,18.5 -3.1,5.7 -7.3,10.5 -12.6,14.6 -5.3,4.1 -11.6,7.2 -18.8,9.5 -7.2,2.3 -14.9,3.4 -23,3.4 -14.5,0 -26.7,-1.9 -36.5,-5.8 -9.8,-3.9 -18.1,-9 -25,-15.6 L 979,136.5 z"
       id="path33"
       inkscape:connector-curvature="0"
       style="fill:#4d4d4d" /><path
       d="m 1098,170.7 c 0,-4.2 0.9,-8 2.7,-11.3 1.8,-3.3 4,-6.4 6.7,-9.1 2.7,-2.7 5.6,-5.2 8.8,-7.5 3.2,-2.3 6.1,-4.4 8.8,-6.4 2.7,-2 4.9,-3.9 6.7,-5.7 1.8,-1.8 2.7,-3.8 2.7,-5.7 0,-1.8 -0.8,-3.5 -2.3,-5 -1.5,-1.5 -3.9,-2.3 -7.1,-2.3 -1.7,0 -3.3,0.3 -4.7,0.9 -1.4,0.6 -2.7,1.3 -3.8,2.2 -1.1,0.9 -2.1,1.8 -2.8,2.8 -0.8,1 -1.4,1.9 -1.9,2.6 l -15.7,-10.8 c 1.3,-2.1 2.9,-4.2 4.8,-6.2 1.9,-2 4.2,-3.7 6.8,-5.2 2.6,-1.5 5.6,-2.7 8.9,-3.6 3.3,-0.9 7.1,-1.4 11.2,-1.4 4.5,0 8.6,0.7 12.1,2.1 3.5,1.4 6.5,3.2 8.8,5.5 2.4,2.3 4.2,4.8 5.4,7.7 1.2,2.9 1.9,5.8 1.9,8.8 0,3.7 -0.8,7 -2.3,10 -1.5,3 -3.5,5.7 -5.9,8.1 -2.4,2.4 -4.9,4.7 -7.7,6.6 -2.8,2 -5.4,3.8 -7.8,5.6 -2.4,1.8 -4.4,3.4 -6,5 -1.6,1.6 -2.5,3.2 -2.6,4.7 h 32.6 v 19.3 H 1098 v -11.7 z"
       id="path35"
       inkscape:connector-curvature="0"
       style="fill:#999999" /><path
       d="m 1200.7,184.6 c -5.3,0 -10,-1 -14,-3.1 -4,-2.1 -7.4,-5 -10.1,-8.8 -2.7,-3.8 -4.7,-8.3 -6.1,-13.5 -1.4,-5.2 -2.1,-11 -2.1,-17.4 0,-6.3 0.7,-12.1 2.1,-17.4 1.4,-5.2 3.4,-9.7 6.1,-13.5 2.7,-3.8 6.1,-6.7 10.1,-8.8 4,-2.1 8.7,-3.1 14,-3.1 5.7,0 10.5,1 14.6,3.1 4.1,2.1 7.4,5 10,8.8 2.6,3.8 4.5,8.3 5.7,13.5 1.2,5.2 1.9,11 1.9,17.4 0,6.4 -0.6,12.1 -1.9,17.4 -1.2,5.2 -3.2,9.7 -5.7,13.5 -2.6,3.8 -5.9,6.7 -10,8.8 -4,2 -8.9,3.1 -14.6,3.1 z m 0,-19.9 c 2.1,0 3.7,-0.6 5,-1.8 1.3,-1.2 2.3,-2.8 3.1,-4.9 0.8,-2.1 1.3,-4.5 1.6,-7.3 0.3,-2.8 0.5,-5.8 0.5,-8.9 0,-3.2 -0.2,-6.2 -0.5,-8.9 -0.3,-2.8 -0.8,-5.2 -1.6,-7.3 -0.8,-2.1 -1.8,-3.7 -3.1,-4.9 -1.3,-1.2 -3,-1.8 -5,-1.8 -2.1,0 -3.8,0.6 -5.1,1.8 -1.3,1.2 -2.4,2.8 -3.1,4.9 -0.7,2.1 -1.2,4.5 -1.5,7.3 -0.3,2.8 -0.5,5.8 -0.5,8.9 0,3.2 0.1,6.2 0.5,8.9 0.3,2.8 0.8,5.2 1.5,7.3 0.7,2.1 1.8,3.7 3.1,4.9 1.4,1.2 3.1,1.8 5.1,1.8 z"
       id="path37"
       inkscape:connector-curvature="0"
       style="fill:#999999" /><path
       d="m 1249.8,164 h 14.2 v -38.9 l -11.5,6.2 -9.3,-16.5 24.3,-13.4 h 17.4 V 164 h 13.1 v 18.5 h -48.3 V 164 z"
       id="path39"
       inkscape:connector-curvature="0"
       style="fill:#999999" /><path
       d="m 1322.4,158.4 c 2.3,2.1 4.8,3.9 7.4,5.3 2.6,1.4 5.5,2.1 8.7,2.1 4.2,0 7.3,-1.1 9.3,-3.3 2,-2.2 3,-4.6 3,-7.3 0,-1.4 -0.3,-2.7 -0.8,-4 -0.5,-1.3 -1.3,-2.4 -2.3,-3.5 -1,-1.1 -2.3,-1.9 -3.9,-2.5 -1.5,-0.6 -3.3,-1 -5.3,-1 -1.5,0 -3.4,0.2 -5.5,0.6 -2.1,0.4 -4.1,1.1 -5.9,2 l -9.3,-6.8 6,-38.6 h 45.4 v 18.4 h -31 l -1.5,10.3 c 0.6,-0.2 1.8,-0.3 3.5,-0.5 1.7,-0.2 3.1,-0.3 4.2,-0.3 4,0 7.7,0.6 11.1,1.9 3.4,1.2 6.3,3 8.8,5.2 2.4,2.2 4.4,5 5.7,8.2 1.4,3.3 2.1,6.9 2.1,10.8 0,3.9 -0.7,7.7 -2.1,11.2 -1.4,3.5 -3.4,6.6 -6.1,9.3 -2.7,2.7 -6,4.8 -9.9,6.3 -3.9,1.5 -8.4,2.3 -13.6,2.3 -6.6,0 -12.2,-1.1 -16.9,-3.2 -4.7,-2.1 -8.9,-4.9 -12.5,-8.3 l 11.4,-14.6 z"
       id="path41"
       inkscape:connector-curvature="0"
       style="fill:#999999" /></g></svg>