<?xml version="1.0" encoding="utf-8"?>
<!-- Generator: Adobe Illustrator 21.0.2, SVG Export Plug-In . SVG Version: 6.00 Build 0)  -->
<svg version="1.1"
	 id="Layer_1" inkscape:version="0.48.5 r10040" sodipodi:docname="Horizontal header.svg" xmlns:cc="http://creativecommons.org/ns#" xmlns:dc="http://purl.org/dc/elements/1.1/" xmlns:inkscape="http://www.inkscape.org/namespaces/inkscape" xmlns:rdf="http://www.w3.org/1999/02/22-rdf-syntax-ns#" xmlns:sodipodi="http://sodipodi.sourceforge.net/DTD/sodipodi-0.dtd" xmlns:svg="http://www.w3.org/2000/svg"
	 xmlns="http://www.w3.org/2000/svg" xmlns:xlink="http://www.w3.org/1999/xlink" x="0px" y="0px" viewBox="0 0 1370 195"
	 style="enable-background:new 0 0 1370 195;" xml:space="preserve">
<style type="text/css">
	.st0{fill:#4D4D4D;}
	.st1{fill:#8AEB87;}
	.st2{fill:#FFF09F;}
	.st3{fill:#FF8AB1;}
	.st4{fill:#4AB0E2;}
</style>
<sodipodi:namedview  bordercolor="#666666" borderopacity="1" fit-margin-bottom="0" fit-margin-left="0" fit-margin-right="0" fit-margin-top="0" gridtolerance="10" guidetolerance="10" id="namedview43" inkscape:current-layer="Layer_1" inkscape:cx="686.575" inkscape:cy="99" inkscape:pageopacity="0" inkscape:pageshadow="2" inkscape:window-height="480" inkscape:window-maximized="0" inkscape:window-width="640" inkscape:window-x="0" inkscape:window-y="31" inkscape:zoom="0.26499201" objecttolerance="10" pagecolor="#ffffff" showgrid="false">
	</sodipodi:namedview>
<g id="g3" transform="translate(-2.1250122,-6)">
	<g id="g5">
		<path id="path7" inkscape:connector-curvature="0" class="st0" d="M155.8,8.2c-15,0-29,5.8-39.5,16.3l-80.5,80.5
			c-21.8,21.8-21.8,57.3,0,79.1c10.5,10.5,24.5,16.4,39.5,16.4s29-5.8,39.5-16.3l80.5-80.5c21.8-21.8,21.8-57.3,0-79.1
			C184.8,14.1,170.8,8.2,155.8,8.2z"/>
		<g id="g9">
			<path id="path11" inkscape:connector-curvature="0" class="st1" d="M205.1,45.7c-3.3-1.2-6.8-1.8-10.4-1.8c-17.1,0-31,13.9-31,31
				c0,15,10.6,27.4,24.7,30.3l4.5-4.5C207.9,85.8,211.9,64.1,205.1,45.7L205.1,45.7z"/>
			<path id="path13" inkscape:connector-curvature="0" class="st2" d="M83.9,116c-6.7-18.2,13.6-42.7,46.3-57.5
				c-6.6-9.1-11.7-18.4-15.2-27.3l-77,77c-16.2,16.2-19.4,40.5-9.9,59.9c-0.8-5.5-1.2-11.4-0.4-17.7c0.1-0.5,0.1-0.9,0.2-1.4v-0.3
				v-0.1v-0.1l0.1-0.3l0.1-0.6l0.1-0.6l0.1-0.3c0-0.1,0-0.2,0.1-0.3c0.1-0.5,0.2-1,0.4-1.5c0.2-1,0.5-1.9,0.8-2.8
				c0.3-0.9,0.6-1.8,1-2.7c1.4-3.5,3.3-7,5.7-10.1c1.9-2.4,3.9-4.4,6.5-6.3c0.1-0.3,0.3-0.6,0.5-1c0.2-0.4,0.5-0.9,0.8-1.3
				s0.6-0.9,1-1.3c0.4-0.4,0.7-0.9,1.2-1.3c0.2-0.2,0.4-0.4,0.7-0.6c0.2-0.2,0.5-0.4,0.7-0.6c1-0.8,2-1.5,3.2-2
				c0.6-0.3,1.2-0.5,1.8-0.7c0.6-0.2,1.3-0.4,1.9-0.5c1.3-0.3,2.6-0.3,3.7-0.2c1.2,0,2.4,0.1,3.5,0.1c1.2,0,2.3-0.1,3.3-0.3
				c1-0.2,2-0.5,2.8-0.9c0.8-0.4,1.5-0.9,2.1-1.4c0.6-0.5,1-1,1.3-1.5s0.4-0.9,0.6-1.1c0.1-0.3,0.1-0.4,0.1-0.4s0,0.2-0.1,0.4
				c-0.1,0.3-0.2,0.7-0.5,1.2s-0.6,1-1.2,1.6c-0.5,0.6-1.2,1.1-2.1,1.6c-0.8,0.5-1.8,0.8-2.9,1.1s-2.2,0.4-3.4,0.5s-2.4,0.1-3.5,0.2
				c-1.2,0.1-2.4,0.2-3.5,0.5c-0.6,0.1-1.1,0.3-1.7,0.5c-0.5,0.3-1.1,0.5-1.6,0.8c-1,0.5-1.9,1.3-2.8,2c-0.2,0.2-0.4,0.4-0.6,0.6
				c-0.2,0.2-0.4,0.4-0.5,0.6c-0.4,0.4-0.7,0.8-1,1.2c0,0,0,0.1-0.1,0.1c0.1,0,0.2-0.1,0.2-0.1c0.5-0.2,0.9-0.5,1.4-0.7l1.5-0.6
				c0.2-0.1,0.5-0.2,0.7-0.3l0.8-0.2l1.5-0.4l0.2-0.1c-0.1,0,0.2-0.1,0.2-0.1H53l0.3-0.1l0.6-0.1c0.2,0,0.5-0.1,0.8-0.1l0.8-0.1
				c0.3,0,0.5-0.1,0.8-0.1l0.8-0.1c4-0.3,8,0.2,11.6,1.3c1.8,0.5,3.5,1.2,5.2,1.9c0.9,0.4,1.7,0.8,2.5,1.2c0.7,0.4,1.6,0.8,2.4,1.3
				c6.2,3.5,11.3,7.6,16.4,11.1c0.7,0.5,1.3,0.9,2,1.4c0.4,0.3,0.8,0.5,1.1,0.8c0.1,0,0.3-0.1,0.4-0.1c0.7-0.1,1.6-0.3,2.6-0.3
				c1-0.1,2.1,0,3.3,0.1c2.4,0.3,4.9,1,7.6,2.1c1.4,0.5,2.7,1.1,4,1.8c1.4,0.6,2.7,1.2,4,1.8c1.4,0.6,2.8,1,4.1,1.4
				c1.4,0.4,2.8,0.6,4.1,0.7c1.4,0.1,2.7,0,3.9-0.2c1.3-0.2,2.5-0.4,3.5-0.7c2.2-0.5,3.9-1.2,5.2-1.6c1.3-0.4,2-0.7,2-0.7
				s-0.7,0.3-1.9,0.8c-1.2,0.5-3,1.2-5.1,1.9c-2.2,0.7-4.7,1.3-7.6,1.3c-1.4,0-3-0.2-4.3-0.5c-1.5-0.3-3-0.7-4.3-1.2
				c-1.5-0.5-2.9-1-4.2-1.6c-1.4-0.5-2.8-1.1-4-1.5c-2.6-0.9-5.1-1.5-7.2-1.6c-1.1-0.1-2.1-0.1-2.9,0c-0.1,0-0.2,0-0.3,0
				c0.6,0.4,1.1,0.7,1.7,1.1c0.6,0.4,1.3,0.8,1.9,1.2c0.6,0.4,1.3,0.7,1.9,1.1c0.6,0.4,1.3,0.7,1.9,1.1c0.6,0.3,1.3,0.7,1.9,1
				c5,2.7,9.9,4.9,14.5,6.6c4.6,1.8,9.1,3,13,3.7c0.5,0.1,1.1,0.2,1.6,0.3l18.7-18.7c-0.2-2-0.4-3.8-0.6-5.9
				C122.4,140,90.5,134.3,83.9,116L83.9,116z"/>
			<path id="path15" inkscape:connector-curvature="0" class="st3" d="M123.7,153.5c-4.9-1.3-10.2-3.2-15.6-5.4
				c-0.7-0.3-1.4-0.6-2.1-0.9c-0.7-0.3-1.4-0.6-2.1-1c-0.7-0.3-1.4-0.6-2.1-1c-0.7-0.3-1.4-0.7-2.1-1c-0.7-0.4-1.4-0.7-2.1-1.1
				c-0.7-0.4-1.4-0.8-2.1-1.1c-0.7-0.4-1.4-0.8-2.1-1.1c-0.7-0.4-1.4-0.8-2.1-1.2c-4.1-2.4-8.1-4.8-12.2-7c0.5,0.8,1,1.7,1.5,2.5
				c1.7,2.7,3.5,5.3,5.3,7.8c1.8,2.4,3.5,4.5,5.1,6.4c0.8,0.9,1.6,1.7,2.3,2.3c0.8,0.6,1.5,1.1,2.1,1.4c0.6,0.3,1.2,0.5,1.5,0.6
				c0.4,0.1,0.6,0.1,0.6,0.1s-0.2,0-0.6-0.1s-0.9-0.2-1.6-0.5c-0.7-0.3-1.4-0.7-2.2-1.3c-0.8-0.6-1.6-1.4-2.5-2.3
				c-1.7-1.8-3.5-3.8-5.5-6.1c-2-2.4-3.9-4.9-5.7-7.5c-0.9-1.3-1.8-2.7-2.7-4c-0.1-0.2-0.2-0.3-0.3-0.5c-0.6-0.3-1.3-0.6-1.9-0.9
				c-0.7-0.3-1.3-0.6-2.2-0.9c-0.7-0.3-1.4-0.5-2.1-0.7c-1.4-0.5-2.9-0.8-4.2-1.1c-2.9-0.5-5.7-0.6-8.3-0.1l-0.5,0.1
				c-0.2,0-0.3,0.1-0.5,0.1l-0.4,0.1c-0.1,0-0.3,0.1-0.5,0.1l-0.6,0.2l-0.3,0.1h-0.1c-0.1,0,0.2-0.1,0.1,0h-0.1l-0.9,0.4l-0.4,0.2
				c-0.1,0.1-0.3,0.2-0.4,0.2l-0.8,0.4c-0.3,0.1-0.5,0.3-0.8,0.5c-0.3,0.2-0.5,0.3-0.8,0.5c-2.1,1.5-3.8,3.5-5.2,5.7
				c-1.5,2.3-2.6,4.7-3.3,7.3c-0.2,0.7-0.4,1.3-0.5,2c-0.1,0.7-0.3,1.3-0.3,1.9v0.1c0.1-0.1,0.2-0.2,0.2-0.2c0.9-0.9,2.1-1.6,3.4-2
				c1.3-0.4,2.6-0.4,3.8-0.4h0.9h0.4H51c0.6,0,1.2-0.1,1.8-0.2c1.2-0.2,2.3-0.5,3.4-0.9c1.1-0.4,2-0.9,3-1.4
				c0.9-0.6,1.7-1.1,2.4-1.7c0.7-0.6,1.3-1.2,1.8-1.8c0.5-0.6,0.9-1.1,1.2-1.5c0.3-0.4,0.5-0.8,0.7-1.1c0.1-0.2,0.2-0.4,0.2-0.4
				s-0.1,0.1-0.2,0.4c-0.1,0.3-0.3,0.6-0.6,1.1c-0.3,0.5-0.7,1-1.1,1.6c-0.5,0.6-1,1.3-1.7,1.9c-0.7,0.7-1.5,1.3-2.3,1.9
				c-0.9,0.6-1.9,1.2-3,1.7c-1.1,0.5-2.3,0.9-3.5,1.2c-0.6,0.1-1.3,0.2-1.9,0.3l-0.5,0.1h-0.5h-0.9c-1.2,0.1-2.4,0.1-3.4,0.6
				c-1,0.4-1.9,1-2.6,1.8c-0.7,0.7-1.3,1.6-1.7,2.5c0,0.1-0.1,0.2-0.1,0.2v0.2c-0.1,5.3,0.8,10.6,2.2,15.8
				c1.4,5.1,3.2,10.1,4.8,14.9c1.2,3.5,2.4,6.7,3.4,9.7c19.4,9.5,43.7,6.1,59.8-10l25.7-25.7c-0.1,0-0.2,0-0.3,0
				C133.3,155.6,128.6,154.8,123.7,153.5z"/>
		</g>
	</g>
	<g id="g17">
		<path id="path19" inkscape:connector-curvature="0" class="st4" d="M143,74.8c0-28.7,18.3-46.3,45.9-51.7l-0.8-0.7
			c-2-1.5-3.4-2.4-5.4-3.5C154.1,24.7,137,46.1,137,75.6c0,22.9,10.7,40.6,30.7,50.2l4.5-4.4C152.7,112.2,143,96.5,143,74.8z"/>
	</g>
</g>
<g id="g21" transform="translate(-2.1250122,-6)">
	<path id="path23" inkscape:connector-curvature="0" class="st0" d="M278.2,13.1h44.1L392.4,115V13.1h48v182.7h-41.3L326.2,90.9
		v104.9h-48V13.1z"/>
	<path id="path25" inkscape:connector-curvature="0" class="st0" d="M561.2,200.2c-13.7,0-26.4-2.4-37.9-7.3
		c-11.6-4.9-21.6-11.6-30.2-20c-8.5-8.5-15.1-18.6-19.9-30.4s-7.2-24.6-7.2-38.4s2.4-26.8,7.2-38.4c4.8-11.8,11.3-21.9,19.9-30.4
		c8.5-8.5,18.6-15.1,30.2-19.9c11.6-4.8,24.2-7.2,37.9-7.2c13.7,0,26.4,2.4,38.1,7.2c11.7,4.8,21.7,11.3,30.2,19.9
		s15,18.6,19.7,30.4s7.2,24.6,7.2,38.4s-2.4,26.8-7.2,38.4c-4.8,11.8-11.3,21.9-19.7,30.4s-18.5,15.2-30.2,20
		C587.5,197.8,574.8,200.2,561.2,200.2L561.2,200.2z M561.2,154.7c7.2,0,13.4-1.4,19.1-4c5.5-2.6,10.3-6.3,14.1-10.8
		c3.9-4.5,6.8-9.9,8.8-16.2c2-6.2,3-12.8,3-19.7c0-6.9-1-13.6-3-19.7c-2-6.2-4.9-11.6-8.8-16.2c-3.9-4.5-8.5-8.2-14.1-10.8
		c-5.5-2.6-11.9-4-19.1-4s-13.4,1.4-19.1,4c-5.5,2.6-10.3,6.3-14.1,10.8c-3.9,4.5-6.8,9.9-8.8,16.2c-2,6.2-3,12.8-3,19.7
		c0,6.9,1,13.6,3,19.7c2,6.2,4.9,11.6,8.8,16.2c3.9,4.5,8.5,8.2,14.1,10.8C547.7,153.4,554,154.7,561.2,154.7z"/>
	<path id="path27" inkscape:connector-curvature="0" class="st0" d="M851.3,161.9c-20.6,25.8-47.7,38.6-81.4,38.6
		c-14.1,0-26.9-2.4-38.6-7.2c-11.7-4.8-21.7-11.3-30-19.7c-8.3-8.4-14.8-18.5-19.5-30.2c-4.6-11.7-7-24.5-7-38.6
		c0-13.8,2.3-26.8,6.9-38.4c4.5-11.8,11.1-22,19.5-30.7s18.5-15.5,30.2-20.2c11.7-4.9,24.5-7.3,38.6-7.3c15.8,0,30.5,2.6,44.1,7.9
		c13.6,5.3,24.9,14.6,34.3,27.6l-32,32.3c-5.2-6.9-11.2-12.6-18.3-16.7c-7.2-4.1-15.2-6.3-24.4-6.3c-7.7,0-14.6,1.3-20.6,3.9
		c-6,2.5-11.1,6.2-15.2,10.7c-4.1,4.5-7.3,9.9-9.4,16.1c-2.1,6.2-3.3,12.7-3.3,19.9c0,7.3,1.1,14.1,3.4,20.2
		c2.3,6.2,5.5,11.6,9.7,16.2c4.1,4.5,9.3,8.2,15.2,10.7c5.9,2.5,12.6,3.9,19.9,3.9c10.6,0,19.2-1.9,25.9-5.7
		c6.7-3.8,13.2-9.7,19.6-17.7L851.3,161.9L851.3,161.9z"/>
	<path id="path29" inkscape:connector-curvature="0" class="st0" d="M923.9,13.1h55.7l64.7,182.7H992L980.2,158h-61.1l-12.1,37.8
		h-50.1L923.9,13.1z M970.1,122.7l-20.2-67.1l-21.1,67.1H970.1L970.1,122.7z"/>
	<path id="path31" inkscape:connector-curvature="0" class="st0" d="M1077.6,138c5.2,5.2,11.8,9.8,20,13.9s17.2,6.3,27.1,6.3
		c2.4,0,4.9-0.3,7.4-0.6c2.5-0.5,4.8-1.3,6.9-2.4c2-1.1,3.6-2.5,4.9-4.4c1.3-1.9,1.9-4.1,1.9-7.2c0-4.8-2.4-8.7-7.3-11.8
		c-4.9-3.1-11.9-6.2-21.2-9.3l-10.2-3.3c-5.7-1.9-11.3-4.1-17.1-7.2c-5.8-2.9-10.9-6.4-15.5-10.6c-4.5-4.1-8.3-8.9-11.1-14.6
		c-2.9-5.5-4.3-12.1-4.3-19.6c0-8.4,1.5-16.2,4.6-23.4s7.7-13.6,13.6-18.8c5.9-5.4,13.3-9.5,22.1-12.6s18.8-4.5,30.4-4.5
		c8.9,0,17.1,0.9,24.4,2.5c7.3,1.6,13.7,3.6,19.2,6c5.5,2.4,10.2,4.9,13.9,7.7c3.9,2.8,6.8,5.2,8.8,7.4L1171.7,63
		c-6.4-4.8-13.1-8.7-20-11.7c-6.9-3-14.1-4.5-21.4-4.5c-2.4,0-4.8,0.3-7.2,0.9c-2.4,0.5-4.5,1.4-6.4,2.5c-1.9,1.1-3.5,2.5-4.6,4.3
		s-1.8,3.9-1.8,6.4c0,2.8,0.6,5.2,2,7.2c1.4,2,3.3,3.8,5.7,5.2c2.4,1.5,5.3,2.8,8.7,4c3.4,1.1,7,2.4,10.8,3.6l8.8,2.8
		c6.2,2,12.6,4.4,18.8,7c6.4,2.6,12.2,6.2,17.2,10.7c5.2,4.5,9.3,10.1,12.6,16.7s4.9,14.8,4.9,24.5c0,8.4-2,16.2-5.9,23.2
		c-3.9,7.2-9.2,13.2-15.8,18.3c-6.7,5.2-14.6,9-23.6,11.9c-9,2.9-18.7,4.3-28.9,4.3c-18.2,0-33.5-2.4-45.9-7.3
		c-12.3-4.9-22.7-11.3-31.4-19.6L1077.6,138L1077.6,138z"/>
	<path id="path33" inkscape:connector-curvature="0" class="st0" d="M1237.9,138c5.2,5.2,11.8,9.8,20,13.9s17.2,6.3,27.1,6.3
		c2.4,0,4.9-0.3,7.4-0.6c2.5-0.5,4.8-1.3,6.9-2.4c2-1.1,3.6-2.5,4.9-4.4c1.3-1.9,1.9-4.1,1.9-7.2c0-4.8-2.4-8.7-7.3-11.8
		s-11.9-6.2-21.2-9.3l-10.2-3.3c-5.7-1.9-11.3-4.1-17.1-7.2c-5.8-2.9-10.9-6.4-15.5-10.6c-4.5-4.1-8.3-8.9-11.1-14.6
		c-2.9-5.5-4.3-12.1-4.3-19.6c0-8.4,1.5-16.2,4.6-23.4s7.7-13.6,13.6-18.8c5.9-5.4,13.3-9.5,22.1-12.6c8.8-3,18.8-4.5,30.4-4.5
		c8.9,0,17.1,0.9,24.4,2.5c7.3,1.6,13.7,3.6,19.2,6c5.5,2.4,10.2,4.9,13.9,7.7c3.9,2.8,6.8,5.2,8.8,7.4L1332,63
		c-6.4-4.8-13.1-8.7-20-11.7c-6.9-3-14.1-4.5-21.4-4.5c-2.4,0-4.8,0.3-7.2,0.9c-2.4,0.5-4.5,1.4-6.4,2.5s-3.5,2.5-4.6,4.3
		c-1.1,1.8-1.8,3.9-1.8,6.4c0,2.8,0.6,5.2,2,7.2c1.4,2,3.3,3.8,5.7,5.2c2.4,1.5,5.3,2.8,8.7,4c3.4,1.1,7,2.4,10.8,3.6l8.8,2.8
		c6.2,2,12.6,4.4,18.8,7c6.4,2.6,12.2,6.2,17.2,10.7c5.2,4.5,9.3,10.1,12.6,16.7s4.9,14.8,4.9,24.5c0,8.4-2,16.2-5.9,23.2
		c-3.9,7.2-9.2,13.2-15.8,18.3c-6.7,5.2-14.6,9-23.6,11.9c-9,2.9-18.7,4.3-28.9,4.3c-18.2,0-33.5-2.4-45.9-7.3
		c-12.3-4.9-22.7-11.3-31.4-19.6L1237.9,138z"/>
</g>
</svg>
