<?xml version="1.0" encoding="utf-8"?>
<!-- Generator: Adobe Illustrator 21.0.2, SVG Export Plug-In . SVG Version: 6.00 Build 0)  -->
<svg version="1.1"
	 id="Layer_1" inkscape:version="0.48.5 r10040" sodipodi:docname="Horizontal header.svg" xmlns:cc="http://creativecommons.org/ns#" xmlns:dc="http://purl.org/dc/elements/1.1/" xmlns:inkscape="http://www.inkscape.org/namespaces/inkscape" xmlns:rdf="http://www.w3.org/1999/02/22-rdf-syntax-ns#" xmlns:sodipodi="http://sodipodi.sourceforge.net/DTD/sodipodi-0.dtd" xmlns:svg="http://www.w3.org/2000/svg"
	 xmlns="http://www.w3.org/2000/svg" xmlns:xlink="http://www.w3.org/1999/xlink" x="0px" y="0px" viewBox="0 0 1370 195"
	 style="enable-background:new 0 0 1370 195;" xml:space="preserve">
<style type="text/css">
	.st0{fill:#4D4D4D;}
	.st1{fill:#8AEB87;}
	.st2{fill:#FFF09F;}
	.st3{fill:#FF8AB1;}
	.st4{fill:#4AB0E2;}
	.st5{fill:#999999;}
</style>
<sodipodi:namedview  bordercolor="#666666" borderopacity="1" fit-margin-bottom="0" fit-margin-left="0" fit-margin-right="0" fit-margin-top="0" gridtolerance="10" guidetolerance="10" id="namedview43" inkscape:current-layer="Layer_1" inkscape:cx="686.575" inkscape:cy="99" inkscape:pageopacity="0" inkscape:pageshadow="2" inkscape:window-height="480" inkscape:window-maximized="0" inkscape:window-width="640" inkscape:window-x="0" inkscape:window-y="31" inkscape:zoom="0.26499201" objecttolerance="10" pagecolor="#ffffff" showgrid="false">
	</sodipodi:namedview>
<g id="g3" transform="translate(-2.1250122,-6)">
	<g id="g5">
		<path id="path7" inkscape:connector-curvature="0" class="st0" d="M140.5,6c-15.2,0-29.4,5.9-40.1,16.5l-81.7,81.7
			c-22.1,22.1-22.1,58.1,0,80.2C29.4,195.1,43.6,201,58.8,201s29.4-5.9,40.1-16.5l81.7-81.7c22.1-22.1,22.1-58.1,0-80.2
			C169.9,11.9,155.7,6,140.5,6z"/>
		<g id="g9">
			<path id="path11" inkscape:connector-curvature="0" class="st1" d="M190.5,44c-3.3-1.2-6.9-1.8-10.6-1.8
				c-17.3,0-31.4,14.1-31.4,31.4c0,15.2,10.8,27.8,25.1,30.7l4.6-4.6C193.3,84.7,197.4,62.7,190.5,44L190.5,44z"/>
			<path id="path13" inkscape:connector-curvature="0" class="st2" d="M67.5,115.3C60.7,96.8,81.3,72,114.5,57
				c-6.7-9.2-11.9-18.7-15.4-27.7L21,107.4c-16.4,16.4-19.7,41.1-10,60.8c-0.8-5.6-1.2-11.6-0.4-18c0.1-0.5,0.1-0.9,0.2-1.4v-0.3
				v-0.1v-0.1l0.1-0.3l0.1-0.6l0.1-0.6l0.1-0.3c0-0.1,0-0.2,0.1-0.3c0.1-0.5,0.2-1,0.4-1.5c0.2-1,0.5-1.9,0.8-2.8
				c0.3-0.9,0.6-1.8,1-2.7c1.4-3.6,3.3-7.1,5.8-10.2c1.9-2.4,4-4.5,6.6-6.4c0.1-0.3,0.3-0.6,0.5-1s0.5-0.9,0.8-1.3s0.6-0.9,1-1.3
				s0.7-0.9,1.2-1.3c0.2-0.2,0.4-0.4,0.7-0.6c0.2-0.2,0.5-0.4,0.7-0.6c1-0.8,2-1.5,3.2-2c0.6-0.3,1.2-0.5,1.8-0.7s1.3-0.4,1.9-0.5
				c1.3-0.3,2.6-0.3,3.8-0.2c1.2,0,2.4,0.1,3.6,0.1c1.2,0,2.3-0.1,3.3-0.3c1-0.2,2-0.5,2.8-0.9s1.5-0.9,2.1-1.4s1-1,1.3-1.5
				s0.4-0.9,0.6-1.1c0.1-0.3,0.1-0.4,0.1-0.4s0,0.2-0.1,0.4c-0.1,0.3-0.2,0.7-0.5,1.2s-0.6,1-1.2,1.6c-0.5,0.6-1.2,1.1-2.1,1.6
				c-0.8,0.5-1.8,0.8-2.9,1.1c-1.1,0.3-2.2,0.4-3.4,0.5s-2.4,0.1-3.6,0.2c-1.2,0.1-2.4,0.2-3.6,0.5c-0.6,0.1-1.1,0.3-1.7,0.5
				c-0.5,0.3-1.1,0.5-1.6,0.8c-1,0.5-1.9,1.3-2.8,2c-0.2,0.2-0.4,0.4-0.6,0.6s-0.4,0.4-0.5,0.6c-0.4,0.4-0.7,0.8-1,1.2
				c0,0,0,0.1-0.1,0.1c0.1,0,0.2-0.1,0.2-0.1c0.5-0.2,0.9-0.5,1.4-0.7l1.5-0.6c0.2-0.1,0.5-0.2,0.7-0.3l0.8-0.2l1.5-0.4l0.2-0.1
				c-0.1,0,0.2-0.1,0.2-0.1h0.1l0.3-0.1l0.6-0.1c0.2,0,0.5-0.1,0.8-0.1l0.8-0.1c0.3,0,0.5-0.1,0.8-0.1l0.8-0.1
				c4.1-0.3,8.1,0.2,11.8,1.3c1.8,0.5,3.6,1.2,5.3,1.9c0.9,0.4,1.7,0.8,2.5,1.2c0.7,0.4,1.6,0.8,2.4,1.3c6.3,3.5,11.5,7.7,16.6,11.3
				c0.7,0.5,1.3,0.9,2,1.4c0.4,0.3,0.8,0.5,1.1,0.8c0.1,0,0.3-0.1,0.4-0.1c0.7-0.1,1.6-0.3,2.6-0.3c1-0.1,2.1,0,3.3,0.1
				c2.4,0.3,5,1,7.7,2.1c1.4,0.5,2.7,1.1,4.1,1.8c1.4,0.6,2.7,1.2,4.1,1.8s2.8,1,4.2,1.4c1.4,0.4,2.8,0.6,4.2,0.7
				c1.4,0.1,2.7,0,4-0.2s2.5-0.4,3.6-0.7c2.2-0.5,4-1.2,5.3-1.6c1.3-0.4,2-0.7,2-0.7s-0.7,0.3-1.9,0.8c-1.2,0.5-3,1.2-5.2,1.9
				s-4.8,1.3-7.7,1.3c-1.4,0-3-0.2-4.4-0.5c-1.5-0.3-3-0.7-4.4-1.2c-1.5-0.5-2.9-1-4.3-1.6c-1.4-0.5-2.8-1.1-4.1-1.5
				c-2.6-0.9-5.2-1.5-7.3-1.6c-1.1-0.1-2.1-0.1-2.9,0c-0.1,0-0.2,0-0.3,0c0.6,0.4,1.1,0.7,1.7,1.1c0.6,0.4,1.3,0.8,1.9,1.2
				s1.3,0.7,1.9,1.1c0.6,0.4,1.3,0.7,1.9,1.1c0.6,0.3,1.3,0.7,1.9,1c5.1,2.7,10,5,14.7,6.7c4.7,1.8,9.2,3,13.2,3.8
				c0.5,0.1,1.1,0.2,1.6,0.3l19-19c-0.2-2-0.4-3.9-0.6-6C106.6,139.6,74.2,133.9,67.5,115.3L67.5,115.3z"/>
			<path id="path15" inkscape:connector-curvature="0" class="st3" d="M107.9,153.3c-5-1.3-10.3-3.2-15.8-5.5
				c-0.7-0.3-1.4-0.6-2.1-0.9c-0.7-0.3-1.4-0.6-2.1-1c-0.7-0.3-1.4-0.6-2.1-1c-0.7-0.3-1.4-0.7-2.1-1c-0.7-0.4-1.4-0.7-2.1-1.1
				c-0.7-0.4-1.4-0.8-2.1-1.1c-0.7-0.4-1.4-0.8-2.1-1.1c-0.7-0.4-1.4-0.8-2.1-1.2c-4.2-2.4-8.2-4.9-12.4-7.1c0.5,0.8,1,1.7,1.5,2.5
				c1.7,2.7,3.6,5.4,5.4,7.9c1.8,2.4,3.6,4.6,5.2,6.5c0.8,0.9,1.6,1.7,2.3,2.3c0.8,0.6,1.5,1.1,2.1,1.4c0.6,0.3,1.2,0.5,1.5,0.6
				c0.4,0.1,0.6,0.1,0.6,0.1s-0.2,0-0.6-0.1s-0.9-0.2-1.6-0.5s-1.4-0.7-2.2-1.3c-0.8-0.6-1.6-1.4-2.5-2.3c-1.7-1.8-3.6-3.9-5.6-6.2
				c-2-2.4-4-5-5.8-7.6c-0.9-1.3-1.8-2.7-2.7-4.1c-0.1-0.2-0.2-0.3-0.3-0.5c-0.6-0.3-1.3-0.6-1.9-0.9c-0.7-0.3-1.3-0.6-2.2-0.9
				c-0.7-0.3-1.4-0.5-2.1-0.7c-1.4-0.5-2.9-0.8-4.3-1.1c-2.9-0.5-5.8-0.6-8.4-0.1l-0.5,0.1c-0.2,0-0.3,0.1-0.5,0.1l-0.4,0.1
				c-0.1,0-0.3,0.1-0.5,0.1l-0.6,0.2l-0.3,0.1h-0.1c-0.1,0,0.2-0.1,0.1,0h-0.1l-0.9,0.4l-0.4,0.2c-0.1,0.1-0.3,0.2-0.4,0.2l-0.8,0.4
				c-0.3,0.1-0.5,0.3-0.8,0.5s-0.5,0.3-0.8,0.5c-2.1,1.5-3.9,3.5-5.3,5.8c-1.5,2.3-2.6,4.8-3.3,7.4c-0.2,0.7-0.4,1.3-0.5,2
				s-0.3,1.3-0.3,1.9v0.1c0.1-0.1,0.2-0.2,0.2-0.2c0.9-0.9,2.1-1.6,3.4-2s2.6-0.4,3.9-0.4h0.9h0.4h0.5c0.6,0,1.2-0.1,1.8-0.2
				c1.2-0.2,2.3-0.5,3.4-0.9c1.1-0.4,2-0.9,3-1.4c0.9-0.6,1.7-1.1,2.4-1.7c0.7-0.6,1.3-1.2,1.8-1.8s0.9-1.1,1.2-1.5s0.5-0.8,0.7-1.1
				c0.1-0.2,0.2-0.4,0.2-0.4s-0.1,0.1-0.2,0.4c-0.1,0.3-0.3,0.6-0.6,1.1s-0.7,1-1.1,1.6c-0.5,0.6-1,1.3-1.7,1.9
				c-0.7,0.7-1.5,1.3-2.3,1.9c-0.9,0.6-1.9,1.2-3,1.7s-2.3,0.9-3.5,1.2c-0.6,0.1-1.3,0.2-1.9,0.3l-0.5,0.1h-0.5h-0.9
				c-1.2,0.1-2.4,0.1-3.4,0.6c-1,0.4-1.9,1-2.6,1.8c-0.7,0.7-1.3,1.6-1.7,2.5c0,0.1-0.1,0.2-0.1,0.2v0.2c-0.1,5.4,0.8,10.8,2.2,16
				c1.4,5.2,3.2,10.2,4.9,15.1c1.2,3.5,2.4,6.8,3.4,9.8c19.7,9.6,44.3,6.2,60.7-10.1L122,156c-0.1,0-0.2,0-0.3,0
				C117.6,155.5,112.9,154.7,107.9,153.3z"/>
		</g>
	</g>
	<g id="g17">
		<path id="path19" inkscape:connector-curvature="0" class="st4" d="M127.5,73.5c0-29.1,18.6-47,46.6-52.4l-0.8-0.7
			c-2-1.5-3.4-2.4-5.5-3.5c-29.1,5.8-46.4,27.5-46.4,57.4c0,23.2,10.9,41.2,31.1,50.9l4.6-4.5C137.3,111.4,127.5,95.5,127.5,73.5z"
			/>
	</g>
</g>
<g id="g21" transform="translate(-2.1250122,-6)">
	<path id="path23" inkscape:connector-curvature="0" class="st0" d="M215.2,37.1h35.1l55.8,81.1V37.1h38.2v145.4h-32.9l-58-83.5
		v83.5h-38.2V37.1z"/>
	<path id="path25" inkscape:connector-curvature="0" class="st0" d="M440.4,186c-10.9,0-21-1.9-30.2-5.8c-9.2-3.9-17.2-9.2-24-15.9
		c-6.8-6.8-12-14.8-15.8-24.2s-5.7-19.6-5.7-30.6s1.9-21.3,5.7-30.6c3.8-9.4,9-17.4,15.8-24.2s14.8-12,24-15.8s19.3-5.7,30.2-5.7
		c10.9,0,21,1.9,30.3,5.7s17.3,9,24,15.8s11.9,14.8,15.7,24.2s5.7,19.6,5.7,30.6s-1.9,21.3-5.7,30.6c-3.8,9.4-9,17.4-15.7,24.2
		s-14.7,12.1-24,15.9C461.4,184.1,451.3,186,440.4,186L440.4,186z M440.4,149.8c5.7,0,10.7-1.1,15.2-3.2c4.4-2.1,8.2-5,11.2-8.6
		c3.1-3.6,5.4-7.9,7-12.9c1.6-4.9,2.4-10.2,2.4-15.7s-0.8-10.8-2.4-15.7c-1.6-4.9-3.9-9.2-7-12.9c-3.1-3.6-6.8-6.5-11.2-8.6
		c-4.4-2.1-9.5-3.2-15.2-3.2s-10.7,1.1-15.2,3.2c-4.4,2.1-8.2,5-11.2,8.6c-3.1,3.6-5.4,7.9-7,12.9c-1.6,4.9-2.4,10.2-2.4,15.7
		s0.8,10.8,2.4,15.7s3.9,9.2,7,12.9c3.1,3.6,6.8,6.5,11.2,8.6C429.7,148.7,434.7,149.8,440.4,149.8z"/>
	<path id="path27" inkscape:connector-curvature="0" class="st0" d="M671.3,155.5c-16.4,20.5-38,30.7-64.8,30.7
		c-11.2,0-21.4-1.9-30.7-5.7s-17.3-9-23.9-15.7c-6.6-6.7-11.8-14.7-15.5-24s-5.6-19.5-5.6-30.7c0-11,1.8-21.3,5.5-30.6
		c3.6-9.4,8.8-17.5,15.5-24.4s14.7-12.3,24-16.1c9.3-3.9,19.5-5.8,30.7-5.8c12.6,0,24.3,2.1,35.1,6.3s19.8,11.6,27.3,22l-25.5,25.7
		c-4.1-5.5-8.9-10-14.6-13.3c-5.7-3.3-12.1-5-19.4-5c-6.1,0-11.6,1-16.4,3.1c-4.8,2-8.8,4.9-12.1,8.5s-5.8,7.9-7.5,12.8
		s-2.6,10.1-2.6,15.8c0,5.8,0.9,11.2,2.7,16.1c1.8,4.9,4.4,9.2,7.7,12.9c3.3,3.6,7.4,6.5,12.1,8.5c4.7,2,10,3.1,15.8,3.1
		c8.4,0,15.3-1.5,20.6-4.5s10.5-7.7,15.6-14.1L671.3,155.5L671.3,155.5z"/>
	<path id="path29" inkscape:connector-curvature="0" class="st0" d="M729.1,37.1h44.3l51.5,145.4h-41.6l-9.4-30.1h-48.6l-9.6,30.1
		h-39.9L729.1,37.1z M765.9,124.3l-16.1-53.4L733,124.3H765.9L765.9,124.3z"/>
	<path id="path31" inkscape:connector-curvature="0" class="st0" d="M851.4,136.5c4.1,4.1,9.4,7.8,15.9,11.1s13.7,5,21.6,5
		c1.9,0,3.9-0.2,5.9-0.5c2-0.4,3.8-1,5.5-1.9c1.6-0.9,2.9-2,3.9-3.5s1.5-3.3,1.5-5.7c0-3.8-1.9-6.9-5.8-9.4
		c-3.9-2.5-9.5-4.9-16.9-7.4l-8.1-2.6c-4.5-1.5-9-3.3-13.6-5.7c-4.6-2.3-8.7-5.1-12.3-8.4s-6.6-7.1-8.8-11.6
		c-2.3-4.4-3.4-9.6-3.4-15.6c0-6.7,1.2-12.9,3.7-18.6s6.1-10.8,10.8-15c4.7-4.3,10.6-7.6,17.6-10s15-3.6,24.2-3.6
		c7.1,0,13.6,0.7,19.4,2c5.8,1.3,10.9,2.9,15.3,4.8c4.4,1.9,8.1,3.9,11.1,6.1c3.1,2.2,5.4,4.1,7,5.9l-19.6,24.9
		c-5.1-3.8-10.4-6.9-15.9-9.3s-11.2-3.6-17-3.6c-1.9,0-3.8,0.2-5.7,0.7c-1.9,0.4-3.6,1.1-5.1,2s-2.8,2-3.7,3.4s-1.4,3.1-1.4,5.1
		c0,2.2,0.5,4.1,1.6,5.7s2.6,3,4.5,4.1c1.9,1.2,4.2,2.2,6.9,3.2c2.7,0.9,5.6,1.9,8.6,2.9l7,2.2c4.9,1.6,10,3.5,15,5.6
		c5.1,2.1,9.7,4.9,13.7,8.5c4.1,3.6,7.4,8,10,13.3s3.9,11.8,3.9,19.5c0,6.7-1.6,12.9-4.7,18.5c-3.1,5.7-7.3,10.5-12.6,14.6
		s-11.6,7.2-18.8,9.5s-14.9,3.4-23,3.4c-14.5,0-26.7-1.9-36.5-5.8c-9.8-3.9-18.1-9-25-15.6L851.4,136.5L851.4,136.5z"/>
	<path id="path33" inkscape:connector-curvature="0" class="st0" d="M979,136.5c4.1,4.1,9.4,7.8,15.9,11.1s13.7,5,21.6,5
		c1.9,0,3.9-0.2,5.9-0.5c2-0.4,3.8-1,5.5-1.9c1.6-0.9,2.9-2,3.9-3.5s1.5-3.3,1.5-5.7c0-3.8-1.9-6.9-5.8-9.4s-9.5-4.9-16.9-7.4
		l-8.1-2.6c-4.5-1.5-9-3.3-13.6-5.7c-4.6-2.3-8.7-5.1-12.3-8.4s-6.6-7.1-8.8-11.6c-2.3-4.4-3.4-9.6-3.4-15.6
		c0-6.7,1.2-12.9,3.7-18.6s6.1-10.8,10.8-15c4.7-4.3,10.6-7.6,17.6-10s15-3.6,24.2-3.6c7.1,0,13.6,0.7,19.4,2
		c5.8,1.3,10.9,2.9,15.3,4.8c4.4,1.9,8.1,3.9,11.1,6.1c3.1,2.2,5.4,4.1,7,5.9l-19.6,24.9c-5.1-3.8-10.4-6.9-15.9-9.3
		s-11.2-3.6-17-3.6c-1.9,0-3.8,0.2-5.7,0.7c-1.9,0.4-3.6,1.1-5.1,2s-2.8,2-3.7,3.4s-1.4,3.1-1.4,5.1c0,2.2,0.5,4.1,1.6,5.7
		s2.6,3,4.5,4.1c1.9,1.2,4.2,2.2,6.9,3.2c2.7,0.9,5.6,1.9,8.6,2.9l7,2.2c4.9,1.6,10,3.5,15,5.6c5.1,2.1,9.7,4.9,13.7,8.5
		c4.1,3.6,7.4,8,10,13.3s3.9,11.8,3.9,19.5c0,6.7-1.6,12.9-4.7,18.5c-3.1,5.7-7.3,10.5-12.6,14.6c-5.3,4.1-11.6,7.2-18.8,9.5
		c-7.2,2.3-14.9,3.4-23,3.4c-14.5,0-26.7-1.9-36.5-5.8c-9.8-3.9-18.1-9-25-15.6L979,136.5z"/>
</g>
<g>
	<path class="st5" d="M1096,163.3c0-4.2,0.9-7.9,2.7-11.2c1.8-3.3,4-6.3,6.6-9c2.6-2.7,5.5-5.2,8.7-7.4c3.1-2.3,6-4.4,8.7-6.3
		c2.6-2,4.9-3.9,6.6-5.7c1.8-1.8,2.7-3.7,2.7-5.7c0-1.8-0.8-3.4-2.3-4.9c-1.5-1.5-3.9-2.2-7-2.2c-1.7,0-3.3,0.3-4.7,0.9
		c-1.4,0.6-2.7,1.3-3.8,2.2c-1.1,0.9-2,1.8-2.8,2.7c-0.8,1-1.4,1.9-1.9,2.6l-15.6-10.7c1.3-2.1,2.9-4.2,4.8-6.1
		c1.9-2,4.2-3.7,6.8-5.2c2.6-1.5,5.6-2.7,8.9-3.6c3.3-0.9,7-1.3,11.1-1.3c4.5,0,8.5,0.7,12,2c3.5,1.4,6.4,3.2,8.7,5.4
		c2.3,2.3,4.1,4.8,5.4,7.7c1.2,2.9,1.9,5.8,1.9,8.7c0,3.7-0.8,7-2.3,9.9c-1.5,2.9-3.5,5.6-5.8,8c-2.3,2.4-4.9,4.6-7.7,6.6
		c-2.8,2-5.3,3.8-7.7,5.6c-2.4,1.7-4.4,3.4-6,5c-1.6,1.6-2.5,3.1-2.6,4.7h32.3v19.2H1096V163.3z"/>
	<path class="st5" d="M1197.9,177.1c-5.3,0-9.9-1-13.9-3.1c-4-2-7.3-4.9-10-8.7c-2.7-3.7-4.7-8.2-6.1-13.4c-1.4-5.2-2-10.9-2-17.2
		c0-6.3,0.7-12,2-17.2c1.4-5.2,3.4-9.7,6.1-13.4c2.7-3.7,6-6.6,10-8.7c4-2,8.6-3.1,13.9-3.1c5.6,0,10.5,1,14.5,3.1
		c4,2,7.3,4.9,9.9,8.7c2.6,3.7,4.4,8.2,5.7,13.4c1.2,5.2,1.9,10.9,1.9,17.2c0,6.3-0.6,12-1.9,17.2c-1.2,5.2-3.1,9.7-5.7,13.4
		c-2.6,3.7-5.9,6.6-9.9,8.7C1208.4,176.1,1203.5,177.1,1197.9,177.1z M1197.9,157.4c2,0,3.7-0.6,5-1.8c1.3-1.2,2.3-2.8,3.1-4.9
		c0.8-2,1.3-4.4,1.6-7.2c0.3-2.8,0.4-5.7,0.4-8.9c0-3.1-0.1-6.1-0.4-8.9c-0.3-2.8-0.8-5.2-1.6-7.2c-0.8-2-1.8-3.7-3.1-4.9
		c-1.3-1.2-2.9-1.8-5-1.8c-2,0-3.7,0.6-5,1.8c-1.3,1.2-2.3,2.8-3.1,4.9c-0.7,2-1.2,4.4-1.5,7.2c-0.3,2.8-0.4,5.7-0.4,8.9
		c0,3.2,0.1,6.1,0.4,8.9c0.3,2.8,0.8,5.2,1.5,7.2c0.7,2,1.7,3.7,3.1,4.9C1194.2,156.8,1195.9,157.4,1197.9,157.4z"/>
	<path class="st5" d="M1246.6,156.7h14v-38.6l-11.4,6.1l-9.2-16.3l24.1-13.3h17.2v62.1h13v18.4h-47.9V156.7z"/>
	<path class="st5" d="M1317.8,175.1c1.5-4.9,3.4-10.3,5.7-16.2c2.3-5.9,4.7-11.6,7.3-17.3c2.6-5.7,5.2-11,7.7-16
		c2.6-5,4.9-9.2,6.9-12.4h-34.4V94.6h56.3v17.2c-3.5,6-6.6,11.7-9.3,17.1c-2.7,5.4-5.1,10.7-7.3,15.9c-2.2,5.2-4.1,10.2-5.9,15.2
		c-1.7,5-3.4,10-5,15H1317.8z"/>
</g>
</svg>
