<!-- Created with Inkscape (http://www.inkscape.org/) -->
<svg xmlns:rdf="http://www.w3.org/1999/02/22-rdf-syntax-ns#" xmlns="http://www.w3.org/2000/svg" height="261.86" width="432.71" viewBox="0 0 432.71 261.86" version="1.1" xmlns:cc="http://creativecommons.org/ns#" xmlns:dc="http://purl.org/dc/elements/1.1/">
 <defs>
  <clipPath id="clipPath132" clipPathUnits="userSpaceOnUse">
   <path d="m0,0,595.28,0,0,841.89h-595.28v-841.89z"/>
  </clipPath>
  <clipPath id="clipPath158" clipPathUnits="userSpaceOnUse">
   <path d="m0,0,595.28,0,0,841.89h-595.28v-841.89z"/>
  </clipPath>
 </defs>
 <metadata>
  <rdf:RDF>
   <cc:Work rdf:about="">
    <dc:format>image/svg+xml</dc:format>
    <dc:type rdf:resource="http://purl.org/dc/dcmitype/StillImage"/>
    <dc:title/>
   </cc:Work>
  </rdf:RDF>
 </metadata>
 <g transform="translate(-195.07385,-552.86294)">
  <g transform="matrix(0.9076993,0,0,0.90770059,-2572.7035,3376.2069)">
   <path fill-rule="nonzero" fill="#6f79ae" d="m3177.3-3110.4,105.62,0,0,104.35-105.62,0,0-104.35z"/>
   <path fill-rule="nonzero" fill="#bec0dc" d="m3298.2-3110.4,223.27,0,0,104.35-223.27,0,0-104.35z"/>
   <path fill-rule="nonzero" fill="#15366f" d="m3056.4-3110.4,105.62,0,0,104.35-105.62,0,0-104.35z"/>
   <path fill-rule="nonzero" fill="#bec0dc" d="m3056.4-2909.7,465.72,0,0,11.525-465.72,0,0-11.525z"/>
   <g transform="matrix(5.1568007,0,0,-5.1568007,2464.5158,94.722629)">
    <g clip-path="url(#clipPath132)">
     <g transform="translate(116.6316,589.4942)">
      <path fill-rule="nonzero" fill="#15366f" d="m0,0,0,6.489-1.244,0,0-6.362c0-1.521-0.732-2.333-2.002-2.561l0.808-0.811c1.104,0.203,2.438,1.217,2.438,3.245"/>
     </g>
     <g transform="translate(124.2777,590.7615)">
      <path fill-rule="nonzero" fill="#15366f" d="m0,0c0,1.787-1.347,3.017-3.079,3.017s-3.092-1.23-3.092-3.017c0-1.774,1.36-3.004,3.092-3.004s3.079,1.23,3.079,3.004m-1.18,0c0-1.191-0.886-1.99-1.899-1.99-1.026,0-1.912,0.799-1.912,1.99,0,1.204,0.886,2.003,1.912,2.003,1.013,0,1.899-0.799,1.899-2.003"/>
     </g>
     <g transform="translate(130.5745,587.8971)">
      <path fill-rule="nonzero" fill="#15366f" d="m0,0,0,3.802c0,1.281-0.936,2.079-2.207,2.079-0.846,0-1.282-0.203-1.706-0.608v3.751h-1.167v-9.024h1.167v3.688c0,0.596,0.462,1.204,1.399,1.204,0.975,0,1.347-0.608,1.347-1.204v-3.688h1.167z"/>
     </g>
     <g transform="translate(137.0654,587.8971)">
      <path fill-rule="nonzero" fill="#15366f" d="m0,0,0,3.802c0,1.281-0.936,2.079-2.207,2.079-0.911,0-1.347-0.228-1.796-0.71l-0.051,0.571h-1.026v-5.742h1.167v3.688c0,0.596,0.462,1.204,1.399,1.204,0.974,0,1.347-0.608,1.347-1.204v-3.688h1.167z"/>
     </g>
    </g>
   </g>
   <path fill-rule="nonzero" fill="#15366f" d="m3201.9-2978.6-6.4151,0,0,41.698,6.4151,0,0-41.698z"/>
   <g transform="matrix(5.1568007,0,0,-5.1568007,2464.5158,94.722629)">
    <g clip-path="url(#clipPath158)">
     <g transform="translate(149.8017,587.8971)">
      <path fill-rule="nonzero" fill="#15366f" d="m0,0,0,3.802c0,1.281-0.936,2.079-2.207,2.079-0.911,0-1.347-0.228-1.796-0.71l-0.051,0.571h-1.026v-5.742h1.167v3.688c0,0.596,0.462,1.204,1.399,1.204,0.974,0,1.347-0.608,1.347-1.204v-3.688h1.167z"/>
     </g>
     <g transform="translate(156.2921,587.8971)">
      <path fill-rule="nonzero" fill="#15366f" d="m0,0,0,3.802c0,1.281-0.936,2.079-2.207,2.079-0.911,0-1.347-0.228-1.796-0.71l-0.051,0.571h-1.026v-5.742h1.167v3.688c0,0.596,0.462,1.204,1.399,1.204,0.974,0,1.347-0.608,1.347-1.204v-3.688h1.167z"/>
     </g>
     <g transform="translate(162.8465,591.5981)">
      <path fill-rule="nonzero" fill="#15366f" d="m0,0c0,1.065-0.911,2.18-2.514,2.18-1.347,0-2.887-1.065-2.887-3.017,0-1.787,1.463-3.003,3.118-3.003,0.782,0,1.308,0.152,1.719,0.367l0.295,1.23c-0.539-0.381-1.116-0.583-1.861-0.583-1.359,0-2.026,1.001-2.065,1.711h3.502l0.655,0.646c0.025,0.127,0.038,0.292,0.038,0.469m-1.18-0.026c0-0.05,0-0.101-0.013-0.151h-2.925c0.154,0.798,0.936,1.368,1.668,1.368,0.769,0,1.27-0.646,1.27-1.217"/>
     </g>
     <g transform="translate(167.6565,589.4686)">
      <path fill-rule="nonzero" fill="#15366f" d="m0,0c0,1.001-0.654,1.521-1.822,1.939-0.577,0.203-0.846,0.393-0.846,0.761,0,0.38,0.32,0.646,0.808,0.646,0.629,0,1.052-0.19,1.308-0.367l0.218,0.963c-0.218,0.139-0.846,0.368-1.513,0.368-1.155,0-1.95-0.685-1.95-1.648,0-0.925,0.641-1.458,1.796-1.876,0.539-0.19,0.834-0.431,0.834-0.837,0-0.392-0.372-0.684-0.924-0.684-0.706,0-1.45,0.304-1.924,0.71l0.269-1.268c0.346-0.228,0.949-0.418,1.629-0.418,1.411,0,2.117,0.786,2.117,1.711"/>
     </g>
     <g transform="translate(178.3949,595.6159)">
      <path fill-rule="nonzero" fill="#15366f" d="m0,0c-0.5,0.279-1.283,0.532-2.412,0.532-2.04,0-4.413-1.407-4.413-4.208,0-2.763,2.348-4.195,4.413-4.195,1.052,0,1.629,0.127,2.142,0.393l0.257,1.179c-0.513-0.304-1.283-0.507-2.258-0.507-1.642,0-3.297,1.039-3.297,3.13,0,2.117,1.694,3.144,3.297,3.144,0.847,0,1.655-0.279,2.053-0.533l0.218,1.065z"/>
     </g>
     <g transform="translate(184.4993,591.5981)">
      <path fill-rule="nonzero" fill="#15366f" d="m0,0c0,1.065-0.911,2.18-2.514,2.18-1.347,0-2.887-1.065-2.887-3.017,0-1.787,1.463-3.003,3.118-3.003,0.782,0,1.308,0.152,1.719,0.367l0.295,1.23c-0.539-0.381-1.116-0.583-1.861-0.583-1.359,0-2.026,1.001-2.065,1.711h3.502l0.655,0.646c0.025,0.127,0.038,0.292,0.038,0.469m-1.18-0.026c0-0.05,0-0.101-0.013-0.151h-2.925c0.154,0.798,0.936,1.368,1.668,1.368,0.769,0,1.27-0.646,1.27-1.217"/>
     </g>
     <g transform="translate(190.7334,587.8971)">
      <path fill-rule="nonzero" fill="#15366f" d="m0,0,0,3.802c0,1.281-0.936,2.079-2.207,2.079-0.911,0-1.347-0.228-1.796-0.71l-0.051,0.571h-1.026v-5.742h1.167v3.688c0,0.596,0.462,1.204,1.399,1.204,0.974,0,1.347-0.608,1.347-1.204v-3.688h1.167z"/>
     </g>
     <g transform="translate(195.9025,593.6388)">
      <path fill-rule="nonzero" fill="#15366f" d="m0,0-2.053,0,0,1.762-1.154-0.596,0-1.166-1.142,0,0-0.925,1.142,0,0-3.156c0-1.141,0.846-1.749,1.898-1.749,0.231,0,0.398,0.012,0.526,0.05l0.231,1.027c-0.179-0.063-0.397-0.089-0.641-0.089-0.475,0-0.86,0.254-0.86,0.723v3.194h1.848l0.205,0.925z"/>
     </g>
     <g transform="translate(200.2372,592.7388)">
      <path fill-rule="nonzero" fill="#15366f" d="M0,0-0.218,0.976c-0.873,0-1.668-0.266-1.976-0.976l-0.051,0.9h-1.103v-5.742h1.167v2.713c0,1.635,1.129,2.129,2.065,2.129h0.116z"/>
     </g>
     <g transform="translate(205.8286,591.5981)">
      <path fill-rule="nonzero" fill="#15366f" d="m0,0c0,1.065-0.911,2.18-2.514,2.18-1.347,0-2.887-1.065-2.887-3.017,0-1.787,1.463-3.003,3.118-3.003,0.782,0,1.308,0.152,1.719,0.367l0.295,1.23c-0.539-0.381-1.116-0.583-1.861-0.583-1.359,0-2.026,1.001-2.065,1.711h3.502l0.655,0.646c0.025,0.127,0.038,0.292,0.038,0.469m-1.18-0.026c0-0.05,0-0.101-0.013-0.151h-2.925c0.154,0.798,0.936,1.368,1.668,1.368,0.769,0,1.27-0.646,1.27-1.217"/>
     </g>
    </g>
   </g>
   <g style="letter-spacing:0px;word-spacing:0px;" font-weight="normal" transform="matrix(0.87702482,0,0,0.87702482,286.31522,-3308.8643)" font-stretch="normal" line-height="125%" font-size="40px" font-variant="normal" font-family="Marydale" font-style="normal" fill="#15366f">
    <path d="m3186.1,497.37c-0.879,6.7391-3.0277,13.136-6.446,19.192-4.4602,7.8459-9.6691,11.72-15.627,11.622-2.279-0.0326-4.2811-2.1161-6.0066-6.2507-1.6278-3.8741-2.4742-8.1389-2.5393-12.794-0.065-4.7857-0.033-8.3668,0.098-10.743,0.065-1.7254,0.8465-2.523,2.3441-2.3928,0.5534,0.0651,0.8952,0.2442,1.0255,0.53717,0.1627,0.26047,0.2116,0.91159,0.1465,1.9533-0.1628,1.9859-0.3582,6.2996-0.586,12.941-0.033,3.1579,0.6348,6.267,2.0021,9.3272,1.465,3.3207,3.0603,4.8996,4.7857,4.7369,3.6463-0.39067,6.9507-2.6533,9.9132-6.7879,2.3115-3.1579,4.2648-7.1785,5.8601-12.062,1.2371-3.809,1.9045-6.7227,2.0021-8.7412,0-0.19531-0.032-0.60225-0.098-1.2208-0.065-0.65108-0.098-1.1394-0.098-1.465,0-1.2696,0.4232-1.9208,1.2697-1.9533,1.5301-0.0325,2.2951,0.52092,2.2952,1.6603-0.0001-0.16275-0.114,0.65115-0.3419,2.4417"/>
    <path d="m3200.3,530.33c-0.5209,0-1.0256-0.21161-1.5139-0.63483-0.4558-0.42323-0.6837-0.94412-0.6836-1.5627-0.0001-0.13022,0.016-0.30928,0.049-0.53717,0.065-0.26044,0.098-0.45578,0.098-0.586-0.0001,0.0651-0.081-0.91156-0.2442-2.93-0.1954-1.9208-0.2767-3.9392-0.2442-6.0554,0.1302-4.9484-0.032-7.6017-0.4883-7.9599-0.3581-0.29299-1.286,0.97669-2.7835,3.809-1.4976,2.7998-2.8324,5.7461-4.0044,8.8389-0.4558,1.2046-0.8953,2.5882-1.3185,4.1509-0.2279,0.84645-0.4558,1.3511-0.6837,1.5138-0.3581,0.16278-0.6674,0.24417-0.9278,0.24417-0.9116,0-1.3673-0.73251-1.3673-2.1975,0-0.35811,0.049-1.5138,0.1465-3.4672,0.1302-2.1161,0.2116-4.1834,0.2441-6.2019,0.065-3.223,0.2768-6.153,0.6349-8.79,0.1302-0.74876,0.4883-1.1232,1.0743-1.1232,0.6511,0.00002,1.172,0.26047,1.5627,0.78134,0.1302,0.1628,0.1953,0.43952,0.1953,0.83017,0,0.26047-0.081,1.0255-0.2442,2.2952-0.1302,1.2371-0.2116,2.3929-0.2441,3.4672-0.033,2.2138-0.049,3.4021-0.049,3.5648,3.7765-7.8459,6.5926-11.574,8.4483-11.183,1.1394,0.22792,1.8719,1.579,2.1975,4.0532,0.2278,1.6278,0.3255,4.688,0.293,9.1807,0,4.2648,0.049,6.56,0.1465,6.8855,0.5534,1.1394,0.8301,1.9371,0.8301,2.3928,0,0.81389-0.3744,1.2208-1.1231,1.2208"/>
    <path d="m3211.5,493.07c0.2604,0.29304,0.3906,0.73254,0.3906,1.3185,0,0.52092-0.1953,2.0673-0.586,4.6392-0.5534,3.8416-1.0417,7.5204-1.465,11.036-0.5534,4.5253-0.8301,8.9203-0.8301,13.185,0,1.5952,0.049,3.0277,0.1465,4.2974,0.1302,2.1161-0.2605,3.1742-1.172,3.1742-0.3582,0-0.7488-0.1465-1.172-0.4395-0.3907-0.26045-0.5861-1.5952-0.586-4.0044-0.0001-3.6462,0.5371-11.069,1.6115-22.268,0.2278-2.5719,0.4557-5.1438,0.6836-7.7157,0.1954-2.0184,0.4232-3.1416,0.6837-3.3695,0.4232-0.39063,0.7813-0.58596,1.0743-0.586,0.3581,0.00004,0.7651,0.2442,1.2209,0.7325"/>
    <path d="m3229,515c0.065,0.55346,0.098,1.1069,0.098,1.6603,0,3.223-1.2534,6.0065-3.7602,8.3505-2.2463,2.051-4.5415,3.0765-6.8855,3.0765-0.7162,0-1.3185-0.13023-1.8068-0.39067-0.9116-0.45578-1.7255-1.3348-2.4417-2.637-0.6837-1.3348-1.0255-2.7998-1.0255-4.395,0-1.3348,0.2767-2.6207,0.8301-3.8578,2.4743-5.6321,5.1764-8.5621,8.1064-8.79,1.2371-0.0976,2.5068,0.35813,3.809,1.3673,1.6929,1.2697,2.7184,3.1416,3.0766,5.6159m-2.9789-1.8557c-0.3907-0.81387-0.7651-1.3836-1.1232-1.7092-0.5209-0.45576-1.2859-0.74877-2.2951-0.87901l0.049,0.24417c-0.8139,0.19535-1.5952,0.58602-2.344,1.172-1.758,1.4325-3.1579,3.6788-4.1997,6.739-0.1953,0.55346-0.293,1.1883-0.293,1.9045,0,1.172,0.2279,2.2301,0.6837,3.1742,0.6185,1.172,1.4487,1.758,2.4905,1.758,1.0743,0,2.2789-0.52089,3.6137-1.5627,1.2696-0.94411,2.1486-1.9045,2.637-2.8812,0.9441-1.8882,1.4161-3.5648,1.4161-5.0299,0-1.0092-0.2116-1.9859-0.6348-2.93"/>
    <path d="m3256.9,518.95c-0.033,0.2279-1.2046,1.0744-3.516,2.5393-2.6696,1.6604-5.3066,3.0602-7.911,4.1997-3.4509,1.465-6.3647,2.1975-8.7412,2.1975-2.3441,0-4.0695-0.71622-5.1764-2.1487-0.6186-0.78134-0.9278-1.7417-0.9278-2.8812,0-2.7347,1.3999-5.8275,4.1997-9.2784,2.7346-3.3532,5.2089-5.1926,7.4227-5.5182,0.2929-0.0325,0.5697-0.0488,0.8301-0.0488,1.1069,0.00002,1.6604,0.39069,1.6604,1.172,0,0.4558-0.2117,0.96042-0.6349,1.5138-0.4232,0.55347-0.8627,0.83019-1.3185,0.83018-0.1628,0.00001-0.4232-0.0325-0.7813-0.0977-0.3581-0.0977-0.6349-0.14649-0.8302-0.1465-0.1302,0.00001-0.2604,0.0163-0.3906,0.0488-0.8465,0.22791-2.2301,1.579-4.1509,4.0532-2.2138,2.8324-3.3207,5.1764-3.3207,7.032,0,1.172,0.4883,2.0673,1.465,2.6858,0.586,0.35811,1.3511,0.53717,2.2952,0.53717,2.5719,0,6.3321-1.286,11.281-3.8578,2.3439-1.3348,4.7042-2.6696,7.0808-4.0044,0.1302-0.0651,0.2767-0.0977,0.4395-0.0977,0.3256,0.00001,0.586,0.14651,0.7814,0.4395,0.2278,0.26045,0.3092,0.53718,0.2441,0.83017"/>
    <path d="m3284.5,524.18c0.098,0.78134-0.6023,1.4487-2.0998,2.0022-0.6512,0.293-1.3023,0.56972-1.9534,0.83017-1.1395,0.42322-2.458,0.65111-3.9555,0.68367-5.3066,0.13022-11.508-2.8486-18.606-8.9366-0.4232,2.1161-0.6023,4.6392-0.5372,7.5692,0,0.55345,0.098,1.2697,0.293,2.1487,0.2279,0.879,0.3419,1.465,0.3419,1.758,0,0.84644-0.6186,1.2697-1.8557,1.2697-1.0418-0.00001-1.4813-2.458-1.3185-7.3739,0.1953-6.2507,0.9278-12.55,2.1975-18.899,1.0743-5.4693,1.8882-8.318,2.4417-8.5459,0.2604-0.13019,0.5209-0.1953,0.7813-0.19534,0.4558,0.00004,0.8139,0.21165,1.0744,0.63484,0.2929,0.3907,0.4395,0.81392,0.4395,1.2697,0,0.16281-0.2279,0.84648-0.6837,2.051-0.6186,1.4976-1.1395,3.4509-1.5627,5.86-0.2604,1.4325-0.6348,3.63-1.1232,6.5925,2.8649-0.87899,5.4694-1.6603,7.8134-2.344,5.5345-1.5626,9.197-2.4417,10.988-2.637,0.6511-0.0651,0.9766,0.27674,0.9766,1.0255,0,0.45579-0.2116,0.83018-0.6348,1.1232-1.8557,0.42324-3.7276,0.86274-5.6159,1.3185-4.395,1.0418-8.8714,2.5068-13.429,4.395,0.8465,0.91157,1.8068,1.7906,2.8812,2.637,2.637,2.051,5.6484,3.8416,9.0342,5.3717,2.344,1.0418,4.4764,1.5627,6.3972,1.5627,1.3348,0,2.5068-0.24417,3.516-0.73251,0.6837-0.35811,1.1394-0.7325,1.3674-1.1232,0.2604-0.42322,0.7162-0.63483,1.3673-0.63483,0.879,0,1.3673,0.4395,1.465,1.3185"/>
    <path d="m3289.1,493.75c-0.2279,0.48837-0.6674,1.4976-1.3185,3.0277-0.2279,0.61858-0.3907,1.3022-0.4883,2.051-0.065,0.55347-0.1954,0.89531-0.3907,1.0255-0.4883,0.58603-0.9441,0.6837-1.3673,0.293-0.2605-0.22786-0.3907-0.7162-0.3907-1.465,0-1.0092,0.2767-2.0998,0.8302-3.2718,0.032-0.0651,0.3255-0.8627,0.879-2.3928,0.1953-0.55341,0.5371-0.83014,1.0255-0.83017,0.9115,0.00003,1.3185,0.52093,1.2208,1.5627m-0.098,16.31c-0.6836,6.2833-1.0743,10.239-1.172,11.867-0.065,1.2371,0.016,2.2138,0.2442,2.93,0.2279,0.68367,0.3418,1.0743,0.3418,1.172,0,0.22789-0.049,0.52089-0.1465,0.879-0.1302,0.48834-0.5209,0.73251-1.172,0.73251-0.3906,0-0.7813-0.1465-1.172-0.43951-0.3906-0.32555-0.586-1.3836-0.586-3.1742,0-0.0977,0.1628-3.6137,0.4884-10.548,0.1302-2.2789,0.2116-3.5323,0.2441-3.7602,0.1954-1.172,0.6349-1.7743,1.3185-1.8068,0.4884-0.0325,0.8953,0.1628,1.2209,0.586,0.3255,0.39069,0.4557,0.91158,0.3906,1.5627"/>
    <path d="m3309.1,530.33c-0.5209,0-1.0256-0.21161-1.5139-0.63483-0.4558-0.42323-0.6837-0.94412-0.6836-1.5627-0.0001-0.13022,0.016-0.30928,0.049-0.53717,0.065-0.26044,0.098-0.45578,0.098-0.586-0.0001,0.0651-0.081-0.91156-0.2442-2.93-0.1954-1.9208-0.2768-3.9392-0.2442-6.0554,0.1302-4.9484-0.033-7.6017-0.4883-7.9599-0.3581-0.29299-1.286,0.97669-2.7835,3.809-1.4976,2.7998-2.8324,5.7461-4.0044,8.8389-0.4558,1.2046-0.8953,2.5882-1.3185,4.1509-0.2279,0.84645-0.4558,1.3511-0.6837,1.5138-0.3581,0.16278-0.6674,0.24417-0.9278,0.24417-0.9116,0-1.3673-0.73251-1.3673-2.1975,0-0.35811,0.049-1.5138,0.1465-3.4672,0.1302-2.1161,0.2116-4.1834,0.2441-6.2019,0.065-3.223,0.2767-6.153,0.6349-8.79,0.1302-0.74876,0.4883-1.1232,1.0743-1.1232,0.6511,0.00002,1.172,0.26047,1.5627,0.78134,0.1302,0.1628,0.1953,0.43952,0.1953,0.83017,0,0.26047-0.081,1.0255-0.2442,2.2952-0.1302,1.2371-0.2116,2.3929-0.2441,3.4672-0.033,2.2138-0.049,3.4021-0.049,3.5648,3.7765-7.8459,6.5926-11.574,8.4482-11.183,1.1395,0.22792,1.872,1.579,2.1976,4.0532,0.2278,1.6278,0.3255,4.688,0.293,9.1807-0.0001,4.2648,0.049,6.56,0.1465,6.8855,0.5534,1.1394,0.8301,1.9371,0.8301,2.3928,0,0.81389-0.3744,1.2208-1.1231,1.2208"/>
    <path d="m3346.9,530.52c0.065,0.13022,0.098,0.24416,0.098,0.34183,0,0.81389-0.9767,1.1557-2.93,1.0255-0.6512-0.0326-1.0744-0.19534-1.2697-0.48834-0.1628-0.26045-0.3256-0.53717-0.4883-0.83017-1.6278-0.0651-3.2719-0.0488-4.9322,0.0488-0.5535,0.0326-2.2627,0.21161-5.1275,0.53717,0.4883,1.0743,0.7324,2.4742,0.7325,4.1997-0.0001,3.3207-1.0256,7.0157-3.0766,11.085-1.1394,2.2138-2.7184,4.1346-4.7368,5.7624-2.4417,1.9859-4.9485,2.9788-7.5204,2.9788-1.8882-0.00002-3.7276-0.56975-5.5182-1.7092-2.637-1.6604-3.9555-3.9881-3.9555-6.9832,0-2.6045,1.0906-5.1113,3.2718-7.5204,2.6371-2.93,5.3555-5.095,8.1553-6.4949,2.051-1.0418,5.0949-2.0347,9.1318-2.9788-0.4232-0.65111-0.9115-1.2208-1.465-1.7092-1.3022-1.172-2.7998-1.8231-4.4927-1.9534-0.4883-0.0326-0.9604-0.0488-1.4161-0.0488-1.6604,0-3.2231,0.27673-4.6881,0.83017-1.465,0.52089-2.2951,0.78134-2.4905,0.78134-0.3581,0-0.7162-0.11395-1.0743-0.34184-0.3256-0.26044-0.4883-0.55344-0.4883-0.879,0-0.19533,0.065-0.39067,0.1953-0.586,0.2604-0.42323,0.9278-0.81389,2.0022-1.172-0.4558-1.0743-0.6512-2.1161-0.586-3.1254,0.065-0.97666,0.5697-2.1487,1.5138-3.516,0.293-0.3581,1.6115-1.9533,3.9555-4.7857-0.9441-0.58598-1.3999-1.0906-1.3673-1.5138,0.065-0.84643,0.4232-1.2696,1.0743-1.2697,0.293,0.00002,0.6186,0.14652,0.9767,0.4395,0.1302,0.0977,0.4883,0.14652,1.0743,0.1465,0.9116,0.00002,2.9626-0.19532,6.1531-0.586,3.1904-0.39065,5.2414-0.58599,6.153-0.586,0.4557,0.00001,0.7813,0.0326,0.9767,0.0977,0.7813,0.22791,1.1719,0.55347,1.172,0.97667-0.0001,0.29302-0.2117,0.6023-0.6349,0.92784-1.3673,0.0326-3.0928,0.13024-5.1763,0.293-0.9442,0.13024-2.165,0.32558-3.6625,0.58601,0.4232,0.42324,0.8138,0.83018,1.172,1.2208,0.7813,1.0092,1.2208,1.9371,1.3185,2.7835,0.1627,1.3999-0.2117,2.7021-1.1232,3.9067-0.6186,0.84645-1.758,1.9208-3.4184,3.223,0.5535,0.13023,1.6767,0.6674,3.3696,1.6115,1.1394,0.8139,2.2951,2.0673,3.4671,3.7602,3.6137-0.39067,6.4786-0.55345,8.5948-0.48834,4.1345,0.0977,6.4948,0.76506,7.0808,2.0022m-20.315-13.722c-0.3582-1.9859-1.579-3.1904-3.6626-3.6137-2.0184,1.7906-3.5811,3.5811-4.688,5.3717-0.879,1.3348-1.3348,2.3603-1.3673,3.0765-0.065,0.61856,0.065,1.3348,0.3906,2.1487,0.6512-0.13022,1.7906-0.45577,3.4184-0.97667,1.5627-0.65111,2.8812-1.4487,3.9555-2.3928,1.4976-1.2371,2.1487-2.4417,1.9534-3.6137m3.1253,14.894c-2.0836,0.39067-4.0369,0.94411-5.86,1.6603-4.3951,1.6929-7.8297,4.0532-10.304,7.0809-1.8557,2.2463-2.7835,4.2648-2.7835,6.0554,0,1.758,0.9115,3.3207,2.7347,4.688,1.2045,0.91154,2.5556,1.3673,4.0531,1.3673,1.7255-0.00003,3.4672-0.56975,5.2252-1.7092,1.6278-1.0744,2.93-2.3929,3.9067-3.9555,2.5394-4.0369,3.809-7.6506,3.809-10.841,0-1.465-0.2604-2.9137-0.7813-4.3462"/>
    <path d="m3384,522.86c0,0.74878-0.1302,1.286-0.3907,1.6115,0.065,0.39067,0.098,0.78134,0.098,1.172,0,1.465-0.4883,2.1324-1.465,2.0022-0.9767-0.13023-1.465-0.86273-1.465-2.1975,0-0.45577,0.049-0.91155,0.1465-1.3673-0.4884-0.32555-1.3511-0.879-2.5882-1.6603-1.4976-0.879-4.3299-4.5903-8.497-11.134-1.465-2.2789-3.0114-5.3066-4.6392-9.083-1.6604,11.264-2.4905,18.459-2.4905,21.584,0,0.78134,0.065,1.2371,0.1953,1.3673,0.293,0.32556,0.4395,1.1232,0.4395,2.3928,0,1.9533-0.5046,2.93-1.5138,2.93-0.3581,0-0.7651-0.1465-1.2209-0.4395-0.1953-0.13022-0.293-0.92784-0.293-2.3928,0-2.344,0.2116-6.0065,0.6349-10.988,0.3581-4.3299,0.6511-7.1622,0.879-8.497,0.1953-1.2371,0.3418-3.7764,0.4395-7.618,0.098-3.1904,0.2767-4.981,0.5371-5.3717,0.3581-0.58597,0.7977-0.87897,1.3185-0.87901,0.4558,0.00004,0.8302,0.22793,1.1232,0.68367,0.6837,1.1069,1.4976,3.0928,2.4417,5.9577,1.0418,3.0277,2.0998,5.4857,3.1742,7.3739,3.4509,6.0879,6.0879,9.7667,7.911,11.036,0.3907,0.29301,1.0418,0.63484,1.9534,1.0255-0.1954-10.157-0.1954-16.522,0-19.094,0.033-0.55342,0.049-1.1069,0.049-1.6603,0-0.74875-0.049-1.6115-0.1465-2.5882-0.065-1.0092-0.098-1.644-0.098-1.9045,0-1.1069,0.5046-1.6603,1.5139-1.6603,1.1394,0.00004,1.7091,1.872,1.7091,5.6159,0,1.2697-0.081,2.9952-0.2441,5.1764-0.1303,2.1487-0.1954,3.4021-0.1954,3.7602,0,0.52091-0.049,1.4813-0.1465,2.8812-0.098,1.3999-0.1465,2.6045-0.1465,3.6137,0,2.0836,0.1628,4.3625,0.4884,6.8367,0.3255,0.65112,0.4883,1.1557,0.4883,1.5138"/>
    <path d="m3399.8,527.64c-0.1302,0.16277-0.3744,0.22789-0.7325,0.19533-0.3581-0.0326-0.6348-0.1465-0.8301-0.34184-0.1954-0.22788-0.3582-0.61855-0.4884-1.172-2.4417,1.6278-4.6066,2.4417-6.4948,2.4417-1.2046,0-2.1487-0.35812-2.8324-1.0743-0.6837-0.71623-1.0255-1.6441-1.0255-2.7835,0-1.6603,0.6023-3.2881,1.8069-4.8834,1.2045-1.6278,2.5881-2.5556,4.1508-2.7835,2.4091-0.32554,4.1834,1.2046,5.3229,4.5904,0.5208-1.3348,0.7813-2.8161,0.7813-4.4439,0-2.2463-0.5372-4.3462-1.6115-6.2995-0.7162-1.3348-1.8069-2.0022-3.2719-2.0022-0.9115,0.00002-1.7905,0.24418-2.637,0.7325-0.8139,0.4558-1.2534,0.87902-1.3185,1.2697,0.033,0.1628-0.098,0.24419-0.3906,0.24417-0.879,0.00002-1.3511-0.37437-1.4162-1.1232-0.065-0.81388,0.5534-1.5789,1.8557-2.2952,1.3022-0.74876,2.6858-1.1232,4.1508-1.1232,1.1069,0.00002,2.0185,0.22791,2.7347,0.68367,2.8974,1.8231,4.3462,5.095,4.3462,9.8156,0,2.2138-0.3256,4.5578-0.9767,7.032-0.4883,2.051-0.8627,3.1579-1.1232,3.3207m-2.7835-3.9067c-0.9441-2.93-1.9533-4.2974-3.0277-4.102-1.4324,0.26045-2.5393,0.9604-3.3206,2.0998-0.6512,0.91157-0.9767,1.9045-0.9767,2.9788,0,0.74878,0.1628,1.2208,0.4883,1.4162,0.3256,0.19534,0.7162,0.29301,1.172,0.29301,1.4976,0,3.3858-0.89528,5.6647-2.6858"/>
    <path d="m3426,507.08c0.033,0.65113-0.3582,0.97669-1.1721,0.97667-0.1953,0.00002-0.4883-0.0163-0.879-0.0488-0.3906-0.0651-0.6511-0.0976-0.7813-0.0977-2.2138,0.00002-4.9322,0.35813-8.1552,1.0743-0.7162,5.9577-1.0743,10.939-1.0743,14.943,0,0.87901,0.016,1.6766,0.049,2.3928,0,0.0326,0.032,0.22789,0.098,0.586,0.098,0.35812,0.1465,0.65112,0.1465,0.87901,0,0.84644-0.4558,1.2371-1.3674,1.172-0.586-0.0326-1.0418-0.35811-1.3673-0.97667-0.2605-0.52089-0.3744-1.0906-0.3419-1.7092,0-1.7254,0.1791-5.1275,0.5372-10.206,0.1953-1.4976,0.4558-3.6788,0.7814-6.5437-0.7814,0.19535-2.165,0.65113-4.1509,1.3673-0.7488,0.35813-1.5138,0.83019-2.2952,1.4162-0.5209,0.39069-0.879,0.55346-1.0743,0.48834-1.0092-0.26043-1.5139-0.73249-1.5139-1.4162,0-0.84643,1.0255-1.6603,3.0766-2.4417,1.1394-0.45576,3.2555-1.1557,6.3483-2.0998,0.2279-1.3348,0.6186-4.4601,1.172-9.376,0.033-0.19531,0.033-0.52087,0-0.97668-0.065-0.58597-0.098-0.99291-0.098-1.2208,0-1.2696,0.3743-1.9045,1.1231-1.9045,1.0092,0.00003,1.5139,1.172,1.5139,3.516,0,0.74881-0.049,1.6278-0.1465,2.637-0.1954,1.2371-0.5372,3.5323-1.0255,6.8855,2.6695-0.52087,5.2414-0.7162,7.7157-0.586,0.9115,0.0326,1.5138,0.0977,1.8068,0.19533,0.6837,0.1628,1.0418,0.52091,1.0744,1.0743"/>
    <path d="m3437.5,510.55c-0.3255,2.3115-0.9441,5.1601-1.8556,8.5459-1.3674,4.8834-2.6696,7.618-3.9067,8.204-0.5209,0.26045-1.0255,0.39067-1.5139,0.39067-3.5811,0-5.567-6.3809-5.9577-19.143-0.032-0.6511,0.065-1.1069,0.293-1.3673,0.2605-0.29298,0.5698-0.40693,0.9279-0.34184,1.0092,0.19536,1.4975,0.81392,1.465,1.8557-0.1628,4.1997,0.1302,7.9436,0.879,11.232,0.6836,3.1579,1.4975,4.7369,2.4417,4.7369,0.3255,0,0.6511-0.27672,0.9766-0.83017,1.0418-1.8231,1.9045-4.4438,2.5882-7.8622,0.4558-2.4091,0.6999-4.2811,0.7325-5.6159,0.033-1.2371,0.5534-1.8231,1.5627-1.758,0.7813,0.0326,1.2371,0.68369,1.3673,1.9533"/>
    <path d="m3460,507.18c0.4557,0.1628,0.6836,0.58602,0.6837,1.2697-0.0001,0.58602-0.3745,0.97669-1.1232,1.172-0.2605,0.0651-0.6349,0.0163-1.1232-0.1465-0.4883-0.16276-0.8627-0.24415-1.1232-0.24417-0.4232,0.00002-0.8464,0.13024-1.2696,0.39067-3.0603,1.7255-6.4949,5.4856-10.304,11.281-0.7162,1.0744-1.172,2.5231-1.3674,4.3462-0.1627,1.8231-0.3092,2.8161-0.4395,2.9788-0.293,0.35811-0.6511,0.53717-1.0743,0.53717-0.5209,0-0.9604-0.19534-1.3185-0.58601-0.2605-0.26044-0.3907-0.71622-0.3907-1.3673,0-0.42322,0.098-1.4162,0.293-2.9788,0.2605-1.7906,0.4232-3.3695,0.4884-4.7369,0.065-1.2046,0.098-2.3114,0.098-3.3207,0-2.4742-0.179-4.4438-0.5371-5.9089-0.3582-1.465-0.5372-2.0673-0.5372-1.8068,0-0.0651,0.033-0.14648,0.098-0.24417,0.3581-0.58598,0.8138-0.87898,1.3673-0.879,0.3581,0.00002,0.7162,0.1628,1.0743,0.48834,0.586,0.55346,0.9116,2.1487,0.9767,4.7857,0.033,1.2697,0.049,3.2393,0.049,5.9089,0.6837-0.91155,1.3674-1.7743,2.0511-2.5882,1.6603-1.9859,3.1416-3.5811,4.4438-4.7857,1.5952-1.4976,2.5719-2.3766,2.93-2.637,1.2697-0.87899,2.5394-1.3185,3.809-1.3185,0.7162,0.00002,1.465,0.13024,2.2464,0.39067"/>
    <path d="m3480.2,517.19c0.4883,0.35812,0.7324,0.79763,0.7325,1.3185-0.0001,0.71623-0.3745,1.3348-1.1232,1.8557-1.8557,1.3674-3.7114,2.7347-5.567,4.102-3.6463,2.4417-6.6089,3.6625-8.8878,3.6625-2.0835,0-3.9066-1.0581-5.4693-3.1742-1.3999-1.9859-2.0999-4.0532-2.0999-6.2019,0-2.9951,1.4325-5.6158,4.2974-7.8622,2.6696-2.1161,5.5345-3.1742,8.5947-3.1742,1.6603,0.00002,3.0602,0.37441,4.1997,1.1232,0.1302,0.0651,0.1953,0.17907,0.1953,0.34183,0,0.55347-0.8139,1.4976-2.4416,2.8324-1.3674,1.1395-2.865,2.1975-4.4927,3.1742-2.1813,1.3348-4.6392,2.0836-7.3739,2.2464-0.098,0.39068-0.1465,0.86273-0.1465,1.4162,0,1.4325,0.4395,2.8324,1.3185,4.1997,1.1394,1.7906,2.5068,2.6533,4.102,2.5882,1.6278-0.0651,4.0044-1.1394,7.1297-3.223,2.6045-1.758,4.1509-2.9788,4.6392-3.6625,0.6837-1.2046,1.2371-1.8068,1.6604-1.8068,0.2278,0.00001,0.472,0.0814,0.7325,0.24417m-8.8878-7.1297c-1.7905,0.00002-3.5811,0.4558-5.3716,1.3673-1.5627,0.78135-2.8975,1.872-4.0044,3.2718,0.586-0.0325,1.172-0.13021,1.758-0.293,1.3999-0.3581,2.751-0.92783,4.0532-1.7092,1.3348-0.81388,2.523-1.6929,3.5648-2.637"/>
    <path d="m3488.9,491.65c0,0.52093-0.3581,2.1975-1.0743,5.0299-0.293,1.2046-0.586,2.4092-0.879,3.6137-0.3907,1.3674-0.8302,2.0348-1.3185,2.0022-0.4884-0.0325-0.7325-0.7162-0.7325-2.051,0-1.2045,0.179-2.4254,0.5371-3.6625,0.2279-0.91153,0.5372-2.3114,0.9279-4.1997,0.1953-0.84641,0.4395-1.3999,0.7325-1.6603,0.1953-0.19529,0.4558-0.29296,0.7813-0.293,0.6837,0.00004,1.0255,0.40698,1.0255,1.2208"/>
    <path d="m3501.9,504.64c0.1302,0.71625-0.2116,1.0744-1.0255,1.0743-0.3581,0.00002-0.7325-0.0976-1.1232-0.293-0.3907-0.19531-0.6348-0.29298-0.7325-0.293-0.7162,0.0326-1.4487,0.35813-2.1975,0.97667-1.3022,1.2046-2.5882,2.3929-3.8579,3.5648-1.1394,1.0092-2.0347,2.2138-2.6858,3.6137-0.586,1.2697-0.8139,2.2952-0.6837,3.0765,0.2279,1.3348,0.9604,2.344,2.1975,3.0277,0,0.00001,1.3999,0.53718,4.1997,1.6115,2.2789,0.87901,3.5811,1.4162,3.9067,1.6115,1.1069,0.68367,1.7417,1.6603,1.9045,2.93,0.098,0.87901-1.2697,2.1975-4.102,3.9555-2.6696,1.6603-4.2323,2.458-4.688,2.3928-1.172-0.0326-1.758-0.47206-1.758-1.3185,0-0.26045,0.098-0.50462,0.293-0.7325,1.3022-0.61856,2.6044-1.2371,3.9067-1.8557,2.4091-1.2046,3.5648-2.1324,3.4671-2.7835-0.098-0.586-1.1231-1.1883-3.0765-1.8068-2.7021-0.84644-4.5252-1.5464-5.4693-2.0998-2.0185-1.1394-3.1254-2.6533-3.3207-4.5415-0.293-2.4742,0.7488-5.0787,3.1253-7.8134,1.0418-1.172,3.1091-3.0439,6.2019-5.6159,0.9767-0.81386,2.0184-0.97664,3.1253-0.48833,0.4558,0.26047,0.9279,0.53719,1.4162,0.83017,0.6186,0.42325,0.9441,0.7488,0.9767,0.97667"/>
    <path d="m3555.1,505.18c0.033,3.6788-2.9952,7.911-9.0831,12.697-2.93,2.3115-8.1226,5.7135-15.578,10.206-0.1628,0.0651-0.4069,0.42322-0.7325,1.0743-0.3255,0.65111-0.8139,0.99294-1.465,1.0255-0.1302,0-0.2604-0.0651-0.3906-0.19533-0.1303-0.13023-0.2117-0.19534-0.2442-0.19534-0.1302,0.0326-0.3256,0.0163-0.586-0.0488-0.586-0.586-0.7325-1.3836-0.4395-2.3928,0.1302-0.39066,0.2441-0.79761,0.3418-1.2208-0.4883-6.5762-0.6674-11.362-0.5372-14.357,0.1303-2.7347,0.4233-7.5366,0.8791-14.406l-3.6626,1.2697c-0.4232,0.0651-0.8627-0.0814-1.3185-0.4395-0.4232-0.39064-0.6348-0.79759-0.6348-1.2208,0-0.42319,0.2116-0.76503,0.6348-1.0255,0.879-0.55341,2.4091-1.058,4.5904-1.5138,2.2138-0.4883,4.4113-0.74874,6.5925-0.78133,5.567-0.13019,10.548,0.96042,14.943,3.2718,4.4275,2.2789,6.6576,5.0299,6.6902,8.2529m-2.93,0.19533c-0.0001-2.637-2.0022-4.8996-6.0066-6.7879-3.6137-1.6929-7.3413-2.523-11.183-2.4905-2.1487,0.0326-3.63,0.19536-4.4439,0.48833-0.7813,6.5437-1.286,12.501-1.5138,17.873-0.1303,3.3207,0.1465,6.9018,0.8301,10.743,3.5812-1.9859,6.7391-3.9067,9.4737-5.7624,6.6414-4.4927,10.711-8.3668,12.208-11.622,0.4232-0.87898,0.6348-1.6929,0.6349-2.4417"/>
    <path d="m3560.3,493.75c-0.2279,0.48837-0.6674,1.4976-1.3185,3.0277-0.2279,0.61858-0.3907,1.3022-0.4884,2.051-0.065,0.55347-0.1953,0.89531-0.3906,1.0255-0.4884,0.58603-0.9442,0.6837-1.3674,0.293-0.2604-0.22786-0.3907-0.7162-0.3907-1.465,0-1.0092,0.2768-2.0998,0.8302-3.2718,0.033-0.0651,0.3256-0.8627,0.879-2.3928,0.1953-0.55341,0.5372-0.83014,1.0255-0.83017,0.9116,0.00003,1.3185,0.52093,1.2209,1.5627m-0.098,16.31c-0.6837,6.2833-1.0744,10.239-1.172,11.867-0.065,1.2371,0.016,2.2138,0.2442,2.93,0.2278,0.68367,0.3418,1.0743,0.3418,1.172,0,0.22789-0.049,0.52089-0.1465,0.879-0.1302,0.48834-0.5209,0.73251-1.172,0.73251-0.3907,0-0.7814-0.1465-1.172-0.43951-0.3907-0.32555-0.586-1.3836-0.586-3.1742,0-0.0977,0.1628-3.6137,0.4883-10.548,0.1302-2.2789,0.2116-3.5323,0.2442-3.7602,0.1953-1.172,0.6348-1.7743,1.3185-1.8068,0.4883-0.0325,0.8953,0.1628,1.2208,0.586,0.3256,0.39069,0.4558,0.91158,0.3907,1.5627"/>
    <path d="m3588.2,505.08c0,1.465-0.8953,2.9463-2.6858,4.4439-0.9767,0.84646-3.0115,3.5486-6.1042,8.1064-2.9301,4.2974-4.6392,6.9669-5.1276,8.0087-0.7487,1.758-1.5952,2.637-2.5393,2.637-0.2279,0-0.4558-0.0651-0.6837-0.19533-0.4232-0.22789-0.765-0.71623-1.0255-1.465-0.1628-0.61856-0.3418-1.2371-0.5371-1.8557-0.6837-2.8974-1.5302-6.2018-2.5394-9.9132-0.7813-2.1812-1.172-3.4672-1.172-3.8578,0-0.61855,0.3093-0.92782,0.9278-0.92784,0.5209,0.00002,1.0581,0.37441,1.6116,1.1232,0.5534,0.7488,0.9766,1.6766,1.2696,2.7835,0.1628,1.0418,0.6023,3.1579,1.3185,6.3484,0.1628,0.65112,0.4721,1.8231,0.9279,3.516,0.9766-1.4324,2.9462-4.2485,5.9088-8.4482,2.3115-3.0602,4.6718-6.267,7.0809-9.6202,0.6836-1.6278,1.3836-2.4416,2.0998-2.4417,0.3581,0.00003,0.6511,0.19536,0.879,0.58601,0.2605,0.39069,0.3907,0.78136,0.3907,1.172"/>
    <path d="m3607.6,517.19c0.4883,0.35812,0.7324,0.79763,0.7325,1.3185-0.0001,0.71623-0.3744,1.3348-1.1232,1.8557-1.8557,1.3674-3.7114,2.7347-5.567,4.102-3.6463,2.4417-6.6089,3.6625-8.8877,3.6625-2.0836,0-3.9067-1.0581-5.4694-3.1742-1.3999-1.9859-2.0998-4.0532-2.0998-6.2019,0-2.9951,1.4324-5.6158,4.2973-7.8622,2.6696-2.1161,5.5345-3.1742,8.5947-3.1742,1.6603,0.00002,3.0602,0.37441,4.1997,1.1232,0.1302,0.0651,0.1953,0.17907,0.1953,0.34183,0,0.55347-0.8139,1.4976-2.4416,2.8324-1.3674,1.1395-2.865,2.1975-4.4927,3.1742-2.1813,1.3348-4.6392,2.0836-7.3739,2.2464-0.098,0.39068-0.1465,0.86273-0.1465,1.4162,0,1.4325,0.4395,2.8324,1.3185,4.1997,1.1395,1.7906,2.5068,2.6533,4.102,2.5882,1.6278-0.0651,4.0044-1.1394,7.1297-3.223,2.6045-1.758,4.1509-2.9788,4.6392-3.6625,0.6837-1.2046,1.2371-1.8068,1.6604-1.8068,0.2278,0.00001,0.472,0.0814,0.7325,0.24417m-8.8877-7.1297c-1.7906,0.00002-3.5812,0.4558-5.3717,1.3673-1.5627,0.78135-2.8975,1.872-4.0044,3.2718,0.586-0.0325,1.172-0.13021,1.758-0.293,1.3999-0.3581,2.751-0.92783,4.0532-1.7092,1.3348-0.81388,2.5231-1.6929,3.5649-2.637"/>
    <path d="m3629.2,507.18c0.4558,0.1628,0.6836,0.58602,0.6837,1.2697-0.0001,0.58602-0.3744,0.97669-1.1232,1.172-0.2605,0.0651-0.6349,0.0163-1.1232-0.1465-0.4883-0.16276-0.8627-0.24415-1.1231-0.24417-0.4233,0.00002-0.8465,0.13024-1.2697,0.39067-3.0603,1.7255-6.4949,5.4856-10.304,11.281-0.7162,1.0744-1.172,2.5231-1.3673,4.3462-0.1628,1.8231-0.3093,2.8161-0.4395,2.9788-0.2931,0.35811-0.6512,0.53717-1.0744,0.53717-0.5209,0-0.9604-0.19534-1.3185-0.58601-0.2604-0.26044-0.3907-0.71622-0.3907-1.3673,0-0.42322,0.098-1.4162,0.293-2.9788,0.2605-1.7906,0.4233-3.3695,0.4884-4.7369,0.065-1.2046,0.098-2.3114,0.098-3.3207,0-2.4742-0.179-4.4438-0.5371-5.9089-0.3581-1.465-0.5372-2.0673-0.5372-1.8068,0-0.0651,0.033-0.14648,0.098-0.24417,0.3581-0.58598,0.8139-0.87898,1.3673-0.879,0.3581,0.00002,0.7162,0.1628,1.0744,0.48834,0.5859,0.55346,0.9115,2.1487,0.9766,4.7857,0.033,1.2697,0.049,3.2393,0.049,5.9089,0.6836-0.91155,1.3673-1.7743,2.051-2.5882,1.6603-1.9859,3.1416-3.5811,4.4438-4.7857,1.5952-1.4976,2.5719-2.3766,2.93-2.637,1.2697-0.87899,2.5394-1.3185,3.8091-1.3185,0.7162,0.00002,1.4649,0.13024,2.2463,0.39067"/>
    <path d="m3643.9,504.64c0.1302,0.71625-0.2117,1.0744-1.0255,1.0743-0.3582,0.00002-0.7326-0.0976-1.1232-0.293-0.3907-0.19531-0.6349-0.29298-0.7325-0.293-0.7163,0.0326-1.4488,0.35813-2.1975,0.97667-1.3023,1.2046-2.5882,2.3929-3.8579,3.5648-1.1394,1.0092-2.0347,2.2138-2.6858,3.6137-0.586,1.2697-0.8139,2.2952-0.6837,3.0765,0.2279,1.3348,0.9604,2.344,2.1975,3.0277,0,0.00001,1.3999,0.53718,4.1997,1.6115,2.2789,0.87901,3.5811,1.4162,3.9067,1.6115,1.1069,0.68367,1.7417,1.6603,1.9045,2.93,0.098,0.87901-1.2697,2.1975-4.102,3.9555-2.6696,1.6603-4.2323,2.458-4.688,2.3928-1.1721-0.0326-1.7581-0.47206-1.7581-1.3185,0-0.26045,0.098-0.50462,0.293-0.7325,1.3023-0.61856,2.6045-1.2371,3.9067-1.8557,2.4091-1.2046,3.5649-2.1324,3.4672-2.7835-0.098-0.586-1.1232-1.1883-3.0765-1.8068-2.7021-0.84644-4.5253-1.5464-5.4694-2.0998-2.0184-1.1394-3.1253-2.6533-3.3206-4.5415-0.293-2.4742,0.7487-5.0787,3.1253-7.8134,1.0418-1.172,3.1091-3.0439,6.2019-5.6159,0.9766-0.81386,2.0184-0.97664,3.1253-0.48833,0.4558,0.26047,0.9278,0.53719,1.4162,0.83017,0.6185,0.42325,0.9441,0.7488,0.9767,0.97667"/>
    <path d="m3652.4,493.75c-0.2279,0.48837-0.6674,1.4976-1.3185,3.0277-0.2279,0.61858-0.3907,1.3022-0.4883,2.051-0.065,0.55347-0.1954,0.89531-0.3907,1.0255-0.4883,0.58603-0.9441,0.6837-1.3673,0.293-0.2605-0.22786-0.3907-0.7162-0.3907-1.465,0-1.0092,0.2767-2.0998,0.8302-3.2718,0.033-0.0651,0.3255-0.8627,0.879-2.3928,0.1953-0.55341,0.5371-0.83014,1.0255-0.83017,0.9115,0.00003,1.3185,0.52093,1.2208,1.5627m-0.098,16.31c-0.6836,6.2833-1.0743,10.239-1.172,11.867-0.065,1.2371,0.016,2.2138,0.2442,2.93,0.2279,0.68367,0.3418,1.0743,0.3418,1.172,0,0.22789-0.049,0.52089-0.1465,0.879-0.1302,0.48834-0.5209,0.73251-1.172,0.73251-0.3906,0-0.7813-0.1465-1.172-0.43951-0.3906-0.32555-0.586-1.3836-0.586-3.1742,0-0.0977,0.1628-3.6137,0.4884-10.548,0.1302-2.2789,0.2116-3.5323,0.2441-3.7602,0.1954-1.172,0.6349-1.7743,1.3185-1.8068,0.4884-0.0325,0.8953,0.1628,1.2209,0.586,0.3255,0.39069,0.4558,0.91158,0.3906,1.5627"/>
    <path d="m3678.3,507.08c0.032,0.65113-0.3582,0.97669-1.172,0.97667-0.1954,0.00002-0.4884-0.0163-0.879-0.0488-0.3907-0.0651-0.6512-0.0976-0.7814-0.0977-2.2138,0.00002-4.9322,0.35813-8.1552,1.0743-0.7162,5.9577-1.0743,10.939-1.0743,14.943,0,0.87901,0.016,1.6766,0.049,2.3928,0,0.0326,0.032,0.22789,0.098,0.586,0.098,0.35812,0.1465,0.65112,0.1465,0.87901,0,0.84644-0.4558,1.2371-1.3674,1.172-0.586-0.0326-1.0418-0.35811-1.3673-0.97667-0.2605-0.52089-0.3744-1.0906-0.3418-1.7092-0.0001-1.7254,0.179-5.1275,0.5371-10.206,0.1954-1.4976,0.4558-3.6788,0.7814-6.5437-0.7814,0.19535-2.165,0.65113-4.1509,1.3673-0.7488,0.35813-1.5138,0.83019-2.2952,1.4162-0.5209,0.39069-0.879,0.55346-1.0743,0.48834-1.0092-0.26043-1.5138-0.73249-1.5138-1.4162,0-0.84643,1.0255-1.6603,3.0765-2.4417,1.1394-0.45576,3.2555-1.1557,6.3483-2.0998,0.2279-1.3348,0.6186-4.4601,1.172-9.376,0.033-0.19531,0.033-0.52087,0-0.97668-0.065-0.58597-0.098-0.99291-0.098-1.2208,0-1.2696,0.3743-1.9045,1.1231-1.9045,1.0093,0.00003,1.5139,1.172,1.5139,3.516,0,0.74881-0.049,1.6278-0.1465,2.637-0.1954,1.2371-0.5372,3.5323-1.0255,6.8855,2.6695-0.52087,5.2414-0.7162,7.7157-0.586,0.9115,0.0326,1.5138,0.0977,1.8068,0.19533,0.6837,0.1628,1.0418,0.52091,1.0744,1.0743"/>
    <path d="m3693.4,514.85c-0.4558,4.6229-1.2209,11.964-2.2952,22.024-0.2279,2.051-0.5209,4.3462-0.879,6.8855-0.2604,1.8231-0.3907,2.8974-0.3907,3.223,0,0.16276,0.016,0.27671,0.049,0.34184,0.4557,0.58598,0.6836,1.2371,0.6837,1.9533-0.0001,0.84643-0.5535,1.2859-1.6604,1.3185-1.3673,0.0325-2.051-0.48836-2.051-1.5627,0-0.94413,0.1953-1.465,0.586-1.5627,0.2279-0.0651,0.8627-5.2415,1.9045-15.529,0.6837-6.7716,1.0743-12.632,1.172-17.58-5.7949,7.1623-9.6039,10.727-11.427,10.695-0.9442-0.0326-1.4162-1.0906-1.4162-3.1742,0-1.0743,0.4395-4.7043,1.3185-10.89,0.2604-1.9208,0.4069-2.9626,0.4395-3.1254,0.1953-0.81387,0.5372-1.2859,1.0255-1.4162,0.2604-0.0976,0.6186,0.0163,1.0743,0.34184,0.4884,0.32558,0.7488,0.68369,0.7814,1.0743,0,0.22791-0.3256,1.9859-0.9767,5.274-0.6511,3.3858-0.9767,5.6159-0.9767,6.6902,0,0.65113,0.1303,0.97668,0.3907,0.97667,0.5209,0.00001,1.7092-0.99294,3.5649-2.9788,0.7487-0.81389,2.6207-2.9626,5.6158-6.446,0.033-0.0325,0.293-0.50459,0.7814-1.4162,0.3255-0.58598,0.6836-0.87898,1.0743-0.879,0.1628,0.00002,0.3418,0.0326,0.5372,0.0977,0.7813,0.29302,1.1719,1.6604,1.172,4.102-0.0001,0.55347-0.033,1.0744-0.098,1.5627"/>
   </g>
  </g>
 </g>
</svg>
