<?xml version="1.0" encoding="UTF-8"?>
<svg id="Layer_1" data-name="Layer 1" xmlns="http://www.w3.org/2000/svg" viewBox="0 0 782.41 98.12">
  <defs>
    <style>
      .cls-1 {
        font-family: HelveticaNeue-Thin, 'Helvetica Neue';
        font-size: 18px;
        font-weight: 200;
      }

      .cls-2 {
        letter-spacing: 2.26em;
      }

      .cls-3 {
        letter-spacing: 2.26em;
      }

      .cls-4 {
        fill: #b9dfc5;
      }

      .cls-4, .cls-5, .cls-6 {
        stroke-width: 0px;
      }

      .cls-7 {
        letter-spacing: 0em;
      }

      .cls-8 {
        letter-spacing: 2.39em;
      }

      .cls-9 {
        letter-spacing: 2.39em;
      }

      .cls-5 {
        fill: #51b688;
      }

      .cls-10 {
        letter-spacing: -.01em;
      }

      .cls-11 {
        letter-spacing: 1.96em;
      }

      .cls-12 {
        letter-spacing: 1.96em;
      }

      .cls-13 {
        letter-spacing: 0em;
      }

      .cls-14 {
        letter-spacing: -.03em;
      }

      .cls-15 {
        letter-spacing: -.01em;
      }

      .cls-16 {
        font-family: DomusTitling, 'Domus Titling';
        font-size: 24px;
      }

      .cls-17 {
        fill: #231f20;
      }

      .cls-6 {
        fill: #2d6b50;
      }

      .cls-18 {
        letter-spacing: 0em;
      }
    </style>
  </defs>
  <g>
    <path class="cls-6" d="M466.01,61.34V20.52c0-6.54-4.94-12.23-11.47-12.66-.29-.02-.58-.03-.88-.03-11.15,0-16.79,6.43-16.79,14.4,0,5.31,3.38,10.56,6.7,13.75.9.9,1.18,1.93,1.19,2.96.04,2.51-1.85,4.48-4.34,4.18-.69-.08-1.25-.36-1.9-.9-5.97-4.38-9.82-10.62-9.82-18.46,0-14.21,11.02-23.77,24.96-23.77,8.5,0,15,3.19,25.49,14.87l48.46,54.3s0,0,0,0V3.98c0-2.66,1.99-3.98,4.12-3.98,1.99,0,4.12,1.33,4.12,3.98v67.45c0,6.77-1.99,8.1-4.12,8.63-2.92.8-6.24-.93-8.1-3.05l-49.26-55.23-.13-.13v44.08c0,8.1-3.45,14.47-13.28,14.47-3.45,0-8.1-.53-11.42-4.65-1.59-2.12-1.06-4.51.4-5.71,1.59-1.33,4.12-1.46,5.97.4,1.33,1.33,3.05,2.12,4.91,2.12,3.85,0,5.18-2.12,5.18-11.02Z"/>
    <path class="cls-6" d="M561.08,27.62c14.74,0,26.16,9.16,26.16,26.42s-11.42,26.29-26.16,26.29-25.89-8.9-25.89-26.29,11.42-26.42,25.89-26.42ZM561.08,35.18c-9.69,0-17.26,6.9-17.26,18.85s7.57,18.72,17.26,18.72,17.53-6.77,17.53-18.72-7.7-18.85-17.53-18.85Z"/>
    <path class="cls-5" d="M641.01,48.86c-1.86,0-3.98-1.59-3.98-3.98,0-1.33.66-2.26,1.73-3.32,3.58-3.72,5.84-8.36,5.84-15.27,0-9.56-5.97-18.06-20.84-18.06-18.99,0-32.26,16.33-32.26,41.16,0,22.17,11.55,40.36,33.46,40.36,12.75,0,18.85-5.58,23.77-10.49,2.26-2.26,4.65-2.79,6.64-1.06,1.59,1.33,1.86,3.45,0,5.97-5.44,6.9-15.27,13.94-31.2,13.94-26.29,0-41.82-21.24-41.82-48.59,0-28.81,16.99-49.52,41.16-49.52,19.92,0,29.74,12.21,29.74,26.29,0,10.09-4.38,17.66-9.16,21.38-.8.8-1.99,1.2-3.05,1.2Z"/>
    <path class="cls-5" d="M684.04,70.94c0-.06-.08-.08-.11-.03-3.61,6.02-10.33,9.67-17.97,9.67-11.82,0-18.99-9.69-18.99-22.7,0-16.6,9.56-30.27,24.96-30.27,5.05,0,8.76,1.73,12.08,6.24v-2.39c0-2.52,1.59-3.85,3.98-3.85s4.25,1.33,4.25,3.85v36.91c0,3.05.8,4.51,2.39,4.51,1.46,0,2.39-.93,3.45-1.86,3.85-3.32,8.1,1.46,4.25,5.44-1.59,1.73-4.12,3.85-8.63,3.85-5.66,0-9.1-2.87-9.68-9.38ZM655.88,57.62c0,9.29,4.51,15.14,11.55,15.14,9.56,0,16.6-10.09,16.6-21.64v-1.19c-.4-8.1-4.38-14.47-11.95-14.47-10.62,0-16.2,11.29-16.2,22.17Z"/>
    <path class="cls-4" d="M700.36,22.17c0,18.06,35.98,21.11,35.98,42.09,0,10.49-9.56,16.07-19.38,16.07-6.64,0-13.81-2.92-16.46-6.64-2.92-4.12.66-8.76,5.04-5.84,2.66,2.12,5.58,4.78,11.42,4.78,6.77,0,11.02-2.92,11.02-8.36,0-15.67-35.85-17.66-35.85-41.82,0-13.81,11.29-22.44,24.96-22.44,16.25,0,24.61,10.52,24.69,23.58.01,2.28-1.82,4.17-4.09,4.17-2.8,0-4.14-1.72-4.14-3.98,0-8.76-5.31-15.93-16.46-15.93s-16.73,7.17-16.73,14.34Z"/>
    <path class="cls-4" d="M740.98,22.17c0,18.09,35.98,21.08,35.98,42.09,0,10.49-9.56,16.07-19.38,16.07-6.64,0-13.81-2.92-16.46-6.64-2.92-4.12.66-8.76,5.04-5.84,2.66,2.12,5.58,4.78,11.42,4.78,6.77,0,11.02-2.92,11.02-8.36,0-15.67-35.85-17.66-35.85-41.82,0-13.81,11.29-22.44,24.96-22.44,16.25,0,24.61,10.52,24.69,23.58.01,2.28-1.82,4.17-4.09,4.17-2.8,0-4.14-1.72-4.14-3.98,0-8.76-5.31-15.93-16.46-15.93s-16.73,7.17-16.73,14.34Z"/>
  </g>
  <text class="cls-17" transform="translate(0 24.01)"><tspan class="cls-16"><tspan x="0" y="0">No</tspan><tspan class="cls-7" x="37.25" y="0">r</tspan><tspan x="51.29" y="0">wich</tspan><tspan class="cls-12" x="114.81" y="0"> </tspan><tspan x="168.63" y="0">and</tspan><tspan class="cls-11" x="219.85" y="0"> </tspan><tspan x="273.67" y="0">Cambridge </tspan></tspan><tspan class="cls-16"><tspan x="0" y="28.8">Science</tspan><tspan class="cls-3" x="94.15" y="28.8"> </tspan><tspan class="cls-13" x="155.21" y="28.8">S</tspan><tspan class="cls-15" x="166.9" y="28.8">y</tspan><tspan x="181.42" y="28.8">mposium</tspan><tspan class="cls-2" x="294.36" y="28.8"> </tspan><tspan class="cls-7" x="355.41" y="28.8">20</tspan><tspan class="cls-14" x="382.37" y="28.8">2</tspan><tspan class="cls-18" x="394.56" y="28.8">4</tspan></tspan><tspan class="cls-1"><tspan x="0" y="50.4">for</tspan><tspan class="cls-8" x="19.01" y="50.4"> </tspan><tspan x="66.97" y="50.4">plant</tspan><tspan class="cls-9" x="103.01" y="50.4"> </tspan><tspan x="150.97" y="50.4">and</tspan><tspan class="cls-8" x="179.32" y="50.4"> </tspan><tspan x="227.28" y="50.4">mic</tspan><tspan class="cls-10" x="253.97" y="50.4">r</tspan><tspan x="258.76" y="50.4">obial</tspan><tspan class="cls-9" x="293.48" y="50.4"> </tspan><tspan x="341.45" y="50.4">sciences</tspan></tspan></text>
</svg>