<?xml version="1.0" encoding="UTF-8"?>
<svg id="Layer_1" data-name="Layer 1" xmlns="http://www.w3.org/2000/svg" viewBox="0 0 482.08 146.06">
  <defs>
    <style>
      .cls-1 {
        font-family: HelveticaNeue-Thin, 'Helvetica Neue';
        font-size: 10px;
        font-weight: 200;
      }

      .cls-2 {
        letter-spacing: 2.11em;
      }

      .cls-3 {
        fill: #b9dfc5;
      }

      .cls-3, .cls-4, .cls-5 {
        stroke-width: 0px;
      }

      .cls-6 {
        letter-spacing: 1.75em;
      }

      .cls-7 {
        letter-spacing: 1.75em;
      }

      .cls-8 {
        font-family: DomusTitling, 'Domus Titling';
        font-size: 13px;
      }

      .cls-9 {
        letter-spacing: 0em;
      }

      .cls-4 {
        fill: #51b688;
      }

      .cls-10 {
        letter-spacing: -.01em;
      }

      .cls-11 {
        letter-spacing: 0em;
      }

      .cls-12 {
        letter-spacing: -.01em;
      }

      .cls-13 {
        letter-spacing: 2.05em;
      }

      .cls-14 {
        letter-spacing: -.03em;
      }

      .cls-15 {
        fill: #231f20;
      }

      .cls-5 {
        fill: #2d6b50;
      }
    </style>
  </defs>
  <text class="cls-15" transform="translate(262.62 112.77)"><tspan class="cls-8"><tspan x="0" y="0">No</tspan><tspan class="cls-9" x="20.18" y="0">r</tspan><tspan x="27.78" y="0">wich</tspan><tspan class="cls-7" x="62.19" y="0"> </tspan><tspan x="88.62" y="0">and</tspan><tspan class="cls-6" x="116.36" y="0"> </tspan><tspan x="142.78" y="0">Cambridge </tspan></tspan><tspan class="cls-8"><tspan x="0" y="15.6">Science</tspan><tspan class="cls-13" x="51" y="15.6"> </tspan><tspan class="cls-11" x="81.34" y="15.6">S</tspan><tspan class="cls-12" x="87.67" y="15.6">y</tspan><tspan x="95.54" y="15.6">mposium</tspan><tspan class="cls-13" x="156.72" y="15.6"> </tspan><tspan class="cls-9" x="187.06" y="15.6">20</tspan><tspan class="cls-14" x="201.66" y="15.6">2</tspan><tspan x="208.26" y="15.6">4</tspan></tspan><tspan class="cls-1"><tspan x="0" y="27.6">for</tspan><tspan class="cls-2" x="10.56" y="27.6"> </tspan><tspan x="34.42" y="27.6">plant</tspan><tspan class="cls-2" x="54.44" y="27.6"> </tspan><tspan x="78.3" y="27.6">and</tspan><tspan class="cls-2" x="94.05" y="27.6"> </tspan><tspan x="117.91" y="27.6">mic</tspan><tspan class="cls-10" x="132.74" y="27.6">r</tspan><tspan x="135.4" y="27.6">obial</tspan><tspan class="cls-2" x="154.69" y="27.6"> </tspan><tspan x="178.56" y="27.6">sciences</tspan></tspan></text>
  <g>
    <path class="cls-5" d="M42.15,69.3V23.18c0-7.39-5.59-13.82-12.96-14.3-.33-.02-.66-.03-.99-.03-12.6,0-18.97,7.27-18.97,16.27,0,6,3.82,11.93,7.57,15.53,1.02,1.02,1.33,2.18,1.35,3.35.04,2.84-2.09,5.07-4.91,4.72-.78-.09-1.41-.41-2.14-1.02C4.35,42.75,0,35.7,0,26.85,0,10.8,12.45,0,28.2,0c9.6,0,16.95,3.6,28.8,16.8l54.75,61.35s0,0,0,0V4.5c0-3,2.25-4.5,4.65-4.5,2.25,0,4.65,1.5,4.65,4.5v76.2c0,7.65-2.25,9.15-4.65,9.75-3.3.9-7.05-1.05-9.15-3.45L51.6,24.6l-.15-.15v49.8c0,9.15-3.9,16.35-15,16.35-3.9,0-9.15-.6-12.9-5.25-1.8-2.4-1.2-5.1.45-6.45,1.8-1.5,4.65-1.65,6.75.45,1.5,1.5,3.45,2.4,5.55,2.4,4.35,0,5.85-2.4,5.85-12.45Z"/>
    <path class="cls-5" d="M149.55,31.2c16.65,0,29.55,10.35,29.55,29.85s-12.9,29.7-29.55,29.7-29.25-10.05-29.25-29.7,12.9-29.85,29.25-29.85ZM149.55,39.75c-10.95,0-19.5,7.8-19.5,21.3s8.55,21.15,19.5,21.15,19.8-7.65,19.8-21.15-8.7-21.3-19.8-21.3Z"/>
    <path class="cls-4" d="M239.85,55.2c-2.1,0-4.5-1.8-4.5-4.5,0-1.5.75-2.55,1.95-3.75,4.05-4.2,6.6-9.45,6.6-17.25,0-10.8-6.75-20.4-23.55-20.4-21.45,0-36.45,18.45-36.45,46.5,0,25.05,13.05,45.6,37.8,45.6,14.4,0,21.3-6.3,26.85-11.85,2.55-2.55,5.25-3.15,7.5-1.2,1.8,1.5,2.1,3.9,0,6.75-6.15,7.8-17.25,15.75-35.25,15.75-29.7,0-47.25-24-47.25-54.9,0-32.55,19.2-55.95,46.5-55.95,22.5,0,33.6,13.8,33.6,29.7,0,11.4-4.95,19.95-10.35,24.15-.9.9-2.25,1.35-3.45,1.35Z"/>
    <path class="cls-4" d="M288.46,80.15c0-.07-.09-.09-.12-.03-4.08,6.8-11.67,10.93-20.3,10.93-13.35,0-21.45-10.95-21.45-25.65,0-18.75,10.8-34.2,28.2-34.2,5.7,0,9.9,1.95,13.65,7.05v-2.7c0-2.85,1.8-4.35,4.5-4.35s4.8,1.5,4.8,4.35v41.7c0,3.45.9,5.1,2.7,5.1,1.65,0,2.7-1.05,3.9-2.1,4.35-3.75,9.15,1.65,4.8,6.15-1.8,1.95-4.65,4.35-9.75,4.35-6.39,0-10.28-3.24-10.93-10.6ZM256.65,65.1c0,10.5,5.1,17.1,13.05,17.1,10.8,0,18.75-11.4,18.75-24.45v-1.35c-.45-9.15-4.95-16.35-13.5-16.35-12,0-18.3,12.75-18.3,25.05Z"/>
    <path class="cls-3" d="M306.89,25.05c0,20.4,40.65,23.85,40.65,47.55,0,11.85-10.8,18.15-21.9,18.15-7.5,0-15.6-3.3-18.6-7.5-3.3-4.65.75-9.9,5.7-6.6,3,2.4,6.3,5.4,12.9,5.4,7.65,0,12.45-3.3,12.45-9.45,0-17.7-40.5-19.95-40.5-47.25,0-15.6,12.75-25.35,28.2-25.35,18.36,0,27.81,11.88,27.9,26.63.02,2.57-2.05,4.71-4.63,4.71-3.17,0-4.67-1.94-4.67-4.5,0-9.9-6-18-18.6-18s-18.9,8.1-18.9,16.2Z"/>
    <path class="cls-3" d="M352.79,25.05c0,20.44,40.65,23.82,40.65,47.55,0,11.85-10.8,18.15-21.9,18.15-7.5,0-15.6-3.3-18.6-7.5-3.3-4.65.75-9.9,5.7-6.6,3,2.4,6.3,5.4,12.9,5.4,7.65,0,12.45-3.3,12.45-9.45,0-17.7-40.5-19.95-40.5-47.25,0-15.6,12.75-25.35,28.2-25.35,18.36,0,27.81,11.88,27.9,26.63.02,2.57-2.05,4.71-4.63,4.71-3.17,0-4.67-1.94-4.67-4.5,0-9.9-6-18-18.6-18s-18.9,8.1-18.9,16.2Z"/>
  </g>
</svg>