<?xml version="1.0" encoding="UTF-8" standalone="no"?>
<!-- Created with Inkscape (http://www.inkscape.org/) -->

<svg
   xmlns:dc="http://purl.org/dc/elements/1.1/"
   xmlns:cc="http://creativecommons.org/ns#"
   xmlns:rdf="http://www.w3.org/1999/02/22-rdf-syntax-ns#"
   xmlns:svg="http://www.w3.org/2000/svg"
   xmlns="http://www.w3.org/2000/svg"
   version="1.1"
   width="570.62646"
   height="325.32242"
   id="svg2">
  <metadata
     id="metadata8">
    <rdf:RDF>
      <cc:Work
         rdf:about="">
        <dc:format>image/svg+xml</dc:format>
        <dc:type
           rdf:resource="http://purl.org/dc/dcmitype/StillImage" />
        <dc:title></dc:title>
      </cc:Work>
    </rdf:RDF>
  </metadata>
  <defs
     id="defs6" />
  <path
     d="m 0.70325445,323.99063 c -1.71338995,-4.4631 -0.64689,-5.4578 7.14967005,-6.668 8.4071495,-1.3051 7.8390395,3.8905 7.8390395,-71.69152 l 0,-66.98161 -2.61608,-2.16354 c -1.43884,-1.18995 -3.6053895,-2.97151 -4.8145495,-3.95903 -3.11741,-2.54598 -2.23527,-4.8127 2.9417495,-7.55908 2.46889,-1.30973 8.52438,-4.58879 13.45665,-7.2868 4.93227,-2.69801 9.59011,-4.66666 10.35076,-4.37477 1.08936,0.41802 1.23515,2.00284 0.68668,7.4643 -0.38297,3.81348 -0.39362,7.42338 -0.0236,8.02199 0.44349,0.71758 2.43508,0.0924 5.84555,-1.835 2.84509,-1.60787 8.5479,-4.17263 12.6729,-5.69946 6.35677,-2.3529 9.10842,-2.78823 18.05186,-2.85587 10.26118,-0.0776 10.76213,0.0241 18.18468,3.69252 18.817046,9.29989 27.504336,31.24449 22.259046,56.22766 -4.48065,21.34125 -20.790426,38.25574 -42.495596,44.07116 -4.53518,1.21511 -10.58077,1.76985 -20,1.83519 l -13.5,0.0937 -0.26758,24.16356 -0.26758,24.1636 2.50376,1.9695 c 1.45224,1.1423 4.92444,2.2535 8.26759,2.6458 3.1701,0.372 6.55131,0.9049 7.51381,1.1843 1.76958,0.5137 2.35536,4.0076 0.98469,5.8732 -0.45801,0.6235 -10.80405,1 -27.47341,1 -21.3441395,0 -26.8418695,-0.2687 -27.24998955,-1.3318 z M 70.920264,253.29148 c 8.66587,-3.62083 15.02499,-11.18662 18.79862,-22.36571 7.93853,-23.51736 0.35705,-48.57784 -17.33204,-57.29083 -6.71853,-3.3093 -19.47838,-3.26532 -26.97312,0.093 -9.41441,4.21846 -9.22232,3.43183 -9.21802,37.74889 0.003,27.52088 0.15121,30.08747 1.89699,32.9504 2.04946,3.36097 7.23267,6.96028 12.98156,9.01465 4.97972,1.77951 15.41643,1.70044 19.84601,-0.15036 z m 121.271696,19.63603 c -11.63138,-2.48428 -17.80631,-12.43087 -15.85062,-25.5322 1.61662,-10.82986 10.76031,-19.2356 32.79199,-30.1455 22.95861,-11.3689 23.05863,-11.50878 23.05863,-32.24739 0,-12.7714 -0.18161,-14.15373 -2.2659,-17.2466 -4.86932,-7.22559 -16.9692,-7.84787 -24.65626,-1.26803 -4.5628,3.90559 -7.1133,8.26624 -11.01614,18.83463 -2.35527,6.37775 -2.98404,7.19635 -7.07338,9.20878 -5.89477,2.90092 -9.10554,2.8598 -11.93579,-0.15286 -1.90934,-2.0324 -2.1773,-3.07732 -1.59082,-6.20349 2.24905,-11.98851 15.11645,-24.62402 30.53711,-29.98679 9.18551,-3.19441 21.34433,-3.95252 31.43123,-1.95976 9.73719,1.92367 15.03534,5.20307 17.62649,10.91026 2.25948,4.97665 2.47219,17.52159 0.92561,54.58746 -1.0338,24.77639 -0.59806,29.48049 3.0706,33.14915 2.86456,2.86456 7.7489,2.4589 13.37821,-1.1111 7.84996,-4.9783 9.50408,-2.29535 3.92225,6.36181 -2.70512,4.1955 -9.8415,9.18183 -15.31869,10.70346 -10.7504,2.98658 -21.62046,-1.29838 -26.16667,-10.31485 -1.16253,-2.30564 -2.27091,-4.3671 -2.46307,-4.58103 -0.19216,-0.21394 -2.36158,1.84909 -4.82094,4.58449 -8.16157,9.07763 -23.18783,14.62998 -33.58384,12.40956 z m 27.74079,-16.03228 c 6.29121,-4.55733 9.42418,-11.99172 10.61969,-25.2 1.18472,-13.08918 0.27358,-16.4856 -4.13557,-15.41602 -8.02301,1.94624 -23.64964,14.83729 -26.62865,21.96707 -2.05357,4.91488 -2.04142,12.01396 0.0265,15.51474 3.95513,6.6955 13.21114,8.13751 20.11799,3.13421 z m 302.25921,15.78808 c -4.125,-0.44069 -10.29248,-1.48968 -13.70552,-2.33108 -7.9103,-1.95008 -12.19219,-1.95995 -12.93285,-0.0298 -0.32811,0.85503 -1.81954,1.5 -3.46862,1.5 l -2.89301,-10e-6 0,-20.56642 0,-20.56642 2.61937,0.31642 c 2.23011,0.2694 2.88058,1.16385 4.37703,6.01872 5.17128,16.77703 18.53848,27.7977 33.71639,27.7977 12.15808,0 20.28721,-6.41033 20.28721,-15.99774 0,-9.91009 -5.61769,-15.09984 -28.96372,-26.75732 -27.17425,-13.56904 -32.03628,-18.85869 -32.03628,-34.85391 0,-7.32274 0.35504,-8.90214 3.26467,-14.52279 8.02761,-15.50725 24.91919,-20.94024 48.2236,-15.51059 9.89612,2.30568 11.21306,2.41284 13.25,1.07819 1.24396,-0.81507 2.26174,-1.92157 2.26174,-2.45889 0,-0.53732 1.35,-0.97695 3,-0.97695 l 3,0 0,19.5 0,19.5 -2.75,-0.003 c -2.52452,-0.002 -2.97699,-0.63782 -5.51851,-7.75 -5.70614,-15.96815 -14.26534,-22.73403 -28.72573,-22.70712 -6.09196,0.0113 -8.31562,0.47259 -11.80518,2.44876 -7.75264,4.39037 -9.9005,10.67231 -6.33357,18.52409 2.41699,5.32046 6.91485,8.58199 20.94778,15.18989 6.42686,3.02631 14.93233,7.04068 18.90105,8.92083 8.57161,4.06074 18.26348,12.64688 21.03633,18.63634 5.64067,12.18408 2.14812,27.38232 -8.25217,35.91027 -10.22911,8.38757 -21.77295,11.37063 -37.50001,9.69043 z m -86.23596,-0.8566 c -5.82257,-1.75321 -9.64918,-5.07031 -12.46581,-10.80604 l -2.79823,-5.69825 0,-40.19902 c 0,-25.46863 -0.36644,-40.56402 -1,-41.19509 -0.55,-0.54784 -3.69563,-1.13328 -6.99028,-1.30098 -8.38282,-0.42669 -8.39412,-2.28467 -0.0501,-8.23884 10.36625,-7.39721 20.20954,-16.28803 25.16991,-22.73441 6.73941,-8.75836 7.75295,-8.01014 8.37047,6.17932 l 0.5,11.48902 15.10078,0.27524 15.10078,0.27524 -0.47925,5.22476 c -0.26359,2.87362 -0.64354,5.40936 -0.84434,5.63498 -0.20079,0.22562 -2.10769,-0.11188 -4.23754,-0.75 -2.12986,-0.63812 -8.37766,-1.16022 -13.884,-1.16022 -8.09058,0 -10.27488,0.31715 -11.38399,1.65292 -1.11031,1.33722 -1.37244,8.92916 -1.37244,39.75 0,35.79492 0.11598,38.28874 1.91932,41.26872 1.05562,1.7444 3.04104,3.7694 4.41203,4.5 3.57674,1.90603 13.67213,1.38677 20.53598,-1.05629 5.9121,-2.1043 7.63267,-2.04646 7.63267,0.25658 0,3.47756 -13.85254,12.57371 -23.85534,15.66439 -6.53475,2.01912 -14.55867,2.41987 -19.38062,0.96797 z m -324.00495,-1.15337 c -2.07533,-1.28226 0.2195,-3.76619 4.43941,-4.80522 6.342,-1.56153 9.12801,-3.26579 10.75986,-6.58203 3.02623,-6.14988 2.32134,-127.58397 -0.75847,-130.66378 -0.57929,-0.57929 -3.44874,-1.59276 -6.37657,-2.25217 -3.28988,-0.74094 -5.32332,-1.72767 -5.32332,-2.58314 0,-0.76133 3.39369,-3.03441 7.54153,-5.05128 4.14784,-2.01688 11.78701,-6.88588 16.97594,-10.81999 5.18893,-3.93411 10.12024,-7.02101 10.95847,-6.85977 1.34462,0.25866 1.58293,9.41618 2.02406,77.77982 0.37113,57.51575 0.81178,78.18487 1.70971,80.19576 1.15302,2.58217 7.69725,6.79088 10.55932,6.79088 0.74179,0 2.22222,0.64471 3.28984,1.43268 4.41228,3.25655 0.59431,3.80167 -27.57362,3.93688 -14.9466,0.0717 -27.64838,-0.16164 -28.22616,-0.51864 z m 165.44102,-2.15399 c 0.22964,-1.53377 1.78743,-2.40892 6.65034,-3.7361 7.7747,-2.12187 9.22634,-3.48937 10.2385,-9.64511 1.21125,-7.36655 1.09476,-64.49028 -0.13873,-68.02866 -1.15373,-3.30961 -3.9144,-4.93788 -10.03001,-5.91581 -2.83765,-0.45376 -3.92757,-1.08395 -3.71747,-2.14943 0.32992,-1.67309 0.5265,-1.79665 9.94905,-6.25344 3.65849,-1.73043 10.7481,-6.25622 15.75469,-10.05731 9.17815,-6.9682 12.37314,-8.23072 13.48653,-5.32928 0.33385,0.86998 0.60699,5.36998 0.60699,10 0,4.63001 0.3375,8.4078 0.75,8.39507 0.4125,-0.0127 4.09755,-2.94528 8.189,-6.51679 10.33183,-9.01886 16.30826,-11.70297 27.29897,-12.26039 4.95945,-0.25153 10.79719,0.0656 13.5,0.73345 10.86306,2.68406 20.07672,12.04031 22.27246,22.61712 0.67094,3.23189 1.18804,19.38587 1.30143,40.65619 0.2228,41.79603 -0.12822,40.22389 9.68814,43.3901 4.98916,1.60922 6.5,2.53897 6.5,4 0,1.82573 -1.21491,1.90874 -29.75,2.03284 -28.38517,0.12345 -29.75,0.044 -29.75,-1.73095 0,-1.22497 0.93921,-2.05448 2.75,-2.42881 12.51655,-2.58743 14.78514,-5.04437 15.78939,-17.10029 0.39846,-4.78345 0.51432,-20.21091 0.25747,-34.28325 -0.41594,-22.78869 -0.68546,-26.07808 -2.46513,-30.08608 -7.81722,-17.60514 -34.86563,-17.28748 -43.23035,0.5077 -3.65882,7.78382 -5.14564,36.97417 -3.12659,61.38369 1.10783,13.3932 2.04511,14.91457 11.25799,18.27376 4.19345,1.529 5.76857,2.58941 5.54798,3.73503 -0.27362,1.42103 -3.63688,1.61099 -30.09429,1.69975 -29.26195,0.0982 -29.78096,0.0647 -29.48636,-1.903 z M 252.85863,90.155757 c -0.36667,-0.36667 -0.66667,-3.29167 -0.66667,-6.5 0,-3.20834 -0.26597,-5.83334 -0.59104,-5.83334 -0.32507,0 -2.42856,1.57286 -4.67443,3.49524 -7.02395,6.01224 -12.22609,8.00476 -20.8991,8.00476 -6.90587,0 -8.08489,-0.29696 -11.91094,-3 -8.04606,-5.68442 -8.42449,-7.33675 -8.42449,-36.7836 0,-21.82939 -0.23004,-25.92946 -1.5,-26.73469 -1.89237,-1.19987 -22.69221,-1.28874 -23.42683,-0.1001 -0.29967,0.48488 -0.66373,11.62238 -0.80902,24.75 -0.28609,25.85088 0.19011,28.93559 4.85208,31.43059 2.41999,1.29514 6.63183,0.83884 15.13377,-1.63956 3.60652,-1.05134 2.77941,1.99508 -1.5,5.52486 -4.81076,3.96806 -13.07082,7.0525 -18.88638,7.0525 -6.4502,0 -11.03832,-2.48071 -13.6635,-7.38761 -2.12727,-3.97623 -2.19174,-4.98029 -1.94697,-30.32552 0.24188,-25.04569 0.16686,-26.25931 -1.68426,-27.25 -1.06557,-0.57028 -3.31699,-1.03687 -5.00315,-1.03687 -4.2581,0 -3.82596,-2.00255 1.07899,-5 4.60588,-2.81469 17.09575,-14.4927398 18.61439,-17.4044898 0.62883,-1.20566996 1.58912,-1.67584996 2.61709,-1.28137996 1.30014,0.49891 1.62379,2.12912996 1.62379,8.17906996 l 0,7.5559698 20.5,-0.68133 20.5,-0.68132 0.0147,27.40674 c 0.0159,29.45803 0.17641,30.49963 5.28627,34.29368 2.06893,1.53617 4.29261,2.07973 8.50809,2.07973 6.43201,0 11.16764,-2.20416 14.58637,-6.78911 1.99268,-2.67242 2.10453,-4.01248 2.10453,-25.21294 0,-25.43297 0.18501,-24.82678 -7.99046,-26.18108 -3.29454,-0.54575 -5.09375,-1.36303 -5.29441,-2.40496 -0.26136,-1.35714 1.68456,-1.65699 13.88879,-2.14012 7.80601,-0.30902 14.74284,-0.35076 15.41519,-0.0927 0.93037,0.35702 1.19359,7.84015 1.10167,31.31973 -0.0664,16.96784 0.24433,31.21962 0.69058,31.67062 0.44624,0.45099 3.11063,1.05488 5.92085,1.34197 7.5439,0.77067 6.99369,2.51007 -1.43836,4.54715 -4.01158,0.96915 -10.44381,2.81932 -14.29381,4.11149 -8.24034,2.76568 -7.0271,2.5029 -7.83333,1.69667 z M 98.691964,88.868387 c -4.03132,-1.66746 -6.76975,-5.79794 -7.26567,-10.95911 -0.60737,-6.32102 0.12424,-9.17111 3.33314,-12.98467 3.39343,-4.03286 9.167506,-7.8509 21.290246,-14.07793 11.60308,-5.9601 12.14228,-6.81373 12.14228,-19.22314 0,-8.23342 -1.53584,-13.02529 -4.5448,-14.17994 -3.08054,-1.18211 -9.02037,-0.6141 -11.48269,1.09807 -3.93511,2.73625 -5.79651,5.38282 -8.07448,11.48041 -2.43189,6.50961 -4.268216,8.52438 -8.549946,9.38073 -3.44244,0.68848 -6.34808,-1.45898 -6.34808,-4.69165 0,-3.54059 3.80193,-9.52531 9.04689,-14.24098 11.033616,-9.92018 32.173886,-11.7961598 41.256406,-3.66108 l 3.1967,2.86324 0,27.91619 c 0,29.75096 0.23205,31.23831 4.87244,31.23015 1.17016,-0.002 3.60094,-0.90205 5.40173,-2 4.09407,-2.49615 5.22583,-2.51196 5.22583,-0.073 0,2.77509 -4.6024,7.83323 -9.31505,10.23745 -3.16482,1.61457 -5.15534,1.94371 -9.00069,1.48828 -6.06284,-0.71805 -9.27439,-2.72165 -11.35456,-7.0838 l -1.59125,-3.33691 -3.11195,3.54431 c -5.78708,6.59112 -18.13467,10.16538 -25.126496,7.27336 z m 22.482576,-11.79597 c 2.76556,-2.76755 4.04467,-5.13832 4.88236,-9.04922 1.38832,-6.48162 1.47893,-14.87022 0.16936,-15.67958 -1.42112,-0.8783 -8.51975,3.02077 -13.23957,7.27211 -7.5788,6.82655 -9.3126,15.08097 -4.03899,19.2292 3.97482,3.12659 7.89989,2.55758 12.22684,-1.77251 z m 238.31726,10.94784 c -9.90543,-3.53681 -16.16469,-9.29956 -20.59845,-18.9645 -1.82605,-3.98052 -2.17378,-6.57007 -2.18639,-16.28175 -0.0147,-11.3541 0.0485,-11.67692 3.75734,-19.18469 3.7059,-7.50175 11.23796,-15.7669 14.36845,-15.7669 0.74757,0 1.35921,-0.38669 1.35921,-0.8593 0,-1.59029 12.97844,-5.14076 18.771,-5.13512 7.30435,0.007 11.62896,1.22803 17.46942,4.93194 7.81926,4.95883 13.55833,16.83297 10.70901,22.15697 l -1.18643,2.21687 -22.67835,-0.65883 c -17.08551,-0.49635 -22.97507,-0.36211 -23.8815,0.54432 -0.71844,0.71844 -1.20315,4.15294 -1.20315,8.52511 0,12.73915 6.89811,24.06505 16.66423,27.36076 8.61945,2.90874 18.22608,1.17403 25.88847,-4.67481 5.11565,-3.90486 6.4473,-4.20549 6.4473,-1.45553 0,3.06873 -9.28555,11.57057 -16.53504,15.13949 -8.45607,4.16291 -19.0945,4.98765 -27.16512,2.10597 z m 20.01509,-54.26835 c 8.1917,-2.27472 9.9592,-7.85536 4.28507,-13.52949 -2.99468,-2.99468 -4.01976,-3.4 -8.59887,-3.4 -2.85938,0 -6.72664,0.72498 -8.59391,1.61106 -4.06046,1.92681 -9.13643,7.46184 -10.00062,10.90505 -1.23631,4.92585 -0.236,5.48435 9.81202,5.47832 5.10476,-0.003 10.9981,-0.48229 13.09631,-1.06494 z M 1.6092845,87.905757 c -1.41579005,-1.41364 0.16202,-2.99178 3.94301,-3.94385 2.39817,-0.60386 4.9838695,-1.84929 5.7460095,-2.76761 1.76807,-2.13039 2.65802,-43.35924 1.02687,-47.57151 -0.76114,-1.96556 -2.14501,-2.99573 -5.0892995,-3.78855 -2.22414,-0.5989 -4.0439,-1.51508 -4.0439,-2.03597 0,-0.52088 2.5875,-2.25542 5.75,-3.85452 3.1624895,-1.59911 8.4161495,-4.98059 11.6747895,-7.5144 3.25863,-2.53381 6.52113,-4.60693 7.25,-4.60693 0.96436,0 1.3252,1.76993 1.3252,6.5 0,3.575 0.42264,6.5 0.93918,6.5 0.51655,0 3.02638,-1.80645 5.57739,-4.01433 6.44258,-5.57601 9.94353,-7.17347 16.93825,-7.72879 7.75319,-0.61553 13.63659,1.00647 18.20727,5.01958 6.3976,5.61716 6.73382,7.29682 7.14812,35.70916 0.20439,14.01708 0.795,26.2767 1.31246,27.24359 0.51747,0.9669 2.95156,2.26429 5.40909,2.88311 2.5914,0.65252 4.46824,1.70531 4.46824,2.5064 0,0.7597 -0.5625,1.39211 -1.25,1.40535 -3.63144,0.0699 -36.43527,0.11414 -37.5,0.0506 -3.01277,-0.17989 -0.85348,-2.76588 3.219,-3.8551 7.55388,-2.02036 7.71515,-2.65551 7.34927,-28.94543 -0.36094,-25.93461 -0.62594,-26.92149 -8.14622,-30.33594 -5.4798,-2.48801 -9.30912,-2.39871 -14.07803,0.32828 -8.37707,4.79025 -9.97695,10.95619 -9.43127,36.34826 0.41278,19.20812 0.49683,19.45315 7.73796,22.55705 7.51628,3.22186 4.20221,4.07124 -16.41131,4.20615 -10.26014,0.0671 -18.8425695,-0.0654 -19.0720795,-0.29457 z M 280.29058,87.143837 c -1.78512,-1.31608 -2.07469,-1.12026 5.40138,-3.65265 6.15442,-2.08471 6.47052,-3.41195 6.47052,-27.16877 0,-23.74073 -0.43583,-25.69249 -5.91741,-26.5 -1.86677,-0.275 -3.56735,-1.02485 -3.77906,-1.66633 -0.21172,-0.64149 2.68894,-2.78162 6.44591,-4.75585 3.75697,-1.97423 9.00592,-5.38688 11.66433,-7.58367 2.65841,-2.19678 5.407,-3.99415 6.10796,-3.99415 1.58905,0 2.47052,3.15602 2.51367,9 l 0.0332,4.5 3.58658,-4.27794 c 7.0188,-8.37178 17.44919,-10.75692 23.26852,-5.32085 2.52033,2.35432 3.10578,3.69248 3.10578,7.09879 0,3.40632 -0.58545,4.74448 -3.10576,7.09879 -4.69855,4.38911 -7.14916,4.02171 -16.21998,-2.43172 -3.0998,-2.20534 -5.86403,-1.55258 -8.14097,1.92246 -2.41118,3.67993 -3.81444,18.8016 -3.27933,35.33823 0.53942,16.66973 0.77399,17.10585 10.25984,19.07511 5.05969,1.05039 7.39358,2.42309 6.18115,3.63551 -0.27792,0.27793 -10.0661,0.58549 -21.75151,0.68347 -14.99182,0.12571 -21.71679,-0.16879 -22.84482,-1.00043 z"
     id="path2989-4"
     style="fill:#449639;fill-opacity:1" />
</svg>
