<?xml version="1.0" encoding="UTF-8" standalone="no"?>
<!-- Created with Inkscape (http://www.inkscape.org/) -->

<svg
   xmlns:dc="http://purl.org/dc/elements/1.1/"
   xmlns:cc="http://creativecommons.org/ns#"
   xmlns:rdf="http://www.w3.org/1999/02/22-rdf-syntax-ns#"
   xmlns:svg="http://www.w3.org/2000/svg"
   xmlns="http://www.w3.org/2000/svg"
   xmlns:sodipodi="http://sodipodi.sourceforge.net/DTD/sodipodi-0.dtd"
   xmlns:inkscape="http://www.inkscape.org/namespaces/inkscape"
   version="1.1"
   width="774.51422"
   height="586.19104"
   viewBox="0 0 774.51422 586.19104"
   id="svg2"
   inkscape:version="0.48.5 r10040"
   sodipodi:docname="seb_logo.svg">
  <sodipodi:namedview
     pagecolor="#ffffff"
     bordercolor="#666666"
     borderopacity="1"
     objecttolerance="10"
     gridtolerance="10"
     guidetolerance="10"
     inkscape:pageopacity="0"
     inkscape:pageshadow="2"
     inkscape:window-width="1920"
     inkscape:window-height="1145"
     id="namedview7"
     showgrid="false"
     fit-margin-top="0"
     fit-margin-left="0"
     fit-margin-right="0"
     fit-margin-bottom="0"
     inkscape:zoom="0.6705986"
     inkscape:cx="402.25094"
     inkscape:cy="206.86399"
     inkscape:window-x="0"
     inkscape:window-y="31"
     inkscape:window-maximized="1"
     inkscape:current-layer="svg2" />
  <metadata
     id="metadata8">
    <rdf:RDF>
      <cc:Work
         rdf:about="">
        <dc:format>image/svg+xml</dc:format>
        <dc:type
           rdf:resource="http://purl.org/dc/dcmitype/StillImage" />
        <dc:title />
      </cc:Work>
    </rdf:RDF>
  </metadata>
  <defs
     id="defs6" />
  <path
     d="m 512.82895,378.73379 c -3.06167,-0.93781 -3.12356,-1.0694 -2.08879,-4.44102 0.95349,-3.10675 1.34044,-3.39972 3.65517,-2.76746 7.1818,1.96171 11.6723,-0.66762 15.66301,-9.17118 2.06566,-4.4016 2.16937,-5.24632 0.98217,-8 -0.73005,-1.69332 -5.20389,-11.67714 -9.94187,-22.18626 -4.73799,-10.50913 -8.61452,-19.6475 -8.61452,-20.3075 0,-0.79318 1.43929,-1.09575 4.24551,-0.8925 l 4.24551,0.3075 7.31144,16.5 c 4.02129,9.075 7.63614,16.82783 8.033,17.22852 0.39687,0.40068 3.329,-7.13682 6.51585,-16.75 l 5.79427,-17.47852 3.92721,0 c 2.60738,0 3.92721,0.44841 3.92721,1.33426 0,2.4928 -17.99385,51.88378 -20.74058,56.93043 -4.65554,8.55377 -13.88687,12.45897 -22.91459,9.69373 z m -230.34483,-22.5367 c -6.67972,-2.38106 -7.52999,-3.49616 -5.56429,-7.2974 0.88861,-1.71838 1.73395,-3.12432 1.87853,-3.12432 0.14458,0 2.02817,0.9 4.18576,2 5.94223,3.02952 14.44608,2.7577 18.42327,-0.58889 6.19364,-5.2116 3.46601,-11.22964 -8.31505,-18.34574 -8.89749,-5.37434 -14.16233,-10.44062 -15.21712,-14.64322 -1.00919,-4.02094 0.2076,-11.40726 2.35347,-14.28639 3.68348,-4.94213 7.96559,-6.63639 16.75543,-6.62942 10.8457,0.009 13.89455,1.55376 14.3075,7.25113 0.16912,2.33339 0.10576,4.24253 -0.1408,4.24253 -0.24656,0 -2.40993,-0.89012 -4.8075,-1.97804 -9.65047,-4.37901 -19.8592,-1.59501 -19.8592,5.41576 0,4.62449 2.7821,7.6582 11.95444,13.03557 4.37939,2.56746 9.31227,6.20538 10.96196,8.08428 7.48155,8.52101 5.54436,19.92039 -4.33955,25.53605 -5.18045,2.94333 -16.22318,3.59293 -22.57685,1.3281 z m 52.5,0.31331 c -9.0963,-3.74474 -12.62971,-9.26229 -13.29538,-20.76124 -0.38972,-6.73221 -0.11794,-8.48336 2.05228,-13.22376 7.31677,-15.98193 28.86432,-16.89261 37.26356,-1.57489 2.4915,4.54374 2.92226,6.43272 2.93652,12.87712 0.0313,14.14382 -7.17086,22.7986 -19.58763,23.53834 -3.67085,0.2187 -7.64036,-0.14378 -9.36935,-0.85557 z m 14.17692,-8.25899 c 3.81328,-2.49856 5.69376,-7.31976 5.65284,-14.49281 -0.0617,-10.81369 -4.06028,-16.00147 -12.30227,-15.96099 -7.85222,0.0386 -12.02749,5.58173 -12.02749,15.96794 0,13.48517 9.25218,20.66118 18.67692,14.48586 z m 35.57012,8.19184 c -4.39253,-1.59332 -9.15712,-6.26122 -11.37547,-11.1446 -2.27696,-5.01238 -2.43095,-14.68538 -0.3287,-20.64755 3.39539,-9.62965 13.97292,-15.92523 24.18409,-14.39397 7.67902,1.15154 9.27304,2.29961 9.27304,6.67876 0,4.22919 -0.34318,4.42991 -4,2.33948 -3.63579,-2.0784 -11.87364,-1.87448 -15.58004,0.38568 -8.74068,5.33006 -8.7205,22.93994 0.0329,28.67537 3.2866,2.15346 11.2426,2.16493 15.38623,0.0222 3.16213,-1.6352 3.19369,-1.62729 4.21428,1.05706 1.46132,3.84356 0.728,4.90548 -4.65388,6.73927 -5.48543,1.86907 -12.47085,1.98649 -17.15242,0.28832 z m 63.18222,-0.56069 c -8.68115,-3.94289 -13.06729,-12.94584 -12.2016,-25.0449 0.83289,-11.64082 6.76977,-19.0788 16.46594,-20.62929 11.01144,-1.7608 19.85843,6.5351 21.05622,19.74461 l 0.52796,5.82239 -14.63889,0 c -16.20823,0 -15.9686,-0.1182 -13.19907,6.51022 2.7235,6.51824 11.89801,9.35958 20.51834,6.35452 3.641,-1.26926 5.27051,-0.0428 4.79757,3.61087 -0.61015,4.71364 -15.75336,7.07121 -23.32647,3.63158 z m 16.57074,-27.58695 c 0,-1.98153 -3.59116,-8.76625 -5.05451,-9.54941 -2.37416,-1.27061 -7.57396,-1.24003 -10.00088,0.0588 -2.10463,1.12637 -4.94461,5.96287 -4.94461,8.4207 0,1.29624 1.63535,1.54966 10,1.54966 5.5,0 10,-0.21589 10,-0.47975 z m 25.05709,26.69069 -3.05709,-3.05708 0,-16.51656 0,-16.51656 -3.75,-0.31036 c -3.55993,-0.29464 -3.75,-0.48777 -3.75,-3.81037 0,-3.3226 0.19007,-3.51573 3.75,-3.81037 l 3.75,-0.31036 0,-4.89263 c 0,-4.8019 0.0695,-4.91195 3.75,-5.93406 2.0625,-0.57278 4.0875,-1.04394 4.5,-1.047 0.4125,-0.003 0.75,2.69442 0.75,5.99442 l 0,6 6.60841,0 6.60841,0 -0.68881,2.74441 c -1.08898,4.33885 -2.428,5.25559 -7.6765,5.25559 l -4.9036,0 0.27604,15.25 0.27605,15.25 3.20379,0.30991 c 1.76209,0.17045 4.20147,-0.22402 5.42084,-0.87661 1.85489,-0.99271 2.43416,-0.8896 3.5462,0.63122 0.73105,0.99976 1.32917,2.39517 1.32917,3.10093 0,1.97506 -5.64251,4.44216 -11.55543,5.05243 -4.95368,0.51126 -5.54645,0.33409 -8.38748,-2.50695 z m 137.94291,1.19713 c -9.02985,-3.90518 -13.60707,-12.67937 -12.76367,-24.467 0.80307,-11.22392 6.15285,-18.35314 15.70174,-20.92438 17.42715,-4.69265 31.19417,12.25707 25.59617,31.51355 -3.64055,12.52302 -16.83196,18.93876 -28.53424,13.87783 z m 16.18828,-9.39841 c 6.29743,-6.80054 6.19549,-19.77972 -0.20563,-26.18085 -3.12353,-3.12353 -8.71112,-3.8209 -13.42084,-1.67501 -5.93052,2.70213 -8.48142,16.02322 -4.67368,24.40649 3.49807,7.70149 12.74806,9.44501 18.30015,3.44937 z m -227.95705,-12.75965 0.26877,-22.75 4.25,-0.3075 4.25,-0.3075 0,23.0575 0,23.0575 -4.51877,0 -4.51878,0 z m 174.76877,3.81642 0,-18.93358 -2.75,-0.31642 c -2.41592,-0.27798 -2.75,-0.74161 -2.75,-3.81642 0,-3.07481 0.33408,-3.53844 2.75,-3.81642 2.41437,-0.27781 2.75,-0.74246 2.75,-3.80718 0,-13.06431 7.19115,-20.06393 18.44412,-17.95286 2.57132,0.48238 3.55588,1.18566 3.55588,2.53999 0,4.09675 -1.04038,5.05281 -4.85508,4.46159 -5.48377,-0.8499 -7.18859,0.96494 -7.85979,8.36702 l -0.56291,6.20786 6.13889,0 c 6.62937,0 7.00939,0.41597 4.61321,5.04966 -1.34462,2.6002 -2.05668,2.95034 -6,2.95034 l -4.47432,0 0,19 0,19 -4.5,0 -4.5,0 z m 76.23123,-3.81642 0.26877,-22.75 3.45492,0 c 2.76108,0 3.56438,0.4543 4,2.26218 l 0.54508,2.26217 3.8769,-2.76217 c 3.79851,-2.70633 11.34732,-3.8713 13.184,-2.03461 0.40016,0.40016 0.10016,2.36023 -0.66667,4.35572 -1.29713,3.37547 -1.70764,3.64126 -5.89423,3.81625 -2.475,0.10345 -5.7375,1.00763 -7.25,2.00929 l -2.75,1.82119 0,16.88499 0,16.88499 -4.51877,0 -4.51878,0 z M 416.13911,300.94663 c -0.91025,-1.00581 -1.65499,-2.77367 -1.65499,-3.92857 0,-5.17043 7.63132,-7.26119 10.50352,-2.87767 3.74088,5.70931 -4.26692,11.86887 -8.84853,6.80624 z m -106.499,-48.64947 c -11.24724,-2.54327 -16.47542,-4.35212 -25.65599,-8.87645 -14.49535,-7.14353 -13.97237,-5.20154 -5.52773,-20.52637 7.23906,-13.137 7.27841,-13.18474 9.60913,-11.65759 20.81284,13.63709 43.6359,17.03231 60.17691,8.95206 7.67364,-3.74855 10.60112,-8.08266 11.07051,-16.38981 0.7624,-13.49256 -5.04125,-19.77828 -32.32882,-35.01421 -18.21976,-10.17294 -25.32469,-15.12808 -32.72715,-22.82466 -8.11516,-8.4376 -11.25342,-13.83389 -13.77186,-23.68089 -2.52478,-9.87179 -2.52478,-16.13595 0,-26.007737 3.70145,-14.47252 12.80482,-25.77219 26.1401,-32.44671 11.77812,-5.89513 20.09869,-7.39303 37.70206,-6.78724 16.17314,0.55656 26.01712,2.61252 36.90685,7.70817 l 6.25,2.92457 0,8.90166 c 0,4.89592 -0.286,12.28508 -0.63556,16.42037 l -0.63557,7.518717 -8.11443,-4.293267 c -20.39847,-10.79263 -41.42518,-13.02438 -54.69005,-5.80473 -9.23704,5.02743 -11.72756,15.942037 -5.94021,26.032777 3.68054,6.41734 11.02678,11.98957 29.11214,22.08197 19.37473,10.81193 26.51754,15.73012 34.40368,23.6887 10.47325,10.56945 15.5,22.58789 15.5,37.05888 0,24.5305 -16.74916,44.56152 -43.5,52.02345 -8.38903,2.34006 -34.72765,2.94672 -43.34401,0.99834 z m 113.84401,-97.52179 0,-96.999997 53,0 c 29.15,0 52.98798,0.1125 52.97329,0.25 -0.0147,0.1375 -2.44165,7 -5.39324,15.25 l -5.36652,15 -30.60676,0.26445 -30.60677,0.26445 0,24.485547 0,24.48555 31.02673,0 31.02674,0 -0.27674,14.75 -0.27673,14.75 -30.75,0.26445 -30.75,0.26445 0,26.48555 0,26.48555 35.5,0 35.5,0 0,15.5 0,15.5 -52.5,0 -52.5,0 z m 135,0.0472 0,-97.202087 35.75,0.42007 c 30.18078,0.35463 36.67797,0.69153 41.70683,2.16263 22.73556,6.65088 36.54317,24.20831 36.54317,46.467427 0,14.5877 -4.51393,25.66185 -14.06396,34.50349 l -5.6596,5.23979 4.89413,2.24523 c 2.69177,1.23488 7.73438,4.90214 11.20579,8.14947 10.3713,9.70184 15.62364,21.9516 15.62364,36.43818 0,27.73994 -17.00246,48.28579 -46,55.58661 -7.64295,1.92429 -12.10466,2.19307 -44.25,2.66569 l -35.75,0.52561 z m 73.13341,63.55636 c 10.80736,-3.9935 16.93032,-12.7391 17.03945,-24.33795 0.078,-8.29299 -2.16483,-13.39097 -8.14243,-18.50758 -6.56862,-5.62249 -12.20427,-6.97654 -31.28043,-7.51554 l -16.75,-0.47329 0,26.71435 0,26.71434 17.25,-0.4411 c 12.94477,-0.33102 18.4064,-0.86842 21.88341,-2.15323 z m -11.56491,-82.07484 c 14.78011,-4.40953 21.85791,-21.53923 14.6815,-35.5322 -2.21706,-4.322957 -3.81587,-5.954687 -8.25,-8.419897 -5.28718,-2.93947 -6.05141,-3.07214 -19.75,-3.42841 l -14.25,-0.37062 0,24.611207 0,24.6112 11.3185,0 c 7.06144,0 13.17331,-0.55337 16.25,-1.47128 z"
     id="path2989"
     style="fill:#435d7f;fill-opacity:1"
     inkscape:connector-curvature="0"
     sodipodi:nodetypes="sssssssscscscsssssssssssscsssssssssssssssssssscssssssssssccsssscsssssssssssscccssscsscscccsscccsssssssssssssssscccccccccccsssssssscsssccccccccsscsssssccccccssssssssssssssssscsscssssssssccscsccccccccccccccccccccccsssscsssssccsssscccsssssscccss" />
  <path
     d="m 20.968263,419.70585 c -9.22688,-1.86189 -17.5888598,-11.1233 -19.9395798,-22.08435 -2.78455,-12.98392 0.36945,-62.06672 6.03044,-93.84613 C 18.739903,238.2023 44.781243,193.46544 83.177243,173.01073 c 3.13994,-1.67274 6.28844,-3.2345 6.99666,-3.47058 0.9135,-0.3045 0.5303,-1.42236 -1.31874,-3.847 -12.19364,-15.98943 -17.72051,-47.35163 -14.96484,-84.917775 1.69777,-23.14446 4.15734,-29.32724 12.18485,-30.62993 4.40958,-0.71557 8.48148,2.36549 9.82413,7.43355 0.60236,2.27375 0.69651,10.80859 0.24461,22.17584 -1.61289,40.571275 2.10775,65.032555 11.034137,72.543615 8.39911,7.06739 23.75534,-2.53534 32.76707,-20.49029 10.47164,-20.86368 16.292,-52.200405 17.87045,-96.214185 0.71088,-19.82242 0.81339,-20.56393 3.46918,-25.0957 7.72871,-13.1880502 26.77281,-14.1621502 33.6835,-1.7229002 2.41309,4.3435702 2.49278,5.0735802 2.29221,21.0000002 -0.72077,57.23338 -13.52681,101.242645 -36.57312,125.687255 -3.85703,4.09106 -10.23675,9.09006 -16.6011,13.00825 -0.21011,0.12935 1.9229,2.75713 4.74001,5.8395 17.23043,18.85283 25.62903,52.19865 26.81468,106.46499 0.83501,38.21817 -1.08799,56.02157 -6.69996,62.0292 -4.47142,4.78668 -11.82337,3.65909 -15.19491,-2.33048 -0.90533,-1.60835 -1.2715,-10.92521 -1.3637,-34.69872 -0.21522,-55.49506 -6.21509,-87.95887 -18.72835,-101.33453 -5.5526,-5.93528 -10.1423,-7.21836 -18.2597,-5.1046 -7.69481,2.00371 -12.71424,5.01302 -19.230567,11.52935 -23.52448,23.5245 -36.2661,76.66997 -39.05759,162.90978 -0.71782,22.1761 -0.90314,23.80985 -3.28945,29 -3.48653,7.58312 -7.03909,11.46864 -13.14434,14.3763 -6.06927,2.89052 -13.35625,3.83511 -19.7041,2.55418 z"
     id="path2989-7"
     style="fill:#f26522;fill-opacity:1"
     inkscape:connector-curvature="0" />
  <path
     inkscape:connector-curvature="0"
     d="m 474.45304,584.8493 c -6.2543,-1.77471 -10.5813,-5.08613 -11.9111,-9.11548 -1.5281,-4.63019 -0.4581,-7.99881 3.7008,-11.65031 2.601,-2.28378 3.2246,-3.38043 2.3943,-4.21079 -1.8083,-1.80821 -1.2935,-7.23607 0.9577,-10.09792 l 2.0804,-2.64488 -2.5541,-3.03545 c -10.7338,-12.75629 0.8937,-30.60595 17.7348,-27.22535 4.0359,0.81015 5.4439,0.66476 8.4614,-0.87364 3.4953,-1.78202 8.2731,-2.43612 9.4196,-1.28961 0.3057,0.30575 0.072,2.13345 -0.52,4.06155 -0.8902,2.90059 -1.4496,3.41187 -3.2408,2.9623 -3.2516,-0.81608 -3.5381,0.21231 -1.271,4.56179 1.5608,2.99438 1.9391,5.15466 1.572,8.97548 -0.8978,9.34357 -7.9669,15.06318 -18.1922,14.7194 -5.2562,-0.17672 -6.0416,0.052 -6.9174,2.01474 -1.4711,3.29683 -0.051,4.08089 10.4519,5.76964 10.624,1.70826 17.2135,4.23742 18.8094,7.21939 1.6776,3.13467 1.2797,9.32907 -0.8205,12.77329 -3.9926,6.54759 -19.3416,10.15429 -30.1552,7.08585 z m 19.5628,-8.10844 c 1.2907,-0.84569 2.6635,-2.53574 3.0507,-3.75566 1.2189,-3.84049 -3.0731,-6.41869 -13.041,-7.83363 -8.4499,-1.19947 -8.697,-1.17582 -11.077,1.06009 -4.4282,4.16008 -2.7218,8.96701 4.0789,11.49053 4.7685,1.7694 13.582,1.27067 16.9884,-0.96133 z m -4.4247,-36.51398 c 1.9842,-1.98422 2.9231,-3.92729 2.9231,-6.04966 0,-3.76233 -2.3132,-8.54971 -4.5448,-9.40608 -2.7685,-1.06237 -8.8713,-0.62126 -10.7096,0.7741 -2.8956,2.19784 -4.0951,7.01578 -2.7565,11.07175 2.3179,7.02339 9.8679,8.82979 15.0878,3.60989 z m 19.9597,44.813 c -3.2702,-1.3054 -3.1965,-1.13282 -1.9775,-4.62959 0.9961,-2.85757 1.2831,-3.00464 4.2589,-2.18297 4.8723,1.3453 8.7967,-0.2136 12.3912,-4.92213 5.6859,-7.44794 5.5759,-8.12283 -5.243,-32.16846 -5.3172,-11.81772 -9.9058,-22.07632 -10.1969,-22.79687 -0.4024,-0.99567 0.6295,-1.23568 4.2993,-1 l 4.8287,0.3101 7.4814,17.23658 c 4.1148,9.48012 7.7379,16.98631 8.0514,16.68043 0.3134,-0.30589 3.08,-8.06236 6.1479,-17.23659 l 5.578,-16.68042 4.172,-0.3075 c 2.3314,-0.17183 4.172,0.13571 4.172,0.69706 0,2.12179 -19.015,54.39848 -20.8868,57.42262 -5.5611,8.98485 -14.8764,12.85106 -23.0766,9.57774 z M 356.30561,563.16155 c -11.0089,-3.31854 -16.7927,-18.23476 -12.5616,-32.39557 2.2979,-7.69065 11.7424,-14.62949 19.88623,-14.61044 8.1437,0.019 16.54,5.94152 19.5756,13.808 3.9048,10.11901 0.9799,24.36784 -6.076,29.59993 -5.7537,4.26651 -13.9238,5.67817 -20.82423,3.59808 z m 11.71883,-7.45141 c 5.1906,-2.16875 7.4816,-6.71107 7.4861,-14.8423 0.01,-11.74814 -3.5824,-16.71788 -12.0728,-16.71788 -8.05863,0 -11.92353,5.29347 -11.92353,16.3307 0,7.59293 2.3203,12.47849 7.08483,14.91775 4.1436,2.12135 5.0246,2.15049 9.4254,0.31173 z m 28.9443,5.98527 -2.4545,-2.45454 0,-32.04546 0,-32.04545 4.4853,0 4.4854,0 0.2646,30.25 0.2647,30.25 2.656,0.30735 c 3.4488,0.3991 4.9118,4.93866 2.2248,6.90345 -3.0141,2.20396 -9.1572,1.60369 -11.9263,-1.16535 z m 32.3369,1.46614 c -4.8509,-1.46226 -8.6165,-4.95475 -11.3365,-10.51427 -2.3425,-4.78778 -2.6241,-6.40428 -2.3042,-13.22588 0.6034,-12.86632 6.133,-20.20114 16.8957,-22.41179 14.3992,-2.95757 25.5862,7.68846 25.367,24.14035 -0.1465,10.9965 -5.2799,18.83764 -14.3126,21.8619 -3.8572,1.29143 -10.2984,1.35881 -14.3094,0.14969 z m 11.7188,-7.45141 c 5.3086,-2.21808 7.4816,-6.67661 7.4861,-15.35984 0.01,-11.47996 -3.5119,-16.20034 -12.0728,-16.20034 -8.0586,0 -11.9235,5.29347 -11.9235,16.3307 0,7.59293 2.3203,12.47849 7.0848,14.91775 4.1436,2.12135 5.0246,2.15049 9.4254,0.31173 z m -168.51023,-24.06005 0,-31.5 12.0657,0 c 12.6296,0 14.544,0.48105 19.2002,4.82456 5.7349,5.3497 5.5884,15.47498 -0.3092,21.37258 l -2.8811,2.88111 2.2122,0.86023 c 3.5244,1.3705 7.4476,6.21677 8.6201,10.64826 0.8437,3.18895 0.7581,5.17497 -0.3898,9.04039 -2.9827,10.04368 -9.7399,13.37274 -27.1438,13.37274 l -11.3743,0 0,-31.5 z m 27.1041,19.70953 c 3.0458,-3.40882 3.7608,-7.72489 1.8663,-11.26492 -1.7242,-3.22181 -6.4006,-4.94474 -13.4207,-4.94474 l -6.5497,0 0,10.1093 0,10.1093 7.6041,-0.38399 c 7.0961,-0.35834 7.7975,-0.60052 10.5,-3.62508 z m -6.6525,-25.62487 c 4.0276,-1.68296 5.5484,-4.16749 5.5484,-9.0645 0,-5.82136 -3.47,-8.52029 -10.9545,-8.52029 l -6.0455,0 0,9.5 0,9.5 4.0321,0 c 2.2177,0 5.5565,-0.6369 7.4195,-1.41534 z m 29.7796,14.66534 0.2688,-22.75 4.25,-0.3075 4.25,-0.3075 0,23.0575 0,23.0575 -4.5188,0 -4.5187,0 z m 0.3402,-32.82156 c -1.8596,-1.85966 -2.0704,-6.52955 -0.3714,-8.22857 0.66,-0.66 2.595,-1.2 4.3,-1.2 3.8218,0 5.5,1.56491 5.5,5.12857 0,3.35352 -2.3586,5.87143 -5.5,5.87143 -1.2964,0 -3.0643,-0.70714 -3.9286,-1.57143 z"
     id="path2989-70"
     style="fill:#435d7f;fill-opacity:1"
     sodipodi:nodetypes="sscccccssccsssssssssccssscssscssscssscscscscssssssssssscssssccccccccsscscsssssscssssccssscscssccccsscccscccsscccsccccccccccccssssc" />
  <path
     inkscape:connector-curvature="0"
     d="m 359.51423,449.51116 0,-33.37004 4.75,-1.37996 c 10.9439,-3.17941 23.1312,-0.95415 28.9523,5.28637 5.4185,5.80899 7.1078,19.26279 3.432,27.33367 -3.9963,8.77477 -13.5574,14.19424 -23.377,13.2507 l -4.7573,-0.45711 0,11.3532 0,11.35322 -4.5,0 -4.5,0 z m 24,1.44747 c 3.7703,-2.59339 5.9967,-7.82406 5.9984,-14.09303 0,-9.8327 -5.5932,-16.00299 -14.4828,-15.96909 -6.6253,0.0253 -6.6022,-0.0354 -6.2933,16.55216 l 0.2777,14.91516 3,0.6007 c 4.1005,0.82105 8.5077,0.0523 11.5,-2.0059 z m 36.5,8.59649 c -5.5958,-2.18967 -8.4422,-4.85635 -11.1998,-10.49271 -5.1772,-10.58175 -2.967,-25.07659 4.8232,-31.63157 3.7425,-3.1491 10.1304,-4.9048 14.7858,-4.06382 8.753,1.5812 14.397,8.68937 15.6932,19.76418 l 0.6729,5.75 -14.7685,0 -14.7685,0 0.5962,3.75 c 0.4026,2.53245 1.739,4.80521 4.1161,7 3.0773,2.84121 4.2077,3.25 8.9876,3.25 3.0072,0 6.6631,-0.54469 8.1243,-1.21043 2.3038,-1.0497 2.845,-0.95269 4.0759,0.73066 2.2029,3.01262 1.2336,4.78005 -3.6473,6.65018 -5.1667,1.97968 -13.1327,2.20899 -17.4911,0.50351 z m 14.5,-30.09719 c 0,-1.33281 -1.165,-3.80781 -2.5889,-5.5 -2.094,-2.48853 -3.3513,-3.07673 -6.5769,-3.07673 -4.8142,0 -9.8342,4.29965 -9.8342,8.42308 l 0,2.57692 9.5,0 c 9.3864,0 9.5,-0.029 9.5,-2.42327 z m 162.21137,30.35432 c -7.6244,-2.33754 -14.2114,-12.96608 -14.2114,-22.93105 0,-15.14138 11.5904,-26.38681 23.8366,-23.12722 8.3951,2.23453 13.4488,9.34858 14.4755,20.37722 l 0.4422,4.75 -14.3771,0 -14.3772,0 0,2.54966 c 0,3.801 2.6549,8.22054 5.9673,9.93341 3.4883,1.80388 11.8994,1.99042 15.5128,0.34406 2.7823,-1.26771 3.8982,-0.64694 4.915,2.73409 0.4998,1.66215 -0.1076,2.41157 -3.1376,3.87073 -4.4407,2.13852 -14.4029,2.92264 -19.0461,1.4991 z m 14.7886,-29.48071 c 0,-2.45783 -2.84,-7.29433 -4.9446,-8.4207 -2.662,-1.42468 -8.2027,-1.23381 -10.2948,0.35465 -1.474,1.11916 -4.7606,7.39029 -4.7606,9.08359 0,0.29267 4.5,0.53212 10,0.53212 8.3646,0 10,-0.25342 10,-1.54966 z m 75.8686,29.03981 c -1.4473,-0.78637 -2.9875,-2.23086 -3.4227,-3.20996 -0.4352,-0.9791 -0.9848,-9.09269 -1.2213,-18.03019 l -0.4301,-16.25 -3.3973,0 c -3.2967,0 -3.3972,-0.11829 -3.3972,-4 0,-3.90476 0.083,-4 3.5,-4 3.4873,0 3.5,-0.0165 3.5,-4.55103 0,-4.24792 0.231,-4.64753 3.4679,-6 6.0162,-2.51374 6.5321,-2.15432 6.5321,4.55103 l 0,6 6.5,0 c 7.0098,0 7.3874,0.38328 4.9743,5.04966 -1.3809,2.67036 -2.0002,2.95034 -6.526,2.95034 l -5.0004,0 0.2761,15.25 0.276,15.25 3.2038,0.30991 c 1.7621,0.17045 4.1729,-0.20873 5.3574,-0.84264 2.5016,-1.33887 3.7658,-0.42843 4.1601,2.99619 0.2346,2.03753 -0.434,2.69863 -4.2213,4.17436 -5.4779,2.13447 -10.6157,2.26257 -14.1314,0.35233 z m 31.6314,-0.35071 c -4.9503,-3.05778 -6.764,-5.79782 -7.2012,-10.87931 -0.8198,-9.52785 6.2637,-16.24424 17.16312,-16.27378 7.7074,-0.0209 9.5381,-0.77493 9.5381,-3.92867 0,-4.23903 -3.7398,-7.05768 -9.3641,-7.05768 -2.60442,0 -6.14852,0.73084 -7.87592,1.62409 -3.0182,1.5608 -3.2111,1.537 -4.9503,-0.61078 -2.6275,-3.24477 -2.3258,-3.89035 2.9403,-6.29248 6.6558,-3.03603 17.92952,-3.09582 21.92672,-0.1163 5.614,4.1847 6.1313,6.2683 6.4921,26.14596 l 0.3312,18.2505 -3.2148,-5e-4 c -2.2337,-3.4e-4 -3.555,-0.63617 -4.3296,-2.08345 -0.9856,-1.8417 -1.3083,-1.91602 -2.7852,-0.64161 -4.4814,3.86694 -13.90472,4.80774 -18.67042,1.86401 z m 17.25002,-7.78434 c 1.8979,-1.18192 2.25,-2.27602 2.25,-6.991 l 0,-5.58979 -6.9265,0.39138 c -7.82722,0.44228 -11.07352,2.42603 -11.07352,6.76679 0,3.4273 2.4437,6.83023 5.2588,7.32316 3.22662,0.56499 7.88822,-0.27948 10.49122,-1.90054 z m 25.5558,7.23271 -2.8058,-2.41219 -0.302,-32.08781 -0.3019,-32.08781 4.5519,0 4.552,0 0,28.91821 c 0,15.90502 0.2731,29.63002 0.607,30.5 0.3599,0.938 1.7844,1.58179 3.5,1.58179 2.6206,0 2.893,0.31854 2.893,3.38337 0,2.66335 -0.4788,3.51169 -2.25,3.98634 -4.3615,1.16883 -7.6683,0.60465 -10.4442,-1.7819 z m -489.30581,-30.08781 0,-31.5 16,0 c 10.50465,0 16,0.36052 16,1.04966 0,0.57731 -0.68656,2.37731 -1.52568,4 l -1.52568,2.95034 -9.97432,0 -9.97432,0 0,9.5 0,9.5 10.56037,0 10.56036,0 -0.31036,3.75 -0.31037,3.75 -10.25,0.28498 -10.25,0.28499 0,9.96501 0,9.96502 12,0 12,0 0,4 0,4 -16.5,0 -16.5,0 z m 38.64271,30.2691 c 0.4184,-0.677 4.03607,-5.90936 8.03925,-11.62746 4.00316,-5.71811 6.99106,-10.90171 6.63956,-11.5191 -0.3514,-0.6174 -3.4925,-5.2535 -6.98021,-10.30244 -3.48772,-5.04895 -6.34131,-9.66145 -6.34131,-10.25 0,-0.59613 1.92667,-1.0701 4.34989,-1.0701 l 4.3499,0 5.70223,8.56856 5.7023,8.56855 1.7802,-2.31855 c 0.9791,-1.27521 3.6724,-5.13106 5.9851,-8.56856 3.9747,-5.90779 4.4219,-6.25 8.1676,-6.25 2.1796,0 3.9628,0.46316 3.9628,1.02925 0,0.56609 -3.2309,5.72274 -7.1797,11.45922 l -7.1796,10.42998 6.9296,10.27851 c 3.8113,5.65318 7.2895,10.84653 7.7294,11.54078 0.6037,0.95302 -0.3933,1.26226 -4.0697,1.26226 l -4.8693,0 -5.7739,-8.5 c -3.1756,-4.675 -6.0692,-8.49362 -6.4303,-8.48582 -0.3611,0.008 -3.1315,3.82641 -6.1565,8.48582 l -5.50002,8.47165 -4.80902,0.0142 c -3.55525,0.0105 -4.61068,-0.30673 -4.04827,-1.21672 z m 142.35731,-21.82947 0,-23.06036 3.7105,0.31036 c 2.8958,0.24222 3.829,0.80707 4.25,2.57255 l 0.5395,2.26217 3.8769,-2.76217 c 3.7985,-2.70633 11.3473,-3.8713 13.184,-2.03461 0.4001,0.40016 0.083,2.42206 -0.7056,4.49311 -1.3429,3.52827 -1.6675,3.74535 -5.1513,3.44521 -2.5047,-0.2158 -4.858,0.38417 -7.211,1.83845 l -3.493,2.15878 0,16.91844 0,16.91844 -4.5,0 -4.5,0 z m 32,0.003 0,-23.0575 4.25,0.3075 4.25,0.3075 0.2688,22.75 0.2687,22.75 -4.5187,0 -4.5188,0 z m 22,0.0575 0,-23 3.4809,0 c 2.8791,0 3.58947,0.4323 4.10837,2.5 0.3451,1.375 0.747,2.5 0.8931,2.5 0.1461,0 2.2349,-1.09104 4.6416,-2.42453 8.4388,-4.67557 16.7711,-4.23603 20.6504,1.08933 l 1.8452,2.53308 3.8274,-2.59733 c 9.8988,-6.71754 21.0272,-5.44315 24.9668,2.85914 1.2667,2.66928 1.5862,6.98821 1.5862,21.44144 l 0,18.09887 -4.5,0 -4.5,0 0,-17.5 c 0,-16.48671 -0.1225,-17.62253 -2.1161,-19.6161 -2.7409,-2.74094 -8.4311,-2.11111 -13.9554,1.54472 l -3.9285,2.59963 0,16.48581 0,16.48581 -4.5,0 -4.5,0 0,-17.5 c 0,-16.16667 -0.1524,-17.65238 -2,-19.5 -2.4215,-2.42152 -6.0061,-2.55357 -10.2997,-0.37941 -6.821,3.45401 -6.7003,3.07529 -6.7003,21.0344 l 0,16.34501 -4.49997,0 -4.5,0 0,-23 z m 122.99997,0 0,-23 3.4809,0 c 2.8634,0 3.5905,0.4362 4.098,2.4584 l 0.617,2.4584 4.68,-2.4471 c 9.7973,-5.12288 18.3369,-3.78836 22.5901,3.5303 1.8029,3.10236 2.0714,5.5734 2.3634,21.75 l 0.3294,18.25 -4.5794,0 -4.5794,0 0,-15.53212 c 0,-17.27034 -1.028,-21.75611 -5.2272,-22.81005 -3.0952,-0.77686 -7.9046,0.58775 -11.7688,3.3393 l -3.004,2.13906 0,16.4319 0,16.43191 -4.5,0 -4.5,0 z M 486.08033,404.55321 c -2.0892,-1.52765 -2.3981,-5.96465 -0.5687,-8.16893 1.8443,-2.22224 7.698,-1.94078 8.9674,0.43118 3.2231,6.0225 -2.9573,11.71659 -8.3987,7.73775 z"
     id="path2989-70-3"
     style="fill:#435d7f;fill-opacity:1"
     sodipodi:nodetypes="ccssssccccccscsscssssssccccscscssssssscsssssscccscscssssssssssscsssssscssscccscsssssssscsssscscsssscssssccccccscssscccssscccccccccccccccccccccscssscccssssscscscscscsccccsccsccsccccccccccccccccccscscscscscccscccccccsssscccccccsccssscccsssccccccssss" />
</svg>
