<!-- Created with Inkscape (http://www.inkscape.org/) -->
<svg xmlns:rdf="http://www.w3.org/1999/02/22-rdf-syntax-ns#" xmlns="http://www.w3.org/2000/svg" xml:space="preserve" height="221.75" width="405.16" viewBox="0 0 405.16 221.75" version="1.1" xmlns:cc="http://creativecommons.org/ns#" xmlns:dc="http://purl.org/dc/elements/1.1/"><metadata><rdf:RDF><cc:Work rdf:about=""><dc:format>image/svg+xml</dc:format><dc:type rdf:resource="http://purl.org/dc/dcmitype/StillImage"/><dc:title/></cc:Work></rdf:RDF></metadata><g transform="matrix(1.25,0,0,-1.25,0,221.75)"><g fill-rule="nonzero" fill="#3558b0" transform="scale(0.1,0.1)"><path d="m986.21,1226.2,1.012,1.89c13.811,84.22,52.081,155.76,114.74,214.66-21.01-5.15-33.34-8.09-39.95-9.39-37.34-2.62-64.686-3.92-82.01-3.92h-794c-44.004,0-80,4.57-107.99,13.75l-78-251.8c45.312,34.88,88.613,57.69,129.92,68.44,31.973,8.04,79.941,12.07,143.93,12.07,71.953,0,128.57-2.02,169.9-6v-956.38c0-76.058-2.676-126.74-7.988-152.07-11.97-54.64-40.56-94.001-85.76-118h418.01c-45.74,30.66-76.02,62.341-90.82,95.021-14.81,32.66-22.19,83.67-22.19,153.03v978.2h34.082c38.75,0,70.469,1.03,95.195,3.12,24.727,2.07,42.422,3.13,53.125,3.13,53.438,0,91.336-4.02,114.26-10.06,9.77-2.58,19.391-6.35,34.547-35.68"/><path d="m2136,447.22c0-107.93-43.85-204.39-131.54-289.37-109.3-105.24-258.4-157.85-447.3-157.85-128.2,0-253.7,22.262-376.4,66.77l-64.76,265.12c144.25-112.93,300.66-169.39,469.2-169.39,90.33,0,166.17,20.898,227.52,62.711,61.35,41.801,92.03,93.73,92.03,155.78,0,59.344-23.59,109.91-70.76,151.72-40.43,35.078-131.74,84.98-273.93,149.71-142.19,64.726-240.22,121.38-294.12,169.93-74.14,67.422-111.19,149.7-111.19,246.82,0,114.65,48.24,206.35,144.72,275.14,96.49,68.79,225.73,103.18,387.68,103.18,106.61,0,215.26-15.51,325.92-46.48v-242.54c-95.84,92.67-208.55,139.02-338.12,139.02-83.71,0-151.55-18.55-203.5-55.66-51.98-37.11-77.95-85.33-77.95-144.67,0-52.62,20.56-96.82,61.7-132.56,41.13-35.743,125.78-83.301,253.91-142.66,152.42-70.156,256.27-127.5,311.58-172,76.87-60.722,115.31-138.3,115.31-232.72"/><path d="m3241.3,320.65-111.99-280-862.01,0c45.19,23.992,73.79,63.321,85.76,118.01,5.31,23.981,7.99,74.649,7.99,151.99v850c0,77.33-2.68,127.99-7.99,151.99-11.97,54.67-40.57,94.01-85.76,118.01h400c-45.82-24-74.81-63.34-86.92-118.01-5.39-24-8.08-74.66-8.08-151.99v-948.01c98.81-14.661,193.61-21.993,284.43-21.993,76.1,0,141.86,9.321,197.29,27.993,55.41,18.668,117.83,52.679,187.28,102.01"/><path d="m101.75,1746.7,0-150.63-24.527,0,0,150.63-65.785,0,0,22.65,156.25,0,0-22.65-65.942,0"/><path d="m187.57,1596.1,0,173.28,23.047,0,0-66.99c7.039,8.6,14.934,14.98,23.696,19.16,8.754,4.18,18.562,6.27,29.429,6.27,8.45,0,15.934-1.23,22.461-3.69,6.531-2.46,11.906-6.11,16.125-10.96,3.676-4.22,6.281-9.25,7.805-15.11,1.519-5.86,2.281-15.28,2.281-28.25v-73.71h-23.277v74.65c0,13.59-2.363,23.22-7.094,28.89-4.726,5.66-12.598,8.49-23.609,8.49-14.067,0-25.508-4.29-34.336-12.89-8.828-8.59-13.242-19.88-13.242-33.86v-65.28h-23.286"/><path d="m364.58,1672.2,90.395,0c-1.797,10.92-6.696,19.49-14.7,25.69-8,6.2-18.125,9.31-30.378,9.31-12.18,0-22.29-3.11-30.329-9.31-8.043-6.2-13.035-14.77-14.988-25.69zm-0.699-16.57,0-0.94c0-12.15,4.269-22.06,12.82-29.74,8.543-7.67,19.61-11.5,33.196-11.5,10.144,0,18.804,2.01,25.996,6.04,7.175,4.02,12.093,9.56,14.75,16.61h27.14c-4.605-14.02-12.859-24.95-24.769-32.78-11.907-7.83-26.293-11.75-43.157-11.75-21.398,0-38.5,6.23-51.3,18.68-12.809,12.46-19.207,29.11-19.207,49.96,0,20.87,6.406,37.54,19.215,50,12.816,12.47,29.921,18.71,51.332,18.71,21.875,0,39.023-6.1,51.445-18.3,12.422-12.19,18.633-28.99,18.633-50.41v-4.58h-116.09"/><path d="m517.36,1654.7,25.938,0c0.469-13.68,5.18-23.81,14.129-30.41,8.953-6.61,22.379-9.91,40.289-9.91,15.32,0,27.168,2.54,35.531,7.62s12.551,12.31,12.551,21.68c0,6.8-2.297,12.09-6.879,15.88-4.594,3.79-12.258,6.63-23.004,8.5l-42.891,7.74c-17.437,3.04-30.164,8.27-38.175,15.65-8.012,7.39-12.02,17.46-12.02,30.2,0,16.73,6.332,29.65,18.992,38.76,12.66,9.1,30.719,13.66,54.172,13.66,22.121,0,39.125-4.75,51.004-14.25,11.883-9.5,17.942-23.08,18.176-40.75h-24.531c-0.86,11.02-5.059,19.16-12.598,24.43-7.539,5.28-18.848,7.92-33.926,7.92-14.687,0-25.918-2.37-33.691-7.09-7.774-4.73-11.66-11.56-11.66-20.47,0-6.48,2.207-11.46,6.621-14.94,4.414-3.47,12.441-6.34,24.082-8.61l38.086-7.51c20.027-3.83,34.011-9.28,41.957-16.34,7.937-7.07,11.91-17.28,11.91-30.64,0-17.19-6.551-30.52-19.641-40.01s-31.593-14.24-55.515-14.24c-25.797,0-45.321,5.29-58.567,15.87s-20.027,26.33-20.34,47.26"/><path d="m798.06,1662c-3.208-1.87-7.922-3.54-14.137-4.98-6.223-1.45-14.488-2.75-24.809-3.93-16.734-1.87-27.371-4.25-31.91-7.14-4.531-2.88-6.801-7.36-6.801-13.44,0-6.24,2.485-11.12,7.446-14.62,4.968-3.51,11.871-5.26,20.707-5.26,14.234,0,26.043,2.91,35.425,8.76,9.383,5.85,14.079,12.98,14.079,21.4v19.21zm0.703-46.02c-5.786-7.49-13.297-13.2-22.528-17.14-9.226-3.93-19.75-5.9-31.558-5.9-15.801,0-28.039,3.39-36.719,10.18-8.684,6.79-13.023,16.27-13.023,28.45,0,6.63,1.542,12.55,4.632,17.73,3.086,5.2,7.727,9.66,13.907,13.41,3.046,1.87,7.445,3.43,13.195,4.68s15.113,2.58,28.098,3.99c2.273,0.23,5.55,0.58,9.859,1.05,21.973,2.12,32.965,7.71,32.965,16.8,0,6.8-2.621,11.75-7.86,14.85-5.23,3.09-13.757,4.64-25.554,4.64-13.367,0-23.125-1.99-29.258-5.97-6.137-3.98-9.516-10.37-10.141-19.19l-24.218-0.11c0.781,15.06,6.351,26.39,16.707,34.01,10.359,7.61,25.425,11.42,45.207,11.42,21.5,0,36.683-3.23,45.554-9.67s13.313-17.46,13.313-33.08v-51.88c0-7.18,0.836-12.14,2.511-14.87,1.676-2.73,4.661-4.1,8.95-4.1,0.933,0,1.965,0.06,3.093,0.18,1.133,0.11,2.325,0.29,3.571,0.52v-18.75c-3.043-0.39-6.078-0.68-9.125-0.87-3.039-0.2-5.965-0.3-8.774-0.3-6.785,0-11.992,1.58-15.613,4.75-3.621,3.16-6.023,8.22-7.191,15.17"/><path d="m862,1596.1,0,128.44,23.281,0,0-128.44-23.281,0zm23.281,145.16-23.281,0,0,28.12,23.281,0,0-28.12"/><path d="m920.17,1596.1,0,128.44,23.047,0,0-22.15c7.035,8.6,14.929,14.98,23.683,19.16,8.762,4.18,18.578,6.27,29.446,6.27,8.442,0,15.932-1.23,22.452-3.69,6.53-2.46,11.9-6.11,16.13-10.96,3.67-4.22,6.27-9.25,7.79-15.11,1.53-5.86,2.29-15.28,2.29-28.25v-73.71h-23.28v74.65c0,13.59-2.36,23.22-7.09,28.89-4.72,5.66-12.59,8.49-23.609,8.49-14.062,0-25.508-4.29-34.336-12.89-8.828-8.59-13.242-19.88-13.242-33.86v-65.28h-23.281"/><path d="m1069.9,1637.8,25.62,0c1.1-8.19,4.88-14.51,11.36-18.96,6.48-4.44,15.23-6.66,26.24-6.66,12.65,0,22.49,1.72,29.52,5.14,7.02,3.44,10.54,8.2,10.54,14.29,0,4.45-1.65,7.83-4.93,10.14-3.29,2.3-9.43,4.19-18.43,5.67l-28.71,5.05c-17.66,2.97-29.59,7.03-35.8,12.19s-9.32,12.86-9.32,23.09c0,13.44,4.9,23.66,14.71,30.66,9.81,6.99,24.17,10.49,43.08,10.49,18.99,0,33.51-3.62,43.55-10.84s15.07-17.62,15.07-31.2v-0.93h-22.66c-0.78,7.87-4.22,13.72-10.31,17.54-6.1,3.82-15.04,5.74-26.84,5.74-10.78,0-19-1.49-24.67-4.46-5.66-2.96-8.49-7.26-8.49-12.88,0-4.92,1.72-8.61,5.15-11.07,3.44-2.46,11.33-4.74,23.68-6.85l27.89-4.58c15.42-2.58,26.12-6.58,32.11-12.01s8.98-13.54,8.98-24.32c0-13.29-5.53-23.52-16.59-30.71-11.06-7.18-26.91-10.78-47.55-10.78-19.94,0-35.08,3.79-45.44,11.36s-16.28,19.2-17.76,34.89"/><path d="m1247.3,1659.7c0-14.31,4.2-25.57,12.63-33.78,8.43-8.22,19.9-12.32,34.42-12.32,14.51,0,25.92,4.08,34.23,12.26,8.31,8.17,12.47,19.45,12.47,33.84,0,14.3-4.16,25.56-12.47,33.77s-19.72,12.32-34.23,12.32c-14.52,0-25.99-4.13-34.42-12.37-8.43-8.25-12.63-19.5-12.63-33.72zm-23.29,109.68,23.29,0,0-64.53c6.63,7.5,13.95,13.05,21.95,16.64,8.01,3.6,17.16,5.39,27.47,5.39,20.45,0,37.04-6.21,49.76-18.64,12.73-12.42,19.1-28.6,19.1-48.52,0-20.02-6.37-36.27-19.1-48.77-12.72-12.5-29.23-18.75-49.53-18.75-10.31,0-19.56,1.85-27.76,5.55-8.19,3.7-15.49,9.38-21.89,17.02v-18.67h-23.29v173.28"/><path d="m1516.7,1724.5,0-128.44-23.05,0,0,21.91c-7.11-8.62-14.99-15.02-23.66-19.21s-18.47-6.29-29.4-6.29c-8.36,0-15.82,1.27-22.38,3.81s-11.99,6.23-16.28,11.08c-3.59,4.22-6.17,9.28-7.73,15.19-1.56,5.9-2.34,15.34-2.34,28.32v73.63h23.28v-74.57c0-13.58,2.36-23.22,7.09-28.92,4.72-5.7,12.59-8.54,23.61-8.54,14.06,0,25.51,4.31,34.34,12.93,8.82,8.62,13.24,19.92,13.24,33.89v65.21h23.28"/><path d="m1550.8,1596.1,0,128.44,23.05,0,0-21.65c5.87,8.44,12.83,14.88,20.89,19.35,8.05,4.45,16.86,6.68,26.4,6.68,2.35,0,4.3-0.18,5.87-0.54,1.56-0.36,3.08-0.93,4.57-1.71v-24.47c-3.13,0.92-6.04,1.59-8.73,2.02-2.72,0.42-5.35,0.63-7.93,0.63-11.51,0-21.18-4.35-29.05-13.06-7.86-8.71-11.79-19.62-11.79-32.74v-62.95h-23.28"/><path d="m1725.1,1597c-5.16-11.81-9.6-20.7-13.31-26.68-3.71-5.99-7.25-10.23-10.62-12.73-3.28-2.34-7.31-4.13-12.07-5.34-4.78-1.21-10.3-1.81-16.55-1.81-2.11,0-4.53,0.08-7.26,0.23-2.75,0.16-5.69,0.39-8.81,0.71v21.87c3.12-0.47,5.79-0.82,7.99-1.05,2.19-0.24,4.06-0.36,5.62-0.36,8.28,0,14.51,1.72,18.66,5.15,4.14,3.44,7.53,9.79,10.19,19.07l-58.24,128.44h27.75l43.75-108.28,42.7,108.28h27.2l-57-127.5"/><path d="m1814.7,1596.1,0,173.28,24.53,0,0-150,106.1,0,0-23.28-130.63,0"/><path d="m2067.3,1662c-3.21-1.87-7.93-3.54-14.14-4.98-6.21-1.45-14.49-2.75-24.81-3.93-16.73-1.87-27.38-4.25-31.91-7.14-4.53-2.88-6.8-7.36-6.8-13.44,0-6.24,2.48-11.12,7.44-14.62,4.97-3.51,11.88-5.26,20.71-5.26,14.24,0,26.04,2.91,35.43,8.76,9.38,5.85,14.08,12.98,14.08,21.4v19.21zm0.7-46.02c-5.8-7.49-13.3-13.2-22.54-17.14-9.22-3.93-19.74-5.9-31.54-5.9-15.8,0-28.05,3.39-36.73,10.18s-13.02,16.27-13.02,28.45c0,6.63,1.55,12.55,4.63,17.73,3.09,5.2,7.72,9.66,13.91,13.41,3.05,1.87,7.44,3.43,13.2,4.68,5.74,1.25,15.11,2.58,28.09,3.99,2.26,0.23,5.56,0.58,9.86,1.05,21.97,2.12,32.97,7.71,32.97,16.8,0,6.8-2.62,11.75-7.86,14.85-5.24,3.09-13.76,4.64-25.56,4.64-13.38,0-23.12-1.99-29.26-5.97-6.13-3.98-9.51-10.37-10.13-19.19l-24.22-0.11c0.78,15.06,6.35,26.39,16.7,34.01,10.37,7.61,25.43,11.42,45.21,11.42,21.5,0,36.68-3.23,45.55-9.67,8.88-6.44,13.32-17.46,13.32-33.08v-51.88c0-7.18,0.84-12.14,2.51-14.87s4.66-4.1,8.95-4.1c0.92,0,1.96,0.06,3.09,0.18,1.13,0.11,2.33,0.29,3.58,0.52v-18.75c-3.05-0.39-6.1-0.68-9.13-0.87-3.04-0.2-5.97-0.3-8.77-0.3-6.79,0-11.99,1.58-15.62,4.75-3.63,3.16-6.02,8.22-7.19,15.17"/><path d="m2154.1,1659.7c0-14.31,4.22-25.57,12.63-33.78,8.44-8.22,19.91-12.32,34.42-12.32s25.92,4.08,34.24,12.26c8.3,8.17,12.46,19.45,12.46,33.84,0,14.3-4.16,25.56-12.46,33.77-8.32,8.21-19.73,12.32-34.24,12.32s-25.98-4.13-34.42-12.37c-8.41-8.25-12.63-19.5-12.63-33.72zm-23.28,109.68,23.28,0,0-64.53c6.64,7.5,13.95,13.05,21.95,16.64,8.01,3.6,17.17,5.39,27.46,5.39,20.47,0,37.05-6.21,49.79-18.64,12.71-12.42,19.08-28.6,19.08-48.52,0-20.02-6.37-36.27-19.08-48.77-12.74-12.5-29.24-18.75-49.55-18.75-10.3,0-19.56,1.85-27.76,5.55-8.19,3.7-15.49,9.38-21.89,17.02v-18.67h-23.28v173.28"/><path d="m2316.4,1660.2c0-14.43,4.28-25.85,12.84-34.24s20.18-12.57,34.88-12.57c14.69,0,26.3,4.18,34.81,12.57,8.52,8.39,12.79,19.81,12.79,34.24,0,14.51-4.27,25.96-12.79,34.35-8.51,8.39-20.12,12.59-34.81,12.59-14.7,0-26.32-4.22-34.88-12.65-8.56-8.42-12.84-19.85-12.84-34.29zm-24.22-0.02c0,20.78,6.54,37.43,19.58,49.93,13.05,12.5,30.53,18.75,52.42,18.75,21.88,0,39.31-6.24,52.29-18.7,12.97-12.46,19.46-29.12,19.46-49.98s-6.49-37.52-19.46-49.98c-12.98-12.46-30.41-18.69-52.29-18.69-21.89,0-39.37,6.23-52.42,18.69-13.04,12.46-19.58,29.12-19.58,49.98"/><path d="m2462.8,1596.1,0,128.44,23.05,0,0-21.65c5.86,8.44,12.83,14.88,20.87,19.35,8.07,4.45,16.87,6.68,26.41,6.68,2.34,0,4.31-0.18,5.88-0.54,1.56-0.36,3.09-0.93,4.57-1.71v-24.47c-3.12,0.92-6.04,1.59-8.75,2.02-2.7,0.42-5.33,0.63-7.91,0.63-11.5,0-21.19-4.35-29.04-13.06-7.87-8.71-11.8-19.62-11.8-32.74v-62.95h-23.28"/><path d="m2658.4,1662c-3.2-1.87-7.92-3.54-14.14-4.98-6.21-1.45-14.48-2.75-24.8-3.93-16.74-1.87-27.37-4.25-31.92-7.14-4.53-2.88-6.79-7.36-6.79-13.44,0-6.24,2.48-11.12,7.44-14.62,4.98-3.51,11.87-5.26,20.71-5.26,14.23,0,26.05,2.91,35.42,8.76,9.4,5.85,14.08,12.98,14.08,21.4v19.21zm0.71-46.02c-5.78-7.49-13.3-13.2-22.52-17.14-9.24-3.93-19.76-5.9-31.57-5.9-15.8,0-28.04,3.39-36.71,10.18-8.7,6.79-13.03,16.27-13.03,28.45,0,6.63,1.54,12.55,4.63,17.73,3.08,5.2,7.73,9.66,13.9,13.41,3.05,1.87,7.45,3.43,13.21,4.68,5.74,1.25,15.11,2.58,28.09,3.99,2.28,0.23,5.56,0.58,9.86,1.05,21.97,2.12,32.96,7.71,32.96,16.8,0,6.8-2.61,11.75-7.85,14.85-5.23,3.09-13.77,4.64-25.56,4.64-13.36,0-23.13-1.99-29.26-5.97s-9.51-10.37-10.14-19.19l-24.22-0.11c0.78,15.06,6.35,26.39,16.71,34.01,10.36,7.61,25.42,11.42,45.21,11.42,21.5,0,36.68-3.23,45.55-9.67,8.88-6.44,13.31-17.46,13.31-33.08v-51.88c0-7.18,0.84-12.14,2.52-14.87,1.67-2.73,4.65-4.1,8.95-4.1,0.94,0,1.96,0.06,3.09,0.18,1.13,0.11,2.32,0.29,3.57,0.52v-18.75c-3.05-0.39-6.07-0.68-9.12-0.87-3.05-0.2-5.97-0.3-8.77-0.3-6.8,0-11.99,1.58-15.63,4.75-3.61,3.16-6.01,8.22-7.18,15.17"/><path d="m2752.8,1627.7c0-5.45,1.19-9.33,3.57-11.63,2.41-2.3,6.41-3.44,12.05-3.44,2.11,0,4.45,0.17,7,0.51,2.54,0.34,5.42,0.9,8.63,1.67v-21.07c-5.57-0.85-9.88-1.44-12.97-1.75-3.11-0.3-5.9-0.46-8.4-0.46-11.37,0-19.78,2.42-25.25,7.26-5.49,4.83-8.22,12.24-8.22,22.23v83.32h-22.35v20.16h22.35v32.66h23.59v-32.66h31.25v-20.16h-31.25v-76.64"/><path d="m2819.6,1660.2c0-14.43,4.28-25.85,12.85-34.24,8.56-8.39,20.18-12.57,34.87-12.57,14.7,0,26.31,4.18,34.82,12.57,8.52,8.39,12.78,19.81,12.78,34.24,0,14.51-4.26,25.96-12.78,34.35-8.51,8.39-20.12,12.59-34.82,12.59-14.69,0-26.31-4.22-34.87-12.65-8.57-8.42-12.85-19.85-12.85-34.29zm-24.22-0.02c0,20.78,6.53,37.43,19.59,49.93,13.05,12.5,30.53,18.75,52.41,18.75,21.89,0,39.31-6.24,52.3-18.7,12.97-12.46,19.45-29.12,19.45-49.98s-6.48-37.52-19.45-49.98c-12.99-12.46-30.41-18.69-52.3-18.69-21.88,0-39.36,6.23-52.41,18.69-13.06,12.46-19.59,29.12-19.59,49.98"/><path d="m2966,1596.1,0,128.44,23.05,0,0-21.65c5.86,8.44,12.83,14.88,20.88,19.35,8.06,4.45,16.85,6.68,26.4,6.68,2.35,0,4.3-0.18,5.86-0.54,1.57-0.36,3.11-0.93,4.59-1.71v-24.47c-3.13,0.92-6.05,1.59-8.75,2.02-2.69,0.42-5.33,0.63-7.91,0.63-11.5,0-21.19-4.35-29.05-13.06s-11.79-19.62-11.79-32.74v-62.95h-23.28"/><path d="m3140.4,1597c-5.16-11.81-9.6-20.7-13.32-26.68-3.71-5.99-7.25-10.23-10.61-12.73-3.28-2.34-7.31-4.13-12.09-5.34-4.76-1.21-10.27-1.81-16.53-1.81-2.12,0-4.54,0.08-7.28,0.23-2.73,0.16-5.66,0.39-8.79,0.71v21.87c3.13-0.47,5.78-0.82,7.97-1.05,2.19-0.24,4.06-0.36,5.63-0.36,8.3,0,14.51,1.72,18.65,5.15,4.14,3.44,7.55,9.79,10.21,19.07l-58.24,128.44h27.74l43.75-108.28,42.7,108.28h27.22l-57.01-127.5"/></g></g></svg>
